<ttFont>
<head>
    <!-- Most of this table will be recalculated by the compiler -->
    <tableVersion value="1.0"/>
    <fontRevision value="1.01"/>
    <checkSumAdjustment value="0x7d5a2d90"/>
    <magicNumber value="0x5f0f3cf5"/>
    <flags value="00000000 00000001"/>
    <unitsPerEm value="1000"/>
    <created value="Fri Jan 11 01:46:51 2019"/>
    <modified value="Sat Aug  1 00:44:43 2020"/>
    <xMin value="-181"/>
    <yMin value="-325"/>
    <xMax value="1187"/>
    <yMax value="927"/>
    <macStyle value="00000000 00000010"/>
    <lowestRecPPEM value="3"/>
    <fontDirectionHint value="2"/>
    <indexToLocFormat value="0"/>
    <glyphDataFormat value="0"/>
  </head>
    <TTGlyph name="A" xMin="-29" yMin="0" xMax="646" yMax="663">
      <contour>
        <pt x="-29" y="0" on="1"/>
        <pt x="-20" y="47" on="1"/>
        <pt x="65" y="59" on="1"/>
        <pt x="392" y="663" on="1"/>
        <pt x="470" y="663" on="1"/>
        <pt x="562" y="57" on="1"/>
        <pt x="646" y="47" on="1"/>
        <pt x="637" y="0" on="1"/>
        <pt x="350" y="0" on="1"/>
        <pt x="359" y="47" on="1"/>
        <pt x="444" y="56" on="1"/>
        <pt x="421" y="221" on="1"/>
        <pt x="204" y="221" on="1"/>
        <pt x="121" y="60" on="1"/>
        <pt x="206" y="47" on="1"/>
        <pt x="196" y="0" on="1"/>
      </contour>
      <contour>
        <pt x="231" y="273" on="1"/>
        <pt x="414" y="273" on="1"/>
        <pt x="375" y="550" on="1"/>
      </contour>
    </TTGlyph>
    <TTGlyph name="B" xMin="7" yMin="0" xMax="596" yMax="663">
      <contour>
        <pt x="115" y="616" on="1"/>
        <pt x="124" y="663" on="1"/>
        <pt x="389" y="663" on="1"/>
        <pt x="464" y="663" on="0"/>
        <pt x="555" y="622" on="0"/>
        <pt x="596" y="555" on="0"/>
        <pt x="596" y="515" on="1"/>
        <pt x="596" y="456" on="0"/>
        <pt x="511" y="367" on="0"/>
        <pt x="434" y="350" on="1"/>
        <pt x="510" y="334" on="0"/>
        <pt x="586" y="243" on="0"/>
        <pt x="586" y="184" on="1"/>
        <pt x="586" y="133" on="0"/>
        <pt x="524" y="50" on="0"/>
        <pt x="398" y="0" on="0"/>
        <pt x="302" y="0" on="1"/>
        <pt x="7" y="0" on="1"/>
        <pt x="16" y="47" on="1"/>
        <pt x="99" y="56" on="1"/>
        <pt x="155" y="353" on="1"/>
        <pt x="167" y="416" on="0"/>
        <pt x="189" y="543" on="0"/>
        <pt x="200" y="606" on="1"/>
      </contour>
      <contour>
        <pt x="264" y="310" on="1"/>
        <pt x="251" y="246" on="0"/>
        <pt x="229" y="116" on="0"/>
        <pt x="218" y="51" on="1"/>
        <pt x="286" y="51" on="1"/>
        <pt x="378" y="51" on="0"/>
        <pt x="465" y="136" on="0"/>
        <pt x="465" y="200" on="1"/>
        <pt x="465" y="259" on="0"/>
        <pt x="390" y="323" on="0"/>
        <pt x="328" y="323" on="1"/>
        <pt x="266" y="323" on="1"/>
      </contour>
      <contour>
        <pt x="366" y="612" on="1"/>
        <pt x="321" y="612" on="1"/>
        <pt x="276" y="372" on="1"/>
        <pt x="318" y="372" on="1"/>
        <pt x="400" y="372" on="0"/>
        <pt x="479" y="445" on="0"/>
        <pt x="479" y="506" on="1"/>
        <pt x="479" y="553" on="0"/>
        <pt x="424" y="612" on="0"/>
      </contour>
    </TTGlyph>
    <TTGlyph name="C" xMin="52" yMin="-17" xMax="620" yMax="680">
      <contour>
        <pt x="339" y="-17" on="1"/>
        <pt x="252" y="-17" on="0"/>
        <pt x="123" y="54" on="0"/>
        <pt x="52" y="186" on="0"/>
        <pt x="52" y="277" on="1"/>
        <pt x="52" y="360" on="0"/>
        <pt x="110" y="506" on="0"/>
        <pt x="215" y="617" on="0"/>
        <pt x="356" y="680" on="0"/>
        <pt x="439" y="680" on="1"/>
        <pt x="486" y="680" on="0"/>
        <pt x="573" y="657" on="0"/>
        <pt x="620" y="628" on="1"/>
        <pt x="597" y="482" on="1"/>
        <pt x="530" y="482" on="1"/>
        <pt x="529" y="606" on="1"/>
        <pt x="487" y="626" on="0"/>
        <pt x="440" y="626" on="1"/>
        <pt x="382" y="626" on="0"/>
        <pt x="286" y="570" on="0"/>
        <pt x="215" y="473" on="0"/>
        <pt x="176" y="346" on="0"/>
        <pt x="176" y="275" on="1"/>
        <pt x="176" y="201" on="0"/>
        <pt x="226" y="94" on="0"/>
        <pt x="315" y="37" on="0"/>
        <pt x="373" y="37" on="1"/>
        <pt x="393" y="37" on="0"/>
        <pt x="430" y="44" on="0"/>
        <pt x="449" y="50" on="1"/>
        <pt x="495" y="180" on="1"/>
        <pt x="563" y="180" on="1"/>
        <pt x="536" y="30" on="1"/>
        <pt x="498" y="11" on="0"/>
        <pt x="404" y="-17" on="0"/>
      </contour>
    </TTGlyph>
    <TTGlyph name="D" xMin="7" yMin="0" xMax="688" yMax="663">
      <contour>
        <pt x="115" y="616" on="1"/>
        <pt x="124" y="663" on="1"/>
        <pt x="395" y="663" on="1"/>
        <pt x="488" y="663" on="0"/>
        <pt x="619" y="593" on="0"/>
        <pt x="688" y="468" on="0"/>
        <pt x="688" y="386" on="1"/>
        <pt x="688" y="293" on="0"/>
        <pt x="624" y="149" on="0"/>
        <pt x="512" y="50" on="0"/>
        <pt x="369" y="0" on="0"/>
        <pt x="289" y="0" on="1"/>
        <pt x="7" y="0" on="1"/>
        <pt x="16" y="47" on="1"/>
        <pt x="99" y="57" on="1"/>
        <pt x="155" y="353" on="1"/>
        <pt x="167" y="416" on="0"/>
        <pt x="189" y="543" on="0"/>
        <pt x="200" y="606" on="1"/>
      </contour>
      <contour>
        <pt x="264" y="310" on="1"/>
        <pt x="251" y="246" on="0"/>
        <pt x="229" y="116" on="0"/>
        <pt x="218" y="51" on="1"/>
        <pt x="289" y="51" on="1"/>
        <pt x="355" y="51" on="0"/>
        <pt x="456" y="108" on="0"/>
        <pt x="526" y="204" on="0"/>
        <pt x="562" y="326" on="0"/>
        <pt x="562" y="392" on="1"/>
        <pt x="562" y="499" on="0"/>
        <pt x="453" y="612" on="0"/>
        <pt x="352" y="612" on="1"/>
        <pt x="321" y="612" on="1"/>
      </contour>
    </TTGlyph>
    <TTGlyph name="E" xMin="7" yMin="0" xMax="599" yMax="663">
      <contour>
        <pt x="115" y="616" on="1"/>
        <pt x="124" y="663" on="1"/>
        <pt x="599" y="663" on="1"/>
        <pt x="574" y="488" on="1"/>
        <pt x="509" y="488" on="1"/>
        <pt x="510" y="610" on="1"/>
        <pt x="321" y="610" on="1"/>
        <pt x="275" y="366" on="1"/>
        <pt x="408" y="366" on="1"/>
        <pt x="438" y="454" on="1"/>
        <pt x="487" y="454" on="1"/>
        <pt x="444" y="228" on="1"/>
        <pt x="396" y="228" on="1"/>
        <pt x="399" y="313" on="1"/>
        <pt x="265" y="313" on="1"/>
        <pt x="264" y="310" on="1"/>
        <pt x="251" y="246" on="0"/>
        <pt x="229" y="118" on="0"/>
        <pt x="218" y="53" on="1"/>
        <pt x="448" y="53" on="1"/>
        <pt x="492" y="175" on="1"/>
        <pt x="556" y="175" on="1"/>
        <pt x="517" y="0" on="1"/>
        <pt x="7" y="0" on="1"/>
        <pt x="16" y="47" on="1"/>
        <pt x="99" y="56" on="1"/>
        <pt x="155" y="353" on="1"/>
        <pt x="167" y="416" on="0"/>
        <pt x="189" y="543" on="0"/>
        <pt x="200" y="606" on="1"/>
      </contour>
    </TTGlyph>
    <TTGlyph name="F" xMin="7" yMin="0" xMax="610" yMax="663">
      <contour>
        <pt x="115" y="616" on="1"/>
        <pt x="124" y="663" on="1"/>
        <pt x="610" y="663" on="1"/>
        <pt x="582" y="488" on="1"/>
        <pt x="517" y="488" on="1"/>
        <pt x="518" y="610" on="1"/>
        <pt x="321" y="610" on="1"/>
        <pt x="275" y="366" on="1"/>
        <pt x="408" y="366" on="1"/>
        <pt x="438" y="454" on="1"/>
        <pt x="487" y="454" on="1"/>
        <pt x="444" y="218" on="1"/>
        <pt x="395" y="218" on="1"/>
        <pt x="398" y="313" on="1"/>
        <pt x="265" y="313" on="1"/>
        <pt x="264" y="310" on="1"/>
        <pt x="240" y="184" on="0"/>
        <pt x="219" y="58" on="1"/>
        <pt x="312" y="47" on="1"/>
        <pt x="303" y="0" on="1"/>
        <pt x="7" y="0" on="1"/>
        <pt x="16" y="47" on="1"/>
        <pt x="99" y="56" on="1"/>
        <pt x="155" y="353" on="1"/>
        <pt x="167" y="416" on="0"/>
        <pt x="189" y="543" on="0"/>
        <pt x="200" y="606" on="1"/>
      </contour>
    </TTGlyph>
    <TTGlyph name="G" xMin="52" yMin="-16" xMax="670" yMax="680">
      <contour>
        <pt x="52" y="275" on="1"/>
        <pt x="52" y="362" on="0"/>
        <pt x="112" y="510" on="0"/>
        <pt x="218" y="619" on="0"/>
        <pt x="359" y="680" on="0"/>
        <pt x="440" y="680" on="1"/>
        <pt x="494" y="680" on="0"/>
        <pt x="587" y="656" on="0"/>
        <pt x="633" y="626" on="1"/>
        <pt x="610" y="479" on="1"/>
        <pt x="543" y="479" on="1"/>
        <pt x="539" y="611" on="1"/>
        <pt x="518" y="619" on="0"/>
        <pt x="472" y="627" on="0"/>
        <pt x="449" y="627" on="1"/>
        <pt x="387" y="627" on="0"/>
        <pt x="287" y="570" on="0"/>
        <pt x="215" y="471" on="0"/>
        <pt x="177" y="344" on="0"/>
        <pt x="177" y="274" on="1"/>
        <pt x="177" y="199" on="0"/>
        <pt x="231" y="92" on="0"/>
        <pt x="323" y="36" on="0"/>
        <pt x="380" y="36" on="1"/>
        <pt x="409" y="36" on="0"/>
        <pt x="436" y="42" on="1"/>
        <pt x="444" y="87" on="1"/>
        <pt x="452" y="131" on="0"/>
        <pt x="466" y="220" on="0"/>
        <pt x="473" y="264" on="1"/>
        <pt x="378" y="277" on="1"/>
        <pt x="387" y="324" on="1"/>
        <pt x="670" y="324" on="1"/>
        <pt x="662" y="277" on="1"/>
        <pt x="593" y="268" on="1"/>
        <pt x="548" y="27" on="1"/>
        <pt x="502" y="7" on="0"/>
        <pt x="412" y="-16" on="0"/>
        <pt x="354" y="-16" on="1"/>
        <pt x="260" y="-16" on="0"/>
        <pt x="124" y="54" on="0"/>
        <pt x="52" y="185" on="0"/>
      </contour>
    </TTGlyph>
    <TTGlyph name="H" xMin="7" yMin="0" xMax="803" yMax="663">
      <contour>
        <pt x="506" y="616" on="1"/>
        <pt x="515" y="663" on="1"/>
        <pt x="803" y="663" on="1"/>
        <pt x="793" y="616" on="1"/>
        <pt x="711" y="607" on="1"/>
        <pt x="655" y="310" on="1"/>
        <pt x="643" y="247" on="0"/>
        <pt x="621" y="120" on="0"/>
        <pt x="610" y="57" on="1"/>
        <pt x="695" y="47" on="1"/>
        <pt x="686" y="0" on="1"/>
        <pt x="398" y="0" on="1"/>
        <pt x="408" y="47" on="1"/>
        <pt x="490" y="56" on="1"/>
        <pt x="539" y="314" on="1"/>
        <pt x="265" y="314" on="1"/>
        <pt x="264" y="310" on="1"/>
        <pt x="252" y="247" on="0"/>
        <pt x="230" y="120" on="0"/>
        <pt x="219" y="57" on="1"/>
        <pt x="304" y="47" on="1"/>
        <pt x="295" y="0" on="1"/>
        <pt x="7" y="0" on="1"/>
        <pt x="17" y="47" on="1"/>
        <pt x="99" y="56" on="1"/>
        <pt x="155" y="353" on="1"/>
        <pt x="167" y="416" on="0"/>
        <pt x="190" y="543" on="0"/>
        <pt x="200" y="606" on="1"/>
        <pt x="115" y="616" on="1"/>
        <pt x="124" y="663" on="1"/>
        <pt x="412" y="663" on="1"/>
        <pt x="402" y="616" on="1"/>
        <pt x="320" y="607" on="1"/>
        <pt x="275" y="366" on="1"/>
        <pt x="548" y="366" on="1"/>
        <pt x="559" y="426" on="0"/>
        <pt x="581" y="546" on="0"/>
        <pt x="591" y="606" on="1"/>
      </contour>
    </TTGlyph>
    <TTGlyph name="I" xMin="7" yMin="0" xMax="412" yMax="663">
      <contour>
        <pt x="115" y="616" on="1"/>
        <pt x="124" y="663" on="1"/>
        <pt x="412" y="663" on="1"/>
        <pt x="402" y="616" on="1"/>
        <pt x="320" y="607" on="1"/>
        <pt x="264" y="310" on="1"/>
        <pt x="252" y="247" on="0"/>
        <pt x="230" y="120" on="0"/>
        <pt x="219" y="57" on="1"/>
        <pt x="303" y="47" on="1"/>
        <pt x="294" y="0" on="1"/>
        <pt x="7" y="0" on="1"/>
        <pt x="16" y="47" on="1"/>
        <pt x="99" y="56" on="1"/>
        <pt x="155" y="353" on="1"/>
        <pt x="167" y="416" on="0"/>
        <pt x="189" y="543" on="0"/>
        <pt x="200" y="606" on="1"/>
      </contour>
    </TTGlyph>
    <TTGlyph name="J" xMin="-37" yMin="-49" xMax="468" yMax="663">
      <contour>
        <pt x="162" y="616" on="1"/>
        <pt x="171" y="663" on="1"/>
        <pt x="468" y="663" on="1"/>
        <pt x="459" y="616" on="1"/>
        <pt x="375" y="607" on="1"/>
        <pt x="323" y="309" on="1"/>
        <pt x="309" y="228" on="0"/>
        <pt x="280" y="125" on="0"/>
        <pt x="260" y="90" on="1"/>
        <pt x="226" y="23" on="0"/>
        <pt x="117" y="-49" on="0"/>
        <pt x="61" y="-49" on="1"/>
        <pt x="24" y="-49" on="0"/>
        <pt x="-30" y="-21" on="0"/>
        <pt x="-37" y="8" on="1"/>
        <pt x="-32" y="34" on="0"/>
        <pt x="7" y="64" on="0"/>
        <pt x="35" y="64" on="1"/>
        <pt x="54" y="64" on="0"/>
        <pt x="92" y="43" on="0"/>
        <pt x="125" y="14" on="1"/>
        <pt x="145" y="37" on="0"/>
        <pt x="174" y="101" on="0"/>
        <pt x="181" y="143" on="1"/>
        <pt x="187" y="172" on="0"/>
        <pt x="195" y="231" on="0"/>
        <pt x="206" y="304" on="0"/>
        <pt x="214" y="354" on="1"/>
        <pt x="223" y="412" on="0"/>
        <pt x="243" y="536" on="0"/>
        <pt x="254" y="605" on="1"/>
      </contour>
    </TTGlyph>
    <TTGlyph name="K" xMin="6" yMin="0" xMax="723" yMax="663">
      <contour>
        <pt x="493" y="616" on="1"/>
        <pt x="502" y="663" on="1"/>
        <pt x="723" y="663" on="1"/>
        <pt x="714" y="616" on="1"/>
        <pt x="617" y="603" on="1"/>
        <pt x="405" y="405" on="1"/>
        <pt x="588" y="56" on="1"/>
        <pt x="661" y="47" on="1"/>
        <pt x="653" y="0" on="1"/>
        <pt x="389" y="0" on="1"/>
        <pt x="396" y="47" on="1"/>
        <pt x="459" y="55" on="1"/>
        <pt x="321" y="326" on="1"/>
        <pt x="252" y="262" on="1"/>
        <pt x="242" y="211" on="0"/>
        <pt x="224" y="108" on="0"/>
        <pt x="216" y="57" on="1"/>
        <pt x="293" y="47" on="1"/>
        <pt x="283" y="0" on="1"/>
        <pt x="6" y="0" on="1"/>
        <pt x="15" y="47" on="1"/>
        <pt x="96" y="56" on="1"/>
        <pt x="152" y="353" on="1"/>
        <pt x="164" y="416" on="0"/>
        <pt x="186" y="543" on="0"/>
        <pt x="197" y="606" on="1"/>
        <pt x="114" y="616" on="1"/>
        <pt x="123" y="663" on="1"/>
        <pt x="406" y="663" on="1"/>
        <pt x="397" y="616" on="1"/>
        <pt x="317" y="607" on="1"/>
        <pt x="265" y="331" on="1"/>
        <pt x="554" y="605" on="1"/>
      </contour>
    </TTGlyph>
    <TTGlyph name="L" xMin="7" yMin="0" xMax="552" yMax="663">
      <contour>
        <pt x="115" y="616" on="1"/>
        <pt x="124" y="663" on="1"/>
        <pt x="421" y="663" on="1"/>
        <pt x="411" y="616" on="1"/>
        <pt x="320" y="606" on="1"/>
        <pt x="264" y="310" on="1"/>
        <pt x="251" y="246" on="0"/>
        <pt x="229" y="118" on="0"/>
        <pt x="219" y="54" on="1"/>
        <pt x="436" y="54" on="1"/>
        <pt x="486" y="192" on="1"/>
        <pt x="552" y="192" on="1"/>
        <pt x="512" y="0" on="1"/>
        <pt x="7" y="0" on="1"/>
        <pt x="16" y="47" on="1"/>
        <pt x="99" y="57" on="1"/>
        <pt x="155" y="353" on="1"/>
        <pt x="167" y="416" on="0"/>
        <pt x="189" y="543" on="0"/>
        <pt x="200" y="606" on="1"/>
      </contour>
    </TTGlyph>
    <TTGlyph name="M" xMin="-11" yMin="0" xMax="941" yMax="663">
      <contour>
        <pt x="-11" y="0" on="1"/>
        <pt x="-2" y="47" on="1"/>
        <pt x="93" y="61" on="1"/>
        <pt x="221" y="608" on="1"/>
        <pt x="139" y="616" on="1"/>
        <pt x="149" y="663" on="1"/>
        <pt x="349" y="663" on="1"/>
        <pt x="452" y="167" on="1"/>
        <pt x="742" y="663" on="1"/>
        <pt x="941" y="663" on="1"/>
        <pt x="934" y="616" on="1"/>
        <pt x="847" y="606" on="1"/>
        <pt x="803" y="312" on="1"/>
        <pt x="795" y="248" on="0"/>
        <pt x="777" y="121" on="0"/>
        <pt x="769" y="58" on="1"/>
        <pt x="852" y="48" on="1"/>
        <pt x="844" y="0" on="1"/>
        <pt x="562" y="0" on="1"/>
        <pt x="569" y="48" on="1"/>
        <pt x="649" y="57" on="1"/>
        <pt x="720" y="534" on="1"/>
        <pt x="410" y="1" on="1"/>
        <pt x="370" y="1" on="1"/>
        <pt x="253" y="532" on="1"/>
        <pt x="144" y="60" on="1"/>
        <pt x="234" y="47" on="1"/>
        <pt x="224" y="0" on="1"/>
      </contour>
    </TTGlyph>
    <TTGlyph name="N" xMin="0" yMin="-6" xMax="779" yMax="663">
      <contour>
        <pt x="524" y="616" on="1"/>
        <pt x="534" y="663" on="1"/>
        <pt x="779" y="663" on="1"/>
        <pt x="770" y="616" on="1"/>
        <pt x="689" y="603" on="1"/>
        <pt x="575" y="-6" on="1"/>
        <pt x="519" y="-6" on="1"/>
        <pt x="234" y="520" on="1"/>
        <pt x="146" y="60" on="1"/>
        <pt x="251" y="47" on="1"/>
        <pt x="243" y="0" on="1"/>
        <pt x="0" y="0" on="1"/>
        <pt x="9" y="47" on="1"/>
        <pt x="91" y="59" on="1"/>
        <pt x="193" y="595" on="1"/>
        <pt x="186" y="608" on="1"/>
        <pt x="107" y="616" on="1"/>
        <pt x="116" y="663" on="1"/>
        <pt x="293" y="663" on="1"/>
        <pt x="555" y="177" on="1"/>
        <pt x="634" y="603" on="1"/>
      </contour>
    </TTGlyph>
    <TTGlyph name="O" xMin="56" yMin="-16" xMax="664" yMax="680">
      <contour>
        <pt x="300" y="-16" on="1"/>
        <pt x="229" y="-16" on="0"/>
        <pt x="118" y="47" on="0"/>
        <pt x="56" y="170" on="0"/>
        <pt x="56" y="258" on="1"/>
        <pt x="56" y="342" on="0"/>
        <pt x="109" y="494" on="0"/>
        <pt x="205" y="612" on="0"/>
        <pt x="338" y="680" on="0"/>
        <pt x="419" y="680" on="1"/>
        <pt x="493" y="680" on="0"/>
        <pt x="603" y="612" on="0"/>
        <pt x="664" y="488" on="0"/>
        <pt x="664" y="405" on="1"/>
        <pt x="664" y="320" on="0"/>
        <pt x="612" y="168" on="0"/>
        <pt x="516" y="51" on="0"/>
        <pt x="382" y="-16" on="0"/>
      </contour>
      <contour>
        <pt x="313" y="37" on="1"/>
        <pt x="360" y="37" on="0"/>
        <pt x="444" y="97" on="0"/>
        <pt x="507" y="203" on="0"/>
        <pt x="543" y="342" on="0"/>
        <pt x="543" y="422" on="1"/>
        <pt x="543" y="519" on="0"/>
        <pt x="480" y="626" on="0"/>
        <pt x="408" y="626" on="1"/>
        <pt x="361" y="626" on="0"/>
        <pt x="277" y="567" on="0"/>
        <pt x="213" y="462" on="0"/>
        <pt x="177" y="323" on="0"/>
        <pt x="177" y="243" on="1"/>
        <pt x="177" y="147" on="0"/>
        <pt x="243" y="37" on="0"/>
      </contour>
    </TTGlyph>
    <TTGlyph name="P" xMin="7" yMin="0" xMax="603" yMax="663">
      <contour>
        <pt x="115" y="616" on="1"/>
        <pt x="124" y="663" on="1"/>
        <pt x="365" y="663" on="1"/>
        <pt x="489" y="663" on="0"/>
        <pt x="603" y="565" on="0"/>
        <pt x="603" y="485" on="1"/>
        <pt x="603" y="422" on="0"/>
        <pt x="537" y="318" on="0"/>
        <pt x="405" y="255" on="0"/>
        <pt x="306" y="255" on="1"/>
        <pt x="254" y="255" on="1"/>
        <pt x="244" y="206" on="0"/>
        <pt x="227" y="107" on="0"/>
        <pt x="219" y="58" on="1"/>
        <pt x="312" y="47" on="1"/>
        <pt x="303" y="0" on="1"/>
        <pt x="7" y="0" on="1"/>
        <pt x="16" y="47" on="1"/>
        <pt x="99" y="56" on="1"/>
        <pt x="155" y="353" on="1"/>
        <pt x="167" y="416" on="0"/>
        <pt x="189" y="543" on="0"/>
        <pt x="200" y="606" on="1"/>
      </contour>
      <contour>
        <pt x="264" y="310" on="1"/>
        <pt x="264" y="309" on="0"/>
        <pt x="263" y="307" on="0"/>
        <pt x="263" y="306" on="1"/>
        <pt x="308" y="306" on="1"/>
        <pt x="391" y="306" on="0"/>
        <pt x="483" y="403" on="0"/>
        <pt x="483" y="484" on="1"/>
        <pt x="483" y="546" on="0"/>
        <pt x="415" y="612" on="0"/>
        <pt x="353" y="612" on="1"/>
        <pt x="321" y="612" on="1"/>
      </contour>
    </TTGlyph>
    <TTGlyph name="Q" xMin="56" yMin="-240" xMax="664" yMax="680">
      <contour>
        <pt x="313" y="37" on="1"/>
        <pt x="360" y="37" on="0"/>
        <pt x="444" y="97" on="0"/>
        <pt x="507" y="203" on="0"/>
        <pt x="543" y="342" on="0"/>
        <pt x="543" y="422" on="1"/>
        <pt x="543" y="519" on="0"/>
        <pt x="480" y="626" on="0"/>
        <pt x="408" y="626" on="1"/>
        <pt x="361" y="626" on="0"/>
        <pt x="277" y="567" on="0"/>
        <pt x="213" y="462" on="0"/>
        <pt x="177" y="323" on="0"/>
        <pt x="177" y="243" on="1"/>
        <pt x="177" y="147" on="0"/>
        <pt x="243" y="37" on="0"/>
      </contour>
      <contour>
        <pt x="475" y="-240" on="1"/>
        <pt x="373" y="-240" on="0"/>
        <pt x="251" y="-114" on="0"/>
        <pt x="242" y="-10" on="1"/>
        <pt x="159" y="7" on="0"/>
        <pt x="56" y="144" on="0"/>
        <pt x="56" y="258" on="1"/>
        <pt x="56" y="342" on="0"/>
        <pt x="109" y="494" on="0"/>
        <pt x="205" y="612" on="0"/>
        <pt x="338" y="680" on="0"/>
        <pt x="419" y="680" on="1"/>
        <pt x="493" y="680" on="0"/>
        <pt x="603" y="612" on="0"/>
        <pt x="664" y="488" on="0"/>
        <pt x="664" y="405" on="1"/>
        <pt x="664" y="327" on="0"/>
        <pt x="620" y="186" on="0"/>
        <pt x="539" y="73" on="0"/>
        <pt x="425" y="-1" on="0"/>
        <pt x="354" y="-12" on="1"/>
        <pt x="361" y="-86" on="0"/>
        <pt x="442" y="-169" on="0"/>
        <pt x="512" y="-169" on="1"/>
        <pt x="550" y="-169" on="0"/>
        <pt x="603" y="-157" on="0"/>
        <pt x="631" y="-145" on="1"/>
        <pt x="647" y="-180" on="1"/>
        <pt x="616" y="-206" on="0"/>
        <pt x="532" y="-240" on="0"/>
      </contour>
    </TTGlyph>
    <TTGlyph name="R" xMin="7" yMin="-12" xMax="647" yMax="663">
      <contour>
        <pt x="384" y="612" on="1"/>
        <pt x="321" y="612" on="1"/>
        <pt x="273" y="357" on="1"/>
        <pt x="327" y="358" on="1"/>
        <pt x="388" y="359" on="0"/>
        <pt x="462" y="400" on="0"/>
        <pt x="496" y="469" on="0"/>
        <pt x="496" y="511" on="1"/>
        <pt x="496" y="560" on="0"/>
        <pt x="438" y="612" on="0"/>
      </contour>
      <contour>
        <pt x="115" y="616" on="1"/>
        <pt x="124" y="663" on="1"/>
        <pt x="413" y="663" on="1"/>
        <pt x="509" y="663" on="0"/>
        <pt x="615" y="581" on="0"/>
        <pt x="615" y="508" on="1"/>
        <pt x="615" y="444" on="0"/>
        <pt x="522" y="340" on="0"/>
        <pt x="417" y="322" on="1"/>
        <pt x="461" y="306" on="0"/>
        <pt x="499" y="239" on="0"/>
        <pt x="516" y="181" on="1"/>
        <pt x="554" y="59" on="1"/>
        <pt x="647" y="47" on="1"/>
        <pt x="638" y="0" on="1"/>
        <pt x="613" y="-6" on="0"/>
        <pt x="577" y="-12" on="0"/>
        <pt x="548" y="-12" on="1"/>
        <pt x="496" y="-12" on="0"/>
        <pt x="438" y="26" on="0"/>
        <pt x="427" y="75" on="1"/>
        <pt x="389" y="211" on="1"/>
        <pt x="374" y="267" on="0"/>
        <pt x="336" y="306" on="0"/>
        <pt x="293" y="306" on="1"/>
        <pt x="263" y="306" on="1"/>
        <pt x="251" y="244" on="0"/>
        <pt x="229" y="119" on="0"/>
        <pt x="219" y="57" on="1"/>
        <pt x="306" y="47" on="1"/>
        <pt x="296" y="0" on="1"/>
        <pt x="7" y="0" on="1"/>
        <pt x="16" y="47" on="1"/>
        <pt x="99" y="56" on="1"/>
        <pt x="155" y="353" on="1"/>
        <pt x="167" y="416" on="0"/>
        <pt x="189" y="543" on="0"/>
        <pt x="200" y="606" on="1"/>
      </contour>
    </TTGlyph>
    <TTGlyph name="S" xMin="28" yMin="-17" xMax="515" yMax="680">
      <contour>
        <pt x="28" y="31" on="1"/>
        <pt x="46" y="176" on="1"/>
        <pt x="117" y="176" on="1"/>
        <pt x="129" y="49" on="1"/>
        <pt x="170" y="38" on="0"/>
        <pt x="207" y="38" on="1"/>
        <pt x="272" y="38" on="0"/>
        <pt x="340" y="97" on="0"/>
        <pt x="340" y="146" on="1"/>
        <pt x="340" y="167" on="0"/>
        <pt x="326" y="207" on="0"/>
        <pt x="284" y="254" on="0"/>
        <pt x="242" y="285" on="1"/>
        <pt x="190" y="324" on="0"/>
        <pt x="132" y="392" on="0"/>
        <pt x="110" y="456" on="0"/>
        <pt x="110" y="489" on="1"/>
        <pt x="110" y="546" on="0"/>
        <pt x="169" y="632" on="0"/>
        <pt x="272" y="680" on="0"/>
        <pt x="339" y="680" on="1"/>
        <pt x="385" y="680" on="0"/>
        <pt x="477" y="657" on="0"/>
        <pt x="515" y="632" on="1"/>
        <pt x="494" y="492" on="1"/>
        <pt x="422" y="492" on="1"/>
        <pt x="414" y="615" on="1"/>
        <pt x="398" y="621" on="0"/>
        <pt x="369" y="625" on="0"/>
        <pt x="354" y="625" on="1"/>
        <pt x="291" y="625" on="0"/>
        <pt x="216" y="573" on="0"/>
        <pt x="216" y="523" on="1"/>
        <pt x="216" y="488" on="0"/>
        <pt x="259" y="427" on="0"/>
        <pt x="314" y="387" on="1"/>
        <pt x="369" y="347" on="0"/>
        <pt x="429" y="280" on="0"/>
        <pt x="453" y="217" on="0"/>
        <pt x="453" y="183" on="1"/>
        <pt x="453" y="122" on="0"/>
        <pt x="392" y="32" on="0"/>
        <pt x="284" y="-17" on="0"/>
        <pt x="213" y="-17" on="1"/>
        <pt x="164" y="-17" on="0"/>
        <pt x="63" y="9" on="0"/>
      </contour>
    </TTGlyph>
    <TTGlyph name="T" xMin="74" yMin="0" xMax="653" yMax="663">
      <contour>
        <pt x="74" y="481" on="1"/>
        <pt x="111" y="663" on="1"/>
        <pt x="653" y="663" on="1"/>
        <pt x="622" y="481" on="1"/>
        <pt x="558" y="481" on="1"/>
        <pt x="561" y="610" on="1"/>
        <pt x="434" y="610" on="1"/>
        <pt x="377" y="310" on="1"/>
        <pt x="366" y="247" on="0"/>
        <pt x="343" y="121" on="0"/>
        <pt x="332" y="57" on="1"/>
        <pt x="426" y="47" on="1"/>
        <pt x="417" y="0" on="1"/>
        <pt x="110" y="0" on="1"/>
        <pt x="120" y="47" on="1"/>
        <pt x="213" y="57" on="1"/>
        <pt x="268" y="353" on="1"/>
        <pt x="281" y="417" on="0"/>
        <pt x="304" y="546" on="0"/>
        <pt x="314" y="610" on="1"/>
        <pt x="184" y="610" on="1"/>
        <pt x="139" y="481" on="1"/>
      </contour>
    </TTGlyph>
    <TTGlyph name="U" xMin="96" yMin="-17" xMax="770" yMax="663">
      <contour>
        <pt x="524" y="616" on="1"/>
        <pt x="533" y="663" on="1"/>
        <pt x="770" y="663" on="1"/>
        <pt x="761" y="616" on="1"/>
        <pt x="678" y="606" on="1"/>
        <pt x="615" y="269" on="1"/>
        <pt x="586" y="115" on="0"/>
        <pt x="438" y="-17" on="0"/>
        <pt x="328" y="-17" on="1"/>
        <pt x="224" y="-17" on="0"/>
        <pt x="109" y="83" on="0"/>
        <pt x="109" y="180" on="1"/>
        <pt x="109" y="203" on="0"/>
        <pt x="116" y="253" on="0"/>
        <pt x="120" y="278" on="1"/>
        <pt x="135" y="359" on="1"/>
        <pt x="146" y="420" on="0"/>
        <pt x="168" y="545" on="0"/>
        <pt x="178" y="607" on="1"/>
        <pt x="96" y="616" on="1"/>
        <pt x="105" y="663" on="1"/>
        <pt x="393" y="663" on="1"/>
        <pt x="384" y="616" on="1"/>
        <pt x="303" y="607" on="1"/>
        <pt x="242" y="282" on="1"/>
        <pt x="238" y="260" on="0"/>
        <pt x="231" y="216" on="0"/>
        <pt x="231" y="186" on="1"/>
        <pt x="231" y="127" on="0"/>
        <pt x="301" y="61" on="0"/>
        <pt x="357" y="61" on="1"/>
        <pt x="414" y="61" on="0"/>
        <pt x="492" y="102" on="0"/>
        <pt x="543" y="199" on="0"/>
        <pt x="559" y="283" on="1"/>
        <pt x="620" y="606" on="1"/>
      </contour>
    </TTGlyph>
    <TTGlyph name="V" xMin="61" yMin="-6" xMax="711" yMax="663">
      <contour>
        <pt x="482" y="618" on="1"/>
        <pt x="491" y="663" on="1"/>
        <pt x="711" y="663" on="1"/>
        <pt x="701" y="616" on="1"/>
        <pt x="619" y="604" on="1"/>
        <pt x="297" y="-6" on="1"/>
        <pt x="231" y="-6" on="1"/>
        <pt x="130" y="608" on="1"/>
        <pt x="61" y="616" on="1"/>
        <pt x="71" y="663" on="1"/>
        <pt x="356" y="663" on="1"/>
        <pt x="347" y="618" on="1"/>
        <pt x="257" y="606" on="1"/>
        <pt x="322" y="146" on="1"/>
        <pt x="561" y="605" on="1"/>
      </contour>
    </TTGlyph>
    <TTGlyph name="W" xMin="61" yMin="-6" xMax="987" yMax="663">
      <contour>
        <pt x="759" y="616" on="1"/>
        <pt x="769" y="663" on="1"/>
        <pt x="987" y="663" on="1"/>
        <pt x="978" y="616" on="1"/>
        <pt x="899" y="604" on="1"/>
        <pt x="620" y="-6" on="1"/>
        <pt x="553" y="-6" on="1"/>
        <pt x="491" y="490" on="1"/>
        <pt x="254" y="-6" on="1"/>
        <pt x="187" y="-6" on="1"/>
        <pt x="129" y="608" on="1"/>
        <pt x="61" y="616" on="1"/>
        <pt x="71" y="663" on="1"/>
        <pt x="349" y="663" on="1"/>
        <pt x="339" y="616" on="1"/>
        <pt x="253" y="606" on="1"/>
        <pt x="281" y="157" on="1"/>
        <pt x="491" y="605" on="1"/>
        <pt x="404" y="616" on="1"/>
        <pt x="413" y="663" on="1"/>
        <pt x="689" y="663" on="1"/>
        <pt x="680" y="616" on="1"/>
        <pt x="590" y="605" on="1"/>
        <pt x="641" y="152" on="1"/>
        <pt x="842" y="603" on="1"/>
      </contour>
    </TTGlyph>
    <TTGlyph name="X" xMin="-7" yMin="0" xMax="715" yMax="663">
      <contour>
        <pt x="477" y="616" on="1"/>
        <pt x="486" y="663" on="1"/>
        <pt x="715" y="663" on="1"/>
        <pt x="706" y="616" on="1"/>
        <pt x="621" y="604" on="1"/>
        <pt x="413" y="358" on="1"/>
        <pt x="538" y="57" on="1"/>
        <pt x="624" y="47" on="1"/>
        <pt x="615" y="0" on="1"/>
        <pt x="325" y="0" on="1"/>
        <pt x="334" y="47" on="1"/>
        <pt x="411" y="55" on="1"/>
        <pt x="321" y="270" on="1"/>
        <pt x="152" y="59" on="1"/>
        <pt x="232" y="47" on="1"/>
        <pt x="223" y="0" on="1"/>
        <pt x="-7" y="0" on="1"/>
        <pt x="2" y="47" on="1"/>
        <pt x="86" y="58" on="1"/>
        <pt x="302" y="315" on="1"/>
        <pt x="180" y="607" on="1"/>
        <pt x="105" y="616" on="1"/>
        <pt x="115" y="663" on="1"/>
        <pt x="400" y="663" on="1"/>
        <pt x="391" y="616" on="1"/>
        <pt x="309" y="607" on="1"/>
        <pt x="394" y="402" on="1"/>
        <pt x="556" y="604" on="1"/>
      </contour>
    </TTGlyph>
    <TTGlyph name="Y" xMin="61" yMin="0" xMax="671" yMax="663">
      <contour>
        <pt x="448" y="616" on="1"/>
        <pt x="457" y="663" on="1"/>
        <pt x="671" y="663" on="1"/>
        <pt x="661" y="616" on="1"/>
        <pt x="581" y="603" on="1"/>
        <pt x="365" y="278" on="1"/>
        <pt x="355" y="223" on="0"/>
        <pt x="336" y="113" on="0"/>
        <pt x="327" y="57" on="1"/>
        <pt x="421" y="47" on="1"/>
        <pt x="411" y="0" on="1"/>
        <pt x="105" y="0" on="1"/>
        <pt x="114" y="47" on="1"/>
        <pt x="207" y="57" on="1"/>
        <pt x="248" y="272" on="1"/>
        <pt x="133" y="608" on="1"/>
        <pt x="61" y="616" on="1"/>
        <pt x="71" y="663" on="1"/>
        <pt x="357" y="663" on="1"/>
        <pt x="348" y="616" on="1"/>
        <pt x="266" y="606" on="1"/>
        <pt x="348" y="332" on="1"/>
        <pt x="524" y="604" on="1"/>
      </contour>
    </TTGlyph>
    <TTGlyph name="Z" xMin="-3" yMin="0" xMax="594" yMax="663">
      <contour>
        <pt x="80" y="481" on="1"/>
        <pt x="117" y="663" on="1"/>
        <pt x="594" y="663" on="1"/>
        <pt x="586" y="623" on="1"/>
        <pt x="148" y="54" on="1"/>
        <pt x="411" y="54" on="1"/>
        <pt x="457" y="182" on="1"/>
        <pt x="527" y="182" on="1"/>
        <pt x="488" y="0" on="1"/>
        <pt x="-3" y="0" on="1"/>
        <pt x="5" y="41" on="1"/>
        <pt x="444" y="610" on="1"/>
        <pt x="195" y="610" on="1"/>
        <pt x="148" y="481" on="1"/>
      </contour>
    </TTGlyph>
    <TTGlyph name="a" xMin="46" yMin="-14" xMax="559" yMax="499">
      <contour>
        <pt x="157" y="161" on="1"/>
        <pt x="157" y="115" on="0"/>
        <pt x="188" y="72" on="0"/>
        <pt x="214" y="72" on="1"/>
        <pt x="237" y="72" on="0"/>
        <pt x="293" y="107" on="0"/>
        <pt x="330" y="146" on="1"/>
        <pt x="386" y="407" on="1"/>
        <pt x="373" y="414" on="0"/>
        <pt x="344" y="423" on="0"/>
        <pt x="329" y="423" on="1"/>
        <pt x="287" y="423" on="0"/>
        <pt x="239" y="377" on="1"/>
        <pt x="216" y="354" on="0"/>
        <pt x="178" y="283" on="0"/>
        <pt x="157" y="201" on="0"/>
      </contour>
      <contour>
        <pt x="386" y="-14" on="1"/>
        <pt x="357" y="-14" on="0"/>
        <pt x="319" y="23" on="0"/>
        <pt x="319" y="60" on="1"/>
        <pt x="319" y="69" on="0"/>
        <pt x="320" y="86" on="0"/>
        <pt x="321" y="94" on="1"/>
        <pt x="279" y="46" on="0"/>
        <pt x="187" y="-14" on="0"/>
        <pt x="146" y="-14" on="1"/>
        <pt x="108" y="-14" on="0"/>
        <pt x="46" y="45" on="0"/>
        <pt x="46" y="114" on="1"/>
        <pt x="46" y="167" on="0"/>
        <pt x="86" y="275" on="0"/>
        <pt x="154" y="372" on="0"/>
        <pt x="238" y="449" on="0"/>
        <pt x="328" y="493" on="0"/>
        <pt x="369" y="493" on="1"/>
        <pt x="389" y="493" on="0"/>
        <pt x="421" y="478" on="0"/>
        <pt x="436" y="464" on="1"/>
        <pt x="497" y="499" on="1"/>
        <pt x="514" y="488" on="1"/>
        <pt x="434" y="137" on="1"/>
        <pt x="426" y="103" on="0"/>
        <pt x="426" y="87" on="1"/>
        <pt x="426" y="66" on="0"/>
        <pt x="447" y="66" on="1"/>
        <pt x="464" y="66" on="0"/>
        <pt x="507" y="103" on="0"/>
        <pt x="532" y="134" on="1"/>
        <pt x="559" y="114" on="1"/>
        <pt x="540" y="84" on="0"/>
        <pt x="486" y="25" on="0"/>
        <pt x="422" y="-14" on="0"/>
      </contour>
    </TTGlyph>
    <TTGlyph name="ampersand" xMin="63" yMin="-14" xMax="753" yMax="680">
      <contour>
        <pt x="328" y="-14" on="1"/>
        <pt x="203" y="-14" on="0"/>
        <pt x="63" y="102" on="0"/>
        <pt x="63" y="200" on="1"/>
        <pt x="63" y="247" on="0"/>
        <pt x="102" y="334" on="0"/>
        <pt x="174" y="403" on="0"/>
        <pt x="225" y="421" on="1"/>
        <pt x="206" y="456" on="0"/>
        <pt x="206" y="497" on="1"/>
        <pt x="206" y="546" on="0"/>
        <pt x="257" y="629" on="0"/>
        <pt x="352" y="680" on="0"/>
        <pt x="417" y="680" on="1"/>
        <pt x="479" y="680" on="0"/>
        <pt x="556" y="633" on="0"/>
        <pt x="566" y="589" on="1"/>
        <pt x="564" y="572" on="0"/>
        <pt x="542" y="549" on="0"/>
        <pt x="520" y="549" on="1"/>
        <pt x="501" y="549" on="0"/>
        <pt x="469" y="573" on="0"/>
        <pt x="457" y="601" on="1"/>
        <pt x="441" y="640" on="1"/>
        <pt x="438" y="640" on="0"/>
        <pt x="433" y="640" on="0"/>
        <pt x="431" y="640" on="1"/>
        <pt x="365" y="640" on="0"/>
        <pt x="290" y="569" on="0"/>
        <pt x="290" y="506" on="1"/>
        <pt x="290" y="470" on="0"/>
        <pt x="306" y="436" on="1"/>
        <pt x="310" y="436" on="0"/>
        <pt x="316" y="436" on="0"/>
        <pt x="320" y="436" on="1"/>
        <pt x="367" y="436" on="0"/>
        <pt x="419" y="410" on="0"/>
        <pt x="419" y="384" on="1"/>
        <pt x="419" y="364" on="0"/>
        <pt x="393" y="340" on="0"/>
        <pt x="367" y="340" on="1"/>
        <pt x="333" y="340" on="0"/>
        <pt x="276" y="363" on="0"/>
        <pt x="255" y="382" on="1"/>
        <pt x="212" y="357" on="0"/>
        <pt x="173" y="278" on="0"/>
        <pt x="173" y="234" on="1"/>
        <pt x="173" y="183" on="0"/>
        <pt x="222" y="113" on="0"/>
        <pt x="304" y="77" on="0"/>
        <pt x="354" y="77" on="1"/>
        <pt x="435" y="77" on="0"/>
        <pt x="522" y="136" on="0"/>
        <pt x="522" y="181" on="1"/>
        <pt x="522" y="216" on="0"/>
        <pt x="478" y="257" on="0"/>
        <pt x="423" y="261" on="1"/>
        <pt x="431" y="314" on="1"/>
        <pt x="527" y="321" on="0"/>
        <pt x="636" y="415" on="0"/>
        <pt x="669" y="504" on="1"/>
        <pt x="753" y="467" on="1"/>
        <pt x="718" y="387" on="0"/>
        <pt x="608" y="300" on="0"/>
        <pt x="528" y="284" on="1"/>
        <pt x="557" y="267" on="0"/>
        <pt x="581" y="210" on="0"/>
        <pt x="581" y="179" on="1"/>
        <pt x="581" y="124" on="0"/>
        <pt x="520" y="36" on="0"/>
        <pt x="407" y="-14" on="0"/>
      </contour>
    </TTGlyph>
    <TTGlyph name="asciicircum" xMin="89" yMin="196" xMax="486" yMax="492">
      <contour>
        <pt x="89" y="237" on="1"/>
        <pt x="251" y="492" on="1"/>
        <pt x="324" y="492" on="1"/>
        <pt x="486" y="237" on="1"/>
        <pt x="427" y="196" on="1"/>
        <pt x="287" y="414" on="1"/>
        <pt x="147" y="196" on="1"/>
      </contour>
    </TTGlyph>
    <TTGlyph name="asciitilde" xMin="78" yMin="264" xMax="499" yMax="426">
      <contour>
        <pt x="309" y="374" on="1"/>
        <pt x="336" y="351" on="0"/>
        <pt x="369" y="333" on="0"/>
        <pt x="386" y="333" on="1"/>
        <pt x="405" y="333" on="0"/>
        <pt x="436" y="370" on="0"/>
        <pt x="440" y="420" on="1"/>
        <pt x="499" y="413" on="1"/>
        <pt x="497" y="335" on="0"/>
        <pt x="433" y="264" on="0"/>
        <pt x="380" y="264" on="1"/>
        <pt x="352" y="264" on="0"/>
        <pt x="299" y="291" on="0"/>
        <pt x="269" y="316" on="1"/>
        <pt x="241" y="339" on="0"/>
        <pt x="209" y="357" on="0"/>
        <pt x="192" y="357" on="1"/>
        <pt x="173" y="357" on="0"/>
        <pt x="142" y="320" on="0"/>
        <pt x="137" y="270" on="1"/>
        <pt x="78" y="277" on="1"/>
        <pt x="81" y="355" on="0"/>
        <pt x="145" y="426" on="0"/>
        <pt x="197" y="426" on="1"/>
        <pt x="226" y="426" on="0"/>
        <pt x="278" y="400" on="0"/>
      </contour>
    </TTGlyph>
    <TTGlyph name="asterisk" xMin="106" yMin="342" xMax="503" yMax="743">
      <contour>
        <pt x="283" y="743" on="1"/>
        <pt x="320" y="743" on="0"/>
        <pt x="327" y="703" on="1"/>
        <pt x="329" y="689" on="0"/>
        <pt x="328" y="622" on="0"/>
        <pt x="326" y="560" on="1"/>
        <pt x="383" y="609" on="0"/>
        <pt x="445" y="655" on="0"/>
        <pt x="464" y="655" on="1"/>
        <pt x="480" y="655" on="0"/>
        <pt x="503" y="634" on="0"/>
        <pt x="503" y="613" on="1"/>
        <pt x="503" y="586" on="0"/>
        <pt x="428" y="555" on="0"/>
        <pt x="342" y="530" on="1"/>
        <pt x="412" y="487" on="0"/>
        <pt x="474" y="442" on="0"/>
        <pt x="476" y="419" on="1"/>
        <pt x="478" y="404" on="0"/>
        <pt x="458" y="378" on="0"/>
        <pt x="441" y="376" on="1"/>
        <pt x="415" y="374" on="0"/>
        <pt x="365" y="437" on="0"/>
        <pt x="318" y="507" on="1"/>
        <pt x="298" y="422" on="0"/>
        <pt x="263" y="342" on="0"/>
        <pt x="236" y="342" on="1"/>
        <pt x="221" y="342" on="0"/>
        <pt x="197" y="362" on="0"/>
        <pt x="197" y="381" on="1"/>
        <pt x="197" y="403" on="0"/>
        <pt x="241" y="461" on="0"/>
        <pt x="287" y="521" on="1"/>
        <pt x="194" y="512" on="0"/>
        <pt x="106" y="522" on="0"/>
        <pt x="106" y="558" on="1"/>
        <pt x="106" y="575" on="0"/>
        <pt x="127" y="599" on="0"/>
        <pt x="146" y="599" on="1"/>
        <pt x="165" y="599" on="0"/>
        <pt x="229" y="578" on="0"/>
        <pt x="293" y="555" on="1"/>
        <pt x="268" y="615" on="0"/>
        <pt x="242" y="685" on="0"/>
        <pt x="242" y="701" on="1"/>
        <pt x="242" y="716" on="0"/>
        <pt x="260" y="743" on="0"/>
      </contour>
    </TTGlyph>
    <TTGlyph name="at" xMin="60" yMin="-154" xMax="847" yMax="657">
      <contour>
        <pt x="347" y="197" on="1"/>
        <pt x="347" y="155" on="0"/>
        <pt x="375" y="117" on="0"/>
        <pt x="398" y="117" on="1"/>
        <pt x="419" y="117" on="0"/>
        <pt x="468" y="146" on="0"/>
        <pt x="500" y="180" on="1"/>
        <pt x="552" y="417" on="1"/>
        <pt x="540" y="423" on="0"/>
        <pt x="514" y="431" on="0"/>
        <pt x="501" y="431" on="1"/>
        <pt x="476" y="431" on="0"/>
        <pt x="423" y="395" on="0"/>
        <pt x="376" y="331" on="0"/>
        <pt x="347" y="246" on="0"/>
      </contour>
      <contour>
        <pt x="581" y="41" on="1"/>
        <pt x="532" y="41" on="0"/>
        <pt x="490" y="92" on="0"/>
        <pt x="492" y="132" on="1"/>
        <pt x="455" y="92" on="0"/>
        <pt x="374" y="41" on="0"/>
        <pt x="337" y="41" on="1"/>
        <pt x="303" y="41" on="0"/>
        <pt x="248" y="93" on="0"/>
        <pt x="248" y="152" on="1"/>
        <pt x="248" y="200" on="0"/>
        <pt x="284" y="298" on="0"/>
        <pt x="344" y="386" on="0"/>
        <pt x="420" y="454" on="0"/>
        <pt x="499" y="494" on="0"/>
        <pt x="536" y="494" on="1"/>
        <pt x="569" y="494" on="0"/>
        <pt x="596" y="467" on="1"/>
        <pt x="650" y="499" on="1"/>
        <pt x="665" y="489" on="1"/>
        <pt x="593" y="168" on="1"/>
        <pt x="585" y="134" on="0"/>
        <pt x="598" y="106" on="0"/>
        <pt x="622" y="106" on="1"/>
        <pt x="642" y="106" on="0"/>
        <pt x="697" y="137" on="0"/>
        <pt x="750" y="199" on="0"/>
        <pt x="785" y="295" on="0"/>
        <pt x="785" y="359" on="1"/>
        <pt x="785" y="475" on="0"/>
        <pt x="654" y="612" on="0"/>
        <pt x="536" y="612" on="1"/>
        <pt x="449" y="612" on="0"/>
        <pt x="301" y="543" on="0"/>
        <pt x="191" y="423" on="0"/>
        <pt x="130" y="264" on="0"/>
        <pt x="130" y="174" on="1"/>
        <pt x="130" y="44" on="0"/>
        <pt x="279" y="-99" on="0"/>
        <pt x="412" y="-99" on="1"/>
        <pt x="456" y="-99" on="0"/>
        <pt x="533" y="-85" on="0"/>
        <pt x="570" y="-72" on="1"/>
        <pt x="581" y="-111" on="1"/>
        <pt x="536" y="-132" on="0"/>
        <pt x="435" y="-154" on="0"/>
        <pt x="385" y="-154" on="1"/>
        <pt x="285" y="-154" on="0"/>
        <pt x="139" y="-75" on="0"/>
        <pt x="60" y="67" on="0"/>
        <pt x="60" y="159" on="1"/>
        <pt x="60" y="262" on="0"/>
        <pt x="132" y="443" on="0"/>
        <pt x="262" y="580" on="0"/>
        <pt x="438" y="657" on="0"/>
        <pt x="543" y="657" on="1"/>
        <pt x="648" y="657" on="0"/>
        <pt x="782" y="575" on="0"/>
        <pt x="847" y="440" on="0"/>
        <pt x="847" y="358" on="1"/>
        <pt x="847" y="281" on="0"/>
        <pt x="794" y="163" on="0"/>
        <pt x="711" y="82" on="0"/>
        <pt x="620" y="41" on="0"/>
      </contour>
    </TTGlyph>
    <TTGlyph name="b" xMin="78" yMin="-14" xMax="521" yMax="730">
      <contour>
        <pt x="185" y="106" on="1"/>
        <pt x="185" y="82" on="0"/>
        <pt x="210" y="54" on="0"/>
        <pt x="234" y="54" on="1"/>
        <pt x="288" y="54" on="0"/>
        <pt x="338" y="111" on="1"/>
        <pt x="370" y="147" on="0"/>
        <pt x="412" y="264" on="0"/>
        <pt x="412" y="320" on="1"/>
        <pt x="412" y="364" on="0"/>
        <pt x="381" y="409" on="0"/>
        <pt x="355" y="409" on="1"/>
        <pt x="327" y="409" on="0"/>
        <pt x="263" y="366" on="0"/>
        <pt x="226" y="328" on="1"/>
        <pt x="205" y="235" on="1"/>
        <pt x="195" y="185" on="0"/>
        <pt x="185" y="130" on="0"/>
      </contour>
      <contour>
        <pt x="178" y="-14" on="1"/>
        <pt x="135" y="-14" on="0"/>
        <pt x="78" y="35" on="0"/>
        <pt x="78" y="84" on="1"/>
        <pt x="78" y="119" on="0"/>
        <pt x="93" y="202" on="0"/>
        <pt x="103" y="248" on="1"/>
        <pt x="180" y="632" on="1"/>
        <pt x="95" y="640" on="1"/>
        <pt x="101" y="673" on="1"/>
        <pt x="293" y="730" on="1"/>
        <pt x="306" y="720" on="1"/>
        <pt x="234" y="375" on="1"/>
        <pt x="278" y="430" on="0"/>
        <pt x="380" y="493" on="0"/>
        <pt x="423" y="493" on="1"/>
        <pt x="465" y="493" on="0"/>
        <pt x="521" y="433" on="0"/>
        <pt x="521" y="362" on="1"/>
        <pt x="521" y="308" on="0"/>
        <pt x="482" y="200" on="0"/>
        <pt x="415" y="103" on="0"/>
        <pt x="327" y="29" on="0"/>
        <pt x="228" y="-14" on="0"/>
      </contour>
    </TTGlyph>
    <TTGlyph name="backslash" xMin="116" yMin="-160" xMax="284" yMax="710">
      <contour>
        <pt x="284" y="-160" on="1"/>
        <pt x="205" y="-160" on="1"/>
        <pt x="116" y="710" on="1"/>
        <pt x="195" y="710" on="1"/>
      </contour>
    </TTGlyph>
    <TTGlyph name="bar" xMin="108" yMin="-250" xMax="185" yMax="750">
      <contour>
        <pt x="108" y="-250" on="1"/>
        <pt x="108" y="750" on="1"/>
        <pt x="185" y="750" on="1"/>
        <pt x="185" y="-250" on="1"/>
      </contour>
    </TTGlyph>
    <TTGlyph name="braceleft" xMin="58" yMin="-159" xMax="417" yMax="715">
      <contour>
        <pt x="58" y="254" on="1"/>
        <pt x="68" y="302" on="1"/>
        <pt x="141" y="312" on="0"/>
        <pt x="193" y="372" on="0"/>
        <pt x="193" y="418" on="1"/>
        <pt x="193" y="447" on="0"/>
        <pt x="175" y="515" on="0"/>
        <pt x="175" y="552" on="1"/>
        <pt x="175" y="635" on="0"/>
        <pt x="283" y="715" on="0"/>
        <pt x="383" y="715" on="1"/>
        <pt x="417" y="715" on="1"/>
        <pt x="409" y="669" on="1"/>
        <pt x="384" y="667" on="1"/>
        <pt x="320" y="663" on="0"/>
        <pt x="273" y="605" on="0"/>
        <pt x="273" y="546" on="1"/>
        <pt x="273" y="520" on="0"/>
        <pt x="276" y="453" on="0"/>
        <pt x="276" y="430" on="1"/>
        <pt x="276" y="374" on="0"/>
        <pt x="210" y="293" on="0"/>
        <pt x="151" y="278" on="1"/>
        <pt x="189" y="268" on="0"/>
        <pt x="226" y="220" on="0"/>
        <pt x="226" y="186" on="1"/>
        <pt x="226" y="162" on="0"/>
        <pt x="211" y="98" on="0"/>
        <pt x="190" y="31" on="0"/>
        <pt x="175" y="-31" on="0"/>
        <pt x="175" y="-54" on="1"/>
        <pt x="175" y="-104" on="0"/>
        <pt x="244" y="-110" on="1"/>
        <pt x="277" y="-113" on="1"/>
        <pt x="268" y="-159" on="1"/>
        <pt x="221" y="-159" on="1"/>
        <pt x="154" y="-159" on="0"/>
        <pt x="75" y="-112" on="0"/>
        <pt x="75" y="-63" on="1"/>
        <pt x="75" y="-29" on="0"/>
        <pt x="98" y="36" on="0"/>
        <pt x="128" y="99" on="0"/>
        <pt x="151" y="158" on="0"/>
        <pt x="151" y="185" on="1"/>
        <pt x="151" y="211" on="0"/>
        <pt x="111" y="247" on="0"/>
      </contour>
    </TTGlyph>
    <TTGlyph name="braceright" xMin="-10" yMin="-159" xMax="349" yMax="715">
      <contour>
        <pt x="349" y="302" on="1"/>
        <pt x="339" y="254" on="1"/>
        <pt x="266" y="244" on="0"/>
        <pt x="214" y="184" on="0"/>
        <pt x="214" y="138" on="1"/>
        <pt x="214" y="109" on="0"/>
        <pt x="232" y="41" on="0"/>
        <pt x="232" y="4" on="1"/>
        <pt x="232" y="-78" on="0"/>
        <pt x="124" y="-159" on="0"/>
        <pt x="24" y="-159" on="1"/>
        <pt x="-10" y="-159" on="1"/>
        <pt x="-2" y="-113" on="1"/>
        <pt x="23" y="-111" on="1"/>
        <pt x="87" y="-107" on="0"/>
        <pt x="134" y="-49" on="0"/>
        <pt x="134" y="10" on="1"/>
        <pt x="134" y="36" on="0"/>
        <pt x="131" y="104" on="0"/>
        <pt x="131" y="126" on="1"/>
        <pt x="131" y="182" on="0"/>
        <pt x="198" y="263" on="0"/>
        <pt x="256" y="278" on="1"/>
        <pt x="218" y="289" on="0"/>
        <pt x="181" y="336" on="0"/>
        <pt x="181" y="370" on="1"/>
        <pt x="181" y="394" on="0"/>
        <pt x="196" y="458" on="0"/>
        <pt x="217" y="525" on="0"/>
        <pt x="232" y="588" on="0"/>
        <pt x="232" y="610" on="1"/>
        <pt x="232" y="660" on="0"/>
        <pt x="163" y="666" on="1"/>
        <pt x="130" y="669" on="1"/>
        <pt x="139" y="715" on="1"/>
        <pt x="186" y="715" on="1"/>
        <pt x="254" y="715" on="0"/>
        <pt x="332" y="668" on="0"/>
        <pt x="332" y="619" on="1"/>
        <pt x="332" y="585" on="0"/>
        <pt x="309" y="520" on="0"/>
        <pt x="279" y="457" on="0"/>
        <pt x="256" y="398" on="0"/>
        <pt x="256" y="371" on="1"/>
        <pt x="256" y="345" on="0"/>
        <pt x="297" y="309" on="0"/>
      </contour>
    </TTGlyph>
    <TTGlyph name="bracketleft" xMin="28" yMin="-159" xMax="408" yMax="715">
      <contour>
        <pt x="28" y="-159" on="1"/>
        <pt x="46" y="-82" on="0"/>
        <pt x="78" y="78" on="0"/>
        <pt x="94" y="158" on="1"/>
        <pt x="141" y="398" on="1"/>
        <pt x="158" y="477" on="0"/>
        <pt x="188" y="636" on="0"/>
        <pt x="201" y="715" on="1"/>
        <pt x="408" y="715" on="1"/>
        <pt x="398" y="668" on="1"/>
        <pt x="287" y="656" on="1"/>
        <pt x="274" y="592" on="0"/>
        <pt x="248" y="463" on="0"/>
        <pt x="234" y="398" on="1"/>
        <pt x="188" y="158" on="1"/>
        <pt x="175" y="94" on="0"/>
        <pt x="149" y="-35" on="0"/>
        <pt x="138" y="-100" on="1"/>
        <pt x="244" y="-112" on="1"/>
        <pt x="235" y="-159" on="1"/>
      </contour>
    </TTGlyph>
    <TTGlyph name="bracketright" xMin="-26" yMin="-159" xMax="354" yMax="715">
      <contour>
        <pt x="354" y="715" on="1"/>
        <pt x="336" y="638" on="0"/>
        <pt x="304" y="478" on="0"/>
        <pt x="288" y="398" on="1"/>
        <pt x="241" y="158" on="1"/>
        <pt x="225" y="79" on="0"/>
        <pt x="195" y="-80" on="0"/>
        <pt x="181" y="-159" on="1"/>
        <pt x="-26" y="-159" on="1"/>
        <pt x="-16" y="-112" on="1"/>
        <pt x="95" y="-100" on="1"/>
        <pt x="109" y="-36" on="0"/>
        <pt x="135" y="93" on="0"/>
        <pt x="148" y="158" on="1"/>
        <pt x="194" y="398" on="1"/>
        <pt x="208" y="462" on="0"/>
        <pt x="233" y="592" on="0"/>
        <pt x="244" y="656" on="1"/>
        <pt x="138" y="668" on="1"/>
        <pt x="147" y="715" on="1"/>
      </contour>
    </TTGlyph>
    <TTGlyph name="c" xMin="52" yMin="-14" xMax="451" yMax="493">
      <contour>
        <pt x="213" y="-14" on="1"/>
        <pt x="143" y="-14" on="0"/>
        <pt x="52" y="83" on="0"/>
        <pt x="52" y="174" on="1"/>
        <pt x="52" y="238" on="0"/>
        <pt x="96" y="353" on="0"/>
        <pt x="173" y="442" on="0"/>
        <pt x="272" y="493" on="0"/>
        <pt x="327" y="493" on="1"/>
        <pt x="377" y="493" on="0"/>
        <pt x="441" y="448" on="0"/>
        <pt x="451" y="410" on="1"/>
        <pt x="449" y="387" on="0"/>
        <pt x="416" y="360" on="0"/>
        <pt x="395" y="360" on="1"/>
        <pt x="374" y="360" on="0"/>
        <pt x="344" y="387" on="0"/>
        <pt x="331" y="405" on="1"/>
        <pt x="300" y="448" on="1"/>
        <pt x="259" y="427" on="0"/>
        <pt x="196" y="348" on="0"/>
        <pt x="161" y="248" on="0"/>
        <pt x="161" y="194" on="1"/>
        <pt x="161" y="132" on="0"/>
        <pt x="220" y="72" on="0"/>
        <pt x="269" y="72" on="1"/>
        <pt x="305" y="72" on="0"/>
        <pt x="369" y="115" on="0"/>
        <pt x="394" y="145" on="1"/>
        <pt x="419" y="126" on="1"/>
        <pt x="399" y="89" on="0"/>
        <pt x="335" y="25" on="0"/>
        <pt x="257" y="-14" on="0"/>
      </contour>
    </TTGlyph>
    <TTGlyph name="colon" xMin="54" yMin="-12" xMax="283" yMax="487">
      <component glyphName="period" x="-1" y="0" flags="0x4"/>
      <component glyphName="period" x="74" y="349" flags="0x4"/>
    </TTGlyph>
    <TTGlyph name="comma" xMin="-4" yMin="-161" xMax="203" yMax="138">
      <contour>
        <pt x="9" y="-161" on="1"/>
        <pt x="-4" y="-126" on="1"/>
        <pt x="74" y="-95" on="0"/>
        <pt x="119" y="-24" on="1"/>
        <pt x="90" y="2" on="1"/>
        <pt x="74" y="13" on="0"/>
        <pt x="59" y="49" on="0"/>
        <pt x="59" y="66" on="1"/>
        <pt x="59" y="93" on="0"/>
        <pt x="97" y="138" on="0"/>
        <pt x="134" y="138" on="1"/>
        <pt x="167" y="138" on="0"/>
        <pt x="193" y="118" on="1"/>
        <pt x="198" y="108" on="0"/>
        <pt x="203" y="89" on="0"/>
        <pt x="203" y="76" on="1"/>
        <pt x="203" y="23" on="0"/>
        <pt x="154" y="-72" on="0"/>
        <pt x="67" y="-143" on="0"/>
      </contour>
    </TTGlyph>
    <TTGlyph name="d" xMin="47" yMin="-14" xMax="564" yMax="730">
      <contour>
        <pt x="157" y="164" on="1"/>
        <pt x="157" y="115" on="0"/>
        <pt x="191" y="72" on="0"/>
        <pt x="217" y="72" on="1"/>
        <pt x="241" y="72" on="0"/>
        <pt x="298" y="109" on="0"/>
        <pt x="335" y="149" on="1"/>
        <pt x="387" y="404" on="1"/>
        <pt x="361" y="423" on="0"/>
        <pt x="329" y="423" on="1"/>
        <pt x="304" y="423" on="0"/>
        <pt x="253" y="397" on="0"/>
        <pt x="234" y="376" on="1"/>
        <pt x="211" y="353" on="0"/>
        <pt x="176" y="281" on="0"/>
        <pt x="157" y="201" on="0"/>
      </contour>
      <contour>
        <pt x="439" y="138" on="1"/>
        <pt x="435" y="120" on="0"/>
        <pt x="431" y="95" on="0"/>
        <pt x="431" y="87" on="1"/>
        <pt x="431" y="77" on="0"/>
        <pt x="443" y="66" on="0"/>
        <pt x="451" y="66" on="1"/>
        <pt x="467" y="66" on="0"/>
        <pt x="513" y="102" on="0"/>
        <pt x="537" y="133" on="1"/>
        <pt x="564" y="113" on="1"/>
        <pt x="545" y="81" on="0"/>
        <pt x="489" y="23" on="0"/>
        <pt x="424" y="-14" on="0"/>
        <pt x="388" y="-14" on="1"/>
        <pt x="358" y="-14" on="0"/>
        <pt x="322" y="22" on="0"/>
        <pt x="322" y="53" on="1"/>
        <pt x="322" y="70" on="0"/>
        <pt x="325" y="97" on="1"/>
        <pt x="283" y="48" on="0"/>
        <pt x="186" y="-14" on="0"/>
        <pt x="144" y="-14" on="1"/>
        <pt x="106" y="-14" on="0"/>
        <pt x="47" y="47" on="0"/>
        <pt x="47" y="120" on="1"/>
        <pt x="47" y="171" on="0"/>
        <pt x="85" y="276" on="0"/>
        <pt x="151" y="373" on="0"/>
        <pt x="234" y="449" on="0"/>
        <pt x="323" y="493" on="0"/>
        <pt x="366" y="493" on="1"/>
        <pt x="388" y="493" on="0"/>
        <pt x="409" y="484" on="1"/>
        <pt x="438" y="632" on="1"/>
        <pt x="349" y="640" on="1"/>
        <pt x="354" y="673" on="1"/>
        <pt x="546" y="730" on="1"/>
        <pt x="560" y="720" on="1"/>
      </contour>
    </TTGlyph>
    <TTGlyph name="dollar" xMin="52" yMin="-115" xMax="530" yMax="743">
      <contour>
        <pt x="183" y="-115" on="1"/>
        <pt x="204" y="-12" on="1"/>
        <pt x="133" y="-7" on="0"/>
        <pt x="56" y="62" on="0"/>
        <pt x="52" y="132" on="1"/>
        <pt x="66" y="173" on="0"/>
        <pt x="102" y="173" on="1"/>
        <pt x="124" y="173" on="0"/>
        <pt x="152" y="144" on="0"/>
        <pt x="155" y="102" on="1"/>
        <pt x="159" y="42" on="1"/>
        <pt x="185" y="34" on="0"/>
        <pt x="213" y="32" on="1"/>
        <pt x="261" y="272" on="1"/>
        <pt x="239" y="286" on="1"/>
        <pt x="182" y="321" on="0"/>
        <pt x="123" y="401" on="0"/>
        <pt x="123" y="461" on="1"/>
        <pt x="123" y="511" on="0"/>
        <pt x="172" y="596" on="0"/>
        <pt x="268" y="650" on="0"/>
        <pt x="339" y="653" on="1"/>
        <pt x="358" y="743" on="1"/>
        <pt x="407" y="743" on="1"/>
        <pt x="388" y="652" on="1"/>
        <pt x="451" y="646" on="0"/>
        <pt x="525" y="581" on="0"/>
        <pt x="530" y="525" on="1"/>
        <pt x="521" y="475" on="0"/>
        <pt x="480" y="475" on="1"/>
        <pt x="461" y="475" on="0"/>
        <pt x="429" y="502" on="0"/>
        <pt x="427" y="542" on="1"/>
        <pt x="425" y="598" on="1"/>
        <pt x="399" y="605" on="0"/>
        <pt x="379" y="606" on="1"/>
        <pt x="331" y="371" on="1"/>
        <pt x="342" y="364" on="1"/>
        <pt x="388" y="336" on="0"/>
        <pt x="446" y="285" on="0"/>
        <pt x="474" y="225" on="0"/>
        <pt x="474" y="183" on="1"/>
        <pt x="474" y="101" on="0"/>
        <pt x="357" y="-7" on="0"/>
        <pt x="252" y="-12" on="1"/>
        <pt x="231" y="-115" on="1"/>
      </contour>
      <contour>
        <pt x="371" y="145" on="1"/>
        <pt x="371" y="183" on="0"/>
        <pt x="335" y="225" on="0"/>
        <pt x="304" y="245" on="1"/>
        <pt x="261" y="32" on="1"/>
        <pt x="314" y="38" on="0"/>
        <pt x="371" y="99" on="0"/>
      </contour>
      <contour>
        <pt x="223" y="498" on="1"/>
        <pt x="223" y="458" on="0"/>
        <pt x="258" y="416" on="0"/>
        <pt x="287" y="397" on="1"/>
        <pt x="330" y="606" on="1"/>
        <pt x="281" y="600" on="0"/>
        <pt x="223" y="546" on="0"/>
      </contour>
    </TTGlyph>
    <TTGlyph name="e" xMin="52" yMin="-14" xMax="450" yMax="493">
      <contour>
        <pt x="312" y="444" on="1"/>
        <pt x="290" y="444" on="0"/>
        <pt x="239" y="408" on="0"/>
        <pt x="193" y="346" on="0"/>
        <pt x="161" y="264" on="0"/>
        <pt x="158" y="219" on="1"/>
        <pt x="234" y="243" on="0"/>
        <pt x="321" y="301" on="0"/>
        <pt x="359" y="363" on="0"/>
        <pt x="359" y="390" on="1"/>
        <pt x="359" y="416" on="0"/>
        <pt x="332" y="444" on="0"/>
      </contour>
      <contour>
        <pt x="215" y="-14" on="1"/>
        <pt x="143" y="-14" on="0"/>
        <pt x="52" y="82" on="0"/>
        <pt x="52" y="173" on="1"/>
        <pt x="52" y="236" on="0"/>
        <pt x="95" y="351" on="0"/>
        <pt x="172" y="441" on="0"/>
        <pt x="273" y="493" on="0"/>
        <pt x="331" y="493" on="1"/>
        <pt x="388" y="493" on="0"/>
        <pt x="450" y="440" on="0"/>
        <pt x="450" y="393" on="1"/>
        <pt x="450" y="356" on="0"/>
        <pt x="392" y="278" on="0"/>
        <pt x="264" y="207" on="0"/>
        <pt x="158" y="178" on="1"/>
        <pt x="163" y="123" on="0"/>
        <pt x="215" y="72" on="0"/>
        <pt x="258" y="72" on="1"/>
        <pt x="304" y="72" on="0"/>
        <pt x="372" y="117" on="0"/>
        <pt x="394" y="145" on="1"/>
        <pt x="419" y="126" on="1"/>
        <pt x="399" y="90" on="0"/>
        <pt x="338" y="26" on="0"/>
        <pt x="261" y="-14" on="0"/>
      </contour>
    </TTGlyph>
    <TTGlyph name="eight" xMin="63" yMin="-14" xMax="507" yMax="653">
      <component glyphName="glyph00089" x="0" y="0" flags="0x4"/>
    </TTGlyph>
    <TTGlyph name="equal" xMin="60" yMin="190" xMax="510" yMax="463">
      <component glyphName="glyph00168" x="0" y="-103" flags="0x204"/>
      <component glyphName="glyph00168" x="0" y="103" flags="0x4"/>
    </TTGlyph>
    <TTGlyph name="exclam" xMin="53" yMin="-13" xMax="311" yMax="680">
      <contour>
        <pt x="134" y="208" on="1"/>
        <pt x="144" y="353" on="1"/>
        <pt x="149" y="453" on="0"/>
        <pt x="160" y="573" on="0"/>
        <pt x="165" y="597" on="1"/>
        <pt x="176" y="644" on="0"/>
        <pt x="221" y="680" on="0"/>
        <pt x="252" y="680" on="1"/>
        <pt x="282" y="680" on="0"/>
        <pt x="311" y="648" on="0"/>
        <pt x="311" y="620" on="1"/>
        <pt x="311" y="603" on="0"/>
        <pt x="300" y="553" on="0"/>
        <pt x="270" y="465" on="0"/>
        <pt x="216" y="320" on="0"/>
        <pt x="173" y="208" on="1"/>
      </contour>
      <contour>
        <pt x="53" y="52" on="1"/>
        <pt x="53" y="85" on="0"/>
        <pt x="102" y="131" on="0"/>
        <pt x="133" y="131" on="1"/>
        <pt x="162" y="131" on="0"/>
        <pt x="199" y="91" on="0"/>
        <pt x="199" y="64" on="1"/>
        <pt x="199" y="32" on="0"/>
        <pt x="151" y="-13" on="0"/>
        <pt x="119" y="-13" on="1"/>
        <pt x="91" y="-13" on="0"/>
        <pt x="53" y="24" on="0"/>
      </contour>
    </TTGlyph>
    <TTGlyph name="f" xMin="-154" yMin="-243" xMax="500" yMax="743">
      <contour>
        <pt x="378" y="743" on="1"/>
        <pt x="423" y="743" on="0"/>
        <pt x="493" y="699" on="0"/>
        <pt x="500" y="668" on="1"/>
        <pt x="496" y="646" on="0"/>
        <pt x="465" y="622" on="0"/>
        <pt x="447" y="622" on="1"/>
        <pt x="425" y="622" on="0"/>
        <pt x="390" y="649" on="0"/>
        <pt x="370" y="676" on="1"/>
        <pt x="349" y="706" on="1"/>
        <pt x="318" y="686" on="0"/>
        <pt x="271" y="592" on="0"/>
        <pt x="256" y="495" on="1"/>
        <pt x="255" y="491" on="0"/>
        <pt x="254" y="483" on="0"/>
        <pt x="253" y="479" on="1"/>
        <pt x="378" y="479" on="1"/>
        <pt x="368" y="421" on="1"/>
        <pt x="245" y="425" on="1"/>
        <pt x="230" y="328" on="0"/>
        <pt x="200" y="133" on="0"/>
        <pt x="183" y="41" on="1"/>
        <pt x="168" y="-35" on="0"/>
        <pt x="123" y="-148" on="0"/>
        <pt x="84" y="-186" on="1"/>
        <pt x="53" y="-216" on="0"/>
        <pt x="-11" y="-243" on="0"/>
        <pt x="-40" y="-243" on="1"/>
        <pt x="-80" y="-243" on="0"/>
        <pt x="-141" y="-209" on="0"/>
        <pt x="-154" y="-174" on="1"/>
        <pt x="-150" y="-154" on="0"/>
        <pt x="-122" y="-127" on="0"/>
        <pt x="-100" y="-127" on="1"/>
        <pt x="-77" y="-127" on="0"/>
        <pt x="-39" y="-154" on="0"/>
        <pt x="-23" y="-175" on="1"/>
        <pt x="-6" y="-196" on="1"/>
        <pt x="3" y="-186" on="0"/>
        <pt x="22" y="-161" on="0"/>
        <pt x="30" y="-145" on="1"/>
        <pt x="47" y="-113" on="0"/>
        <pt x="70" y="-25" on="0"/>
        <pt x="82" y="41" on="1"/>
        <pt x="98" y="138" on="0"/>
        <pt x="126" y="327" on="0"/>
        <pt x="141" y="427" on="1"/>
        <pt x="51" y="427" on="1"/>
        <pt x="60" y="470" on="1"/>
        <pt x="149" y="479" on="1"/>
        <pt x="166" y="578" on="0"/>
        <pt x="239" y="693" on="0"/>
        <pt x="333" y="743" on="0"/>
      </contour>
    </TTGlyph>
    <TTGlyph name="five" xMin="55" yMin="-14" xMax="536" yMax="639">
      <component glyphName="glyph00086" x="8" y="0" flags="0x4"/>
    </TTGlyph>
    <TTGlyph name="four" xMin="32" yMin="-19" xMax="525" yMax="646">
      <component glyphName="glyph00085" x="-1" y="0" flags="0x4"/>
    </TTGlyph>
    <TTGlyph name="g" xMin="-27" yMin="-238" xMax="559" yMax="510">
      <contour>
        <pt x="254" y="190" on="1"/>
        <pt x="292" y="190" on="0"/>
        <pt x="341" y="264" on="0"/>
        <pt x="341" y="346" on="1"/>
        <pt x="341" y="398" on="0"/>
        <pt x="302" y="456" on="0"/>
        <pt x="273" y="455" on="1"/>
        <pt x="229" y="454" on="0"/>
        <pt x="185" y="372" on="0"/>
        <pt x="185" y="304" on="1"/>
        <pt x="185" y="254" on="0"/>
        <pt x="218" y="189" on="0"/>
      </contour>
      <contour>
        <pt x="81" y="292" on="1"/>
        <pt x="81" y="347" on="0"/>
        <pt x="135" y="438" on="0"/>
        <pt x="227" y="493" on="0"/>
        <pt x="282" y="493" on="1"/>
        <pt x="335" y="493" on="0"/>
        <pt x="406" y="442" on="0"/>
        <pt x="417" y="401" on="1"/>
        <pt x="432" y="463" on="0"/>
        <pt x="484" y="510" on="0"/>
        <pt x="515" y="510" on="1"/>
        <pt x="537" y="510" on="0"/>
        <pt x="551" y="502" on="1"/>
        <pt x="555" y="497" on="0"/>
        <pt x="559" y="486" on="0"/>
        <pt x="559" y="478" on="1"/>
        <pt x="559" y="441" on="0"/>
        <pt x="505" y="407" on="0"/>
        <pt x="450" y="393" on="1"/>
        <pt x="446" y="382" on="0"/>
        <pt x="440" y="356" on="0"/>
        <pt x="436" y="341" on="1"/>
        <pt x="414" y="249" on="0"/>
        <pt x="316" y="153" on="0"/>
        <pt x="236" y="153" on="1"/>
        <pt x="195" y="153" on="0"/>
        <pt x="162" y="167" on="1"/>
        <pt x="147" y="151" on="0"/>
        <pt x="140" y="131" on="0"/>
        <pt x="140" y="122" on="1"/>
        <pt x="140" y="110" on="0"/>
        <pt x="161" y="84" on="0"/>
        <pt x="190" y="81" on="1"/>
        <pt x="307" y="68" on="1"/>
        <pt x="390" y="59" on="0"/>
        <pt x="456" y="-1" on="0"/>
        <pt x="456" y="-47" on="1"/>
        <pt x="456" y="-100" on="0"/>
        <pt x="375" y="-187" on="0"/>
        <pt x="236" y="-238" on="0"/>
        <pt x="148" y="-238" on="1"/>
        <pt x="69" y="-238" on="0"/>
        <pt x="-27" y="-186" on="0"/>
        <pt x="-27" y="-134" on="1"/>
        <pt x="-27" y="-93" on="0"/>
        <pt x="45" y="-21" on="0"/>
        <pt x="93" y="1" on="1"/>
        <pt x="69" y="13" on="0"/>
        <pt x="48" y="51" on="0"/>
        <pt x="48" y="70" on="1"/>
        <pt x="48" y="103" on="0"/>
        <pt x="94" y="157" on="0"/>
        <pt x="134" y="183" on="1"/>
        <pt x="108" y="202" on="0"/>
        <pt x="81" y="259" on="0"/>
      </contour>
      <contour>
        <pt x="68" y="-100" on="1"/>
        <pt x="68" y="-140" on="0"/>
        <pt x="137" y="-185" on="0"/>
        <pt x="198" y="-185" on="1"/>
        <pt x="272" y="-185" on="0"/>
        <pt x="359" y="-135" on="0"/>
        <pt x="359" y="-94" on="1"/>
        <pt x="359" y="-68" on="0"/>
        <pt x="312" y="-29" on="0"/>
        <pt x="247" y="-22" on="1"/>
        <pt x="138" y="-11" on="1"/>
        <pt x="133" y="-11" on="0"/>
        <pt x="127" y="-9" on="1"/>
        <pt x="99" y="-30" on="0"/>
        <pt x="68" y="-74" on="0"/>
      </contour>
    </TTGlyph>
    <TTGlyph name="glyph00054" xMin="62" yMin="-14" xMax="323" yMax="747">
      <component glyphName="i" x="0" y="0" flags="0x204"/>
    </TTGlyph>
    <TTGlyph name="glyph00055" xMin="-154" yMin="-243" xMax="812" yMax="743">
      <contour>
        <pt x="476" y="106" on="1"/>
        <pt x="476" y="82" on="0"/>
        <pt x="501" y="54" on="0"/>
        <pt x="524" y="54" on="1"/>
        <pt x="578" y="54" on="0"/>
        <pt x="628" y="111" on="1"/>
        <pt x="660" y="147" on="0"/>
        <pt x="703" y="264" on="0"/>
        <pt x="703" y="320" on="1"/>
        <pt x="703" y="364" on="0"/>
        <pt x="672" y="409" on="0"/>
        <pt x="646" y="409" on="1"/>
        <pt x="618" y="409" on="0"/>
        <pt x="554" y="366" on="0"/>
        <pt x="516" y="327" on="1"/>
        <pt x="496" y="235" on="1"/>
        <pt x="486" y="185" on="0"/>
        <pt x="476" y="130" on="0"/>
      </contour>
      <contour>
        <pt x="389" y="743" on="1"/>
        <pt x="422" y="743" on="0"/>
        <pt x="474" y="718" on="0"/>
        <pt x="488" y="698" on="1"/>
        <pt x="584" y="730" on="1"/>
        <pt x="597" y="720" on="1"/>
        <pt x="524" y="375" on="1"/>
        <pt x="568" y="430" on="0"/>
        <pt x="671" y="493" on="0"/>
        <pt x="714" y="493" on="1"/>
        <pt x="756" y="493" on="0"/>
        <pt x="812" y="433" on="0"/>
        <pt x="812" y="362" on="1"/>
        <pt x="812" y="308" on="0"/>
        <pt x="773" y="200" on="0"/>
        <pt x="706" y="103" on="0"/>
        <pt x="618" y="29" on="0"/>
        <pt x="519" y="-14" on="0"/>
        <pt x="469" y="-14" on="1"/>
        <pt x="426" y="-14" on="0"/>
        <pt x="369" y="35" on="0"/>
        <pt x="369" y="84" on="1"/>
        <pt x="369" y="119" on="0"/>
        <pt x="384" y="202" on="0"/>
        <pt x="393" y="248" on="1"/>
        <pt x="436" y="465" on="1"/>
        <pt x="444" y="506" on="0"/>
        <pt x="460" y="589" on="0"/>
        <pt x="467" y="630" on="1"/>
        <pt x="463" y="629" on="0"/>
        <pt x="457" y="629" on="1"/>
        <pt x="433" y="629" on="0"/>
        <pt x="398" y="653" on="0"/>
        <pt x="378" y="679" on="1"/>
        <pt x="361" y="705" on="1"/>
        <pt x="328" y="685" on="0"/>
        <pt x="273" y="591" on="0"/>
        <pt x="256" y="495" on="1"/>
        <pt x="255" y="491" on="0"/>
        <pt x="254" y="483" on="0"/>
        <pt x="253" y="479" on="1"/>
        <pt x="378" y="479" on="1"/>
        <pt x="368" y="421" on="1"/>
        <pt x="245" y="425" on="1"/>
        <pt x="229" y="328" on="0"/>
        <pt x="200" y="133" on="0"/>
        <pt x="183" y="41" on="1"/>
        <pt x="168" y="-35" on="0"/>
        <pt x="123" y="-148" on="0"/>
        <pt x="84" y="-186" on="1"/>
        <pt x="53" y="-216" on="0"/>
        <pt x="-11" y="-243" on="0"/>
        <pt x="-40" y="-243" on="1"/>
        <pt x="-80" y="-243" on="0"/>
        <pt x="-141" y="-209" on="0"/>
        <pt x="-154" y="-174" on="1"/>
        <pt x="-150" y="-154" on="0"/>
        <pt x="-122" y="-127" on="0"/>
        <pt x="-100" y="-127" on="1"/>
        <pt x="-77" y="-127" on="0"/>
        <pt x="-39" y="-154" on="0"/>
        <pt x="-23" y="-175" on="1"/>
        <pt x="-6" y="-196" on="1"/>
        <pt x="3" y="-186" on="0"/>
        <pt x="22" y="-161" on="0"/>
        <pt x="30" y="-145" on="1"/>
        <pt x="47" y="-113" on="0"/>
        <pt x="70" y="-25" on="0"/>
        <pt x="82" y="41" on="1"/>
        <pt x="98" y="138" on="0"/>
        <pt x="125" y="327" on="0"/>
        <pt x="140" y="427" on="1"/>
        <pt x="51" y="427" on="1"/>
        <pt x="60" y="470" on="1"/>
        <pt x="149" y="479" on="1"/>
        <pt x="172" y="607" on="0"/>
        <pt x="302" y="743" on="0"/>
      </contour>
    </TTGlyph>
    <TTGlyph name="glyph00056" xMin="-154" yMin="-243" xMax="777" yMax="743">
      <contour>
        <pt x="389" y="743" on="1"/>
        <pt x="433" y="743" on="0"/>
        <pt x="494" y="700" on="0"/>
        <pt x="501" y="671" on="1"/>
        <pt x="500" y="669" on="0"/>
        <pt x="500" y="664" on="0"/>
        <pt x="499" y="662" on="1"/>
        <pt x="533" y="706" on="0"/>
        <pt x="615" y="743" on="0"/>
        <pt x="655" y="743" on="1"/>
        <pt x="700" y="743" on="0"/>
        <pt x="770" y="699" on="0"/>
        <pt x="777" y="668" on="1"/>
        <pt x="773" y="646" on="0"/>
        <pt x="742" y="622" on="0"/>
        <pt x="724" y="622" on="1"/>
        <pt x="702" y="622" on="0"/>
        <pt x="667" y="649" on="0"/>
        <pt x="647" y="676" on="1"/>
        <pt x="626" y="706" on="1"/>
        <pt x="595" y="686" on="0"/>
        <pt x="548" y="592" on="0"/>
        <pt x="533" y="495" on="1"/>
        <pt x="532" y="491" on="0"/>
        <pt x="531" y="483" on="0"/>
        <pt x="530" y="479" on="1"/>
        <pt x="655" y="479" on="1"/>
        <pt x="645" y="421" on="1"/>
        <pt x="522" y="425" on="1"/>
        <pt x="507" y="328" on="0"/>
        <pt x="477" y="133" on="0"/>
        <pt x="460" y="41" on="1"/>
        <pt x="445" y="-35" on="0"/>
        <pt x="400" y="-148" on="0"/>
        <pt x="361" y="-186" on="1"/>
        <pt x="330" y="-216" on="0"/>
        <pt x="266" y="-243" on="0"/>
        <pt x="237" y="-243" on="1"/>
        <pt x="197" y="-243" on="0"/>
        <pt x="136" y="-209" on="0"/>
        <pt x="123" y="-174" on="1"/>
        <pt x="127" y="-154" on="0"/>
        <pt x="155" y="-127" on="0"/>
        <pt x="177" y="-127" on="1"/>
        <pt x="200" y="-127" on="0"/>
        <pt x="238" y="-154" on="0"/>
        <pt x="254" y="-175" on="1"/>
        <pt x="271" y="-196" on="1"/>
        <pt x="280" y="-186" on="0"/>
        <pt x="299" y="-161" on="0"/>
        <pt x="307" y="-145" on="1"/>
        <pt x="324" y="-113" on="0"/>
        <pt x="347" y="-25" on="0"/>
        <pt x="359" y="41" on="1"/>
        <pt x="375" y="138" on="0"/>
        <pt x="403" y="327" on="0"/>
        <pt x="418" y="427" on="1"/>
        <pt x="245" y="427" on="1"/>
        <pt x="230" y="330" on="0"/>
        <pt x="200" y="133" on="0"/>
        <pt x="183" y="41" on="1"/>
        <pt x="168" y="-35" on="0"/>
        <pt x="123" y="-148" on="0"/>
        <pt x="84" y="-186" on="1"/>
        <pt x="53" y="-216" on="0"/>
        <pt x="-11" y="-243" on="0"/>
        <pt x="-40" y="-243" on="1"/>
        <pt x="-80" y="-243" on="0"/>
        <pt x="-141" y="-209" on="0"/>
        <pt x="-154" y="-174" on="1"/>
        <pt x="-150" y="-154" on="0"/>
        <pt x="-122" y="-127" on="0"/>
        <pt x="-100" y="-127" on="1"/>
        <pt x="-77" y="-127" on="0"/>
        <pt x="-39" y="-154" on="0"/>
        <pt x="-23" y="-175" on="1"/>
        <pt x="-6" y="-196" on="1"/>
        <pt x="3" y="-186" on="0"/>
        <pt x="22" y="-161" on="0"/>
        <pt x="30" y="-145" on="1"/>
        <pt x="47" y="-113" on="0"/>
        <pt x="70" y="-25" on="0"/>
        <pt x="82" y="41" on="1"/>
        <pt x="98" y="138" on="0"/>
        <pt x="125" y="327" on="0"/>
        <pt x="140" y="427" on="1"/>
        <pt x="51" y="427" on="1"/>
        <pt x="60" y="470" on="1"/>
        <pt x="149" y="479" on="1"/>
        <pt x="172" y="607" on="0"/>
        <pt x="302" y="743" on="0"/>
      </contour>
      <contour>
        <pt x="256" y="495" on="1"/>
        <pt x="255" y="491" on="0"/>
        <pt x="254" y="483" on="0"/>
        <pt x="253" y="479" on="1"/>
        <pt x="422" y="479" on="1"/>
        <pt x="426" y="479" on="1"/>
        <pt x="434" y="529" on="0"/>
        <pt x="463" y="608" on="0"/>
        <pt x="481" y="638" on="1"/>
        <pt x="471" y="629" on="0"/>
        <pt x="457" y="629" on="1"/>
        <pt x="433" y="629" on="0"/>
        <pt x="398" y="653" on="0"/>
        <pt x="378" y="679" on="1"/>
        <pt x="361" y="705" on="1"/>
        <pt x="328" y="685" on="0"/>
        <pt x="273" y="591" on="0"/>
      </contour>
    </TTGlyph>
    <TTGlyph name="glyph00057" xMin="-154" yMin="-243" xMax="867" yMax="743">
      <contour>
        <pt x="389" y="743" on="1"/>
        <pt x="423" y="743" on="0"/>
        <pt x="477" y="716" on="0"/>
        <pt x="490" y="696" on="1"/>
        <pt x="588" y="730" on="1"/>
        <pt x="601" y="720" on="1"/>
        <pt x="529" y="381" on="1"/>
        <pt x="580" y="431" on="0"/>
        <pt x="691" y="493" on="0"/>
        <pt x="737" y="493" on="1"/>
        <pt x="769" y="493" on="0"/>
        <pt x="807" y="455" on="0"/>
        <pt x="807" y="417" on="1"/>
        <pt x="807" y="395" on="0"/>
        <pt x="799" y="348" on="0"/>
        <pt x="793" y="324" on="1"/>
        <pt x="747" y="137" on="1"/>
        <pt x="743" y="120" on="0"/>
        <pt x="736" y="94" on="0"/>
        <pt x="736" y="86" on="1"/>
        <pt x="736" y="66" on="0"/>
        <pt x="754" y="66" on="1"/>
        <pt x="787" y="66" on="0"/>
        <pt x="840" y="133" on="1"/>
        <pt x="867" y="113" on="1"/>
        <pt x="848" y="82" on="0"/>
        <pt x="791" y="23" on="0"/>
        <pt x="723" y="-14" on="0"/>
        <pt x="684" y="-14" on="1"/>
        <pt x="655" y="-14" on="0"/>
        <pt x="622" y="14" on="0"/>
        <pt x="622" y="39" on="1"/>
        <pt x="622" y="59" on="0"/>
        <pt x="631" y="99" on="0"/>
        <pt x="638" y="126" on="1"/>
        <pt x="678" y="289" on="1"/>
        <pt x="684" y="313" on="0"/>
        <pt x="692" y="356" on="0"/>
        <pt x="692" y="370" on="1"/>
        <pt x="692" y="409" on="0"/>
        <pt x="662" y="409" on="1"/>
        <pt x="611" y="409" on="0"/>
        <pt x="522" y="333" on="1"/>
        <pt x="496" y="213" on="1"/>
        <pt x="484" y="154" on="0"/>
        <pt x="464" y="53" on="0"/>
        <pt x="456" y="0" on="1"/>
        <pt x="358" y="-8" on="1"/>
        <pt x="346" y="2" on="1"/>
        <pt x="439" y="451" on="1"/>
        <pt x="447" y="490" on="0"/>
        <pt x="464" y="586" on="0"/>
        <pt x="471" y="632" on="1"/>
        <pt x="465" y="629" on="0"/>
        <pt x="457" y="629" on="1"/>
        <pt x="433" y="629" on="0"/>
        <pt x="398" y="653" on="0"/>
        <pt x="378" y="679" on="1"/>
        <pt x="361" y="705" on="1"/>
        <pt x="328" y="685" on="0"/>
        <pt x="273" y="591" on="0"/>
        <pt x="256" y="495" on="1"/>
        <pt x="255" y="491" on="0"/>
        <pt x="254" y="483" on="0"/>
        <pt x="253" y="479" on="1"/>
        <pt x="378" y="479" on="1"/>
        <pt x="368" y="421" on="1"/>
        <pt x="245" y="425" on="1"/>
        <pt x="229" y="328" on="0"/>
        <pt x="200" y="133" on="0"/>
        <pt x="183" y="41" on="1"/>
        <pt x="168" y="-35" on="0"/>
        <pt x="123" y="-148" on="0"/>
        <pt x="84" y="-186" on="1"/>
        <pt x="53" y="-216" on="0"/>
        <pt x="-11" y="-243" on="0"/>
        <pt x="-40" y="-243" on="1"/>
        <pt x="-80" y="-243" on="0"/>
        <pt x="-141" y="-209" on="0"/>
        <pt x="-154" y="-174" on="1"/>
        <pt x="-150" y="-154" on="0"/>
        <pt x="-122" y="-127" on="0"/>
        <pt x="-100" y="-127" on="1"/>
        <pt x="-77" y="-127" on="0"/>
        <pt x="-39" y="-154" on="0"/>
        <pt x="-23" y="-175" on="1"/>
        <pt x="-6" y="-196" on="1"/>
        <pt x="3" y="-186" on="0"/>
        <pt x="22" y="-161" on="0"/>
        <pt x="30" y="-145" on="1"/>
        <pt x="47" y="-113" on="0"/>
        <pt x="70" y="-25" on="0"/>
        <pt x="82" y="41" on="1"/>
        <pt x="98" y="138" on="0"/>
        <pt x="125" y="327" on="0"/>
        <pt x="140" y="427" on="1"/>
        <pt x="51" y="427" on="1"/>
        <pt x="60" y="470" on="1"/>
        <pt x="149" y="479" on="1"/>
        <pt x="172" y="607" on="0"/>
        <pt x="302" y="743" on="0"/>
      </contour>
    </TTGlyph>
    <TTGlyph name="glyph00058" xMin="-154" yMin="-243" xMax="600" yMax="743">
      <contour>
        <pt x="426" y="743" on="1"/>
        <pt x="483" y="743" on="0"/>
        <pt x="557" y="697" on="0"/>
        <pt x="566" y="665" on="1"/>
        <pt x="557" y="620" on="0"/>
        <pt x="514" y="620" on="1"/>
        <pt x="489" y="620" on="0"/>
        <pt x="455" y="648" on="0"/>
        <pt x="435" y="675" on="1"/>
        <pt x="415" y="703" on="1"/>
        <pt x="359" y="696" on="0"/>
        <pt x="272" y="593" on="0"/>
        <pt x="255" y="489" on="1"/>
        <pt x="254" y="487" on="0"/>
        <pt x="254" y="481" on="0"/>
        <pt x="253" y="479" on="1"/>
        <pt x="476" y="479" on="1"/>
        <pt x="536" y="494" on="1"/>
        <pt x="550" y="482" on="1"/>
        <pt x="477" y="137" on="1"/>
        <pt x="469" y="103" on="0"/>
        <pt x="469" y="87" on="1"/>
        <pt x="469" y="77" on="0"/>
        <pt x="481" y="66" on="0"/>
        <pt x="489" y="66" on="1"/>
        <pt x="518" y="66" on="0"/>
        <pt x="573" y="133" on="1"/>
        <pt x="600" y="113" on="1"/>
        <pt x="579" y="82" on="0"/>
        <pt x="526" y="23" on="0"/>
        <pt x="461" y="-14" on="0"/>
        <pt x="422" y="-14" on="1"/>
        <pt x="394" y="-14" on="0"/>
        <pt x="357" y="16" on="0"/>
        <pt x="357" y="45" on="1"/>
        <pt x="357" y="78" on="0"/>
        <pt x="369" y="130" on="1"/>
        <pt x="430" y="422" on="1"/>
        <pt x="245" y="426" on="1"/>
        <pt x="231" y="331" on="0"/>
        <pt x="200" y="133" on="0"/>
        <pt x="183" y="41" on="1"/>
        <pt x="168" y="-35" on="0"/>
        <pt x="123" y="-148" on="0"/>
        <pt x="84" y="-186" on="1"/>
        <pt x="53" y="-216" on="0"/>
        <pt x="-11" y="-243" on="0"/>
        <pt x="-40" y="-243" on="1"/>
        <pt x="-80" y="-243" on="0"/>
        <pt x="-141" y="-209" on="0"/>
        <pt x="-154" y="-174" on="1"/>
        <pt x="-150" y="-154" on="0"/>
        <pt x="-122" y="-127" on="0"/>
        <pt x="-100" y="-127" on="1"/>
        <pt x="-77" y="-127" on="0"/>
        <pt x="-39" y="-154" on="0"/>
        <pt x="-23" y="-175" on="1"/>
        <pt x="-6" y="-196" on="1"/>
        <pt x="3" y="-186" on="0"/>
        <pt x="22" y="-161" on="0"/>
        <pt x="30" y="-145" on="1"/>
        <pt x="47" y="-113" on="0"/>
        <pt x="70" y="-25" on="0"/>
        <pt x="82" y="41" on="1"/>
        <pt x="98" y="138" on="0"/>
        <pt x="125" y="327" on="0"/>
        <pt x="141" y="427" on="1"/>
        <pt x="51" y="427" on="1"/>
        <pt x="60" y="470" on="1"/>
        <pt x="149" y="479" on="1"/>
        <pt x="172" y="607" on="0"/>
        <pt x="316" y="743" on="0"/>
      </contour>
    </TTGlyph>
    <TTGlyph name="glyph00059" xMin="-154" yMin="-243" xMax="566" yMax="743">
      <contour>
        <pt x="426" y="743" on="1"/>
        <pt x="483" y="743" on="0"/>
        <pt x="557" y="698" on="0"/>
        <pt x="566" y="666" on="1"/>
        <pt x="557" y="622" on="0"/>
        <pt x="516" y="622" on="1"/>
        <pt x="491" y="622" on="0"/>
        <pt x="458" y="650" on="0"/>
        <pt x="437" y="676" on="1"/>
        <pt x="416" y="703" on="1"/>
        <pt x="360" y="697" on="0"/>
        <pt x="272" y="593" on="0"/>
        <pt x="255" y="489" on="1"/>
        <pt x="254" y="487" on="0"/>
        <pt x="254" y="481" on="0"/>
        <pt x="253" y="479" on="1"/>
        <pt x="476" y="479" on="1"/>
        <pt x="533" y="494" on="1"/>
        <pt x="548" y="481" on="1"/>
        <pt x="462" y="43" on="1"/>
        <pt x="432" y="-104" on="0"/>
        <pt x="355" y="-177" on="1"/>
        <pt x="329" y="-204" on="0"/>
        <pt x="260" y="-238" on="0"/>
        <pt x="218" y="-242" on="1"/>
        <pt x="210" y="-212" on="1"/>
        <pt x="236" y="-201" on="0"/>
        <pt x="273" y="-177" on="0"/>
        <pt x="288" y="-157" on="1"/>
        <pt x="309" y="-128" on="0"/>
        <pt x="342" y="-36" on="0"/>
        <pt x="358" y="49" on="1"/>
        <pt x="429" y="422" on="1"/>
        <pt x="245" y="426" on="1"/>
        <pt x="231" y="331" on="0"/>
        <pt x="200" y="133" on="0"/>
        <pt x="183" y="41" on="1"/>
        <pt x="168" y="-35" on="0"/>
        <pt x="123" y="-148" on="0"/>
        <pt x="84" y="-186" on="1"/>
        <pt x="53" y="-216" on="0"/>
        <pt x="-11" y="-243" on="0"/>
        <pt x="-40" y="-243" on="1"/>
        <pt x="-80" y="-243" on="0"/>
        <pt x="-141" y="-209" on="0"/>
        <pt x="-154" y="-174" on="1"/>
        <pt x="-150" y="-154" on="0"/>
        <pt x="-122" y="-127" on="0"/>
        <pt x="-100" y="-127" on="1"/>
        <pt x="-77" y="-127" on="0"/>
        <pt x="-39" y="-154" on="0"/>
        <pt x="-23" y="-175" on="1"/>
        <pt x="-6" y="-196" on="1"/>
        <pt x="3" y="-186" on="0"/>
        <pt x="22" y="-161" on="0"/>
        <pt x="30" y="-145" on="1"/>
        <pt x="47" y="-113" on="0"/>
        <pt x="70" y="-25" on="0"/>
        <pt x="82" y="41" on="1"/>
        <pt x="98" y="138" on="0"/>
        <pt x="125" y="327" on="0"/>
        <pt x="141" y="427" on="1"/>
        <pt x="51" y="427" on="1"/>
        <pt x="60" y="470" on="1"/>
        <pt x="149" y="479" on="1"/>
        <pt x="172" y="607" on="0"/>
        <pt x="316" y="743" on="0"/>
      </contour>
    </TTGlyph>
    <TTGlyph name="glyph00060" xMin="-154" yMin="-243" xMax="815" yMax="743">
      <contour>
        <pt x="389" y="743" on="1"/>
        <pt x="423" y="743" on="0"/>
        <pt x="477" y="716" on="0"/>
        <pt x="490" y="695" on="1"/>
        <pt x="589" y="730" on="1"/>
        <pt x="599" y="720" on="1"/>
        <pt x="509" y="282" on="1"/>
        <pt x="763" y="488" on="1"/>
        <pt x="786" y="485" on="0"/>
        <pt x="815" y="453" on="0"/>
        <pt x="815" y="431" on="1"/>
        <pt x="815" y="409" on="0"/>
        <pt x="780" y="379" on="0"/>
        <pt x="742" y="364" on="1"/>
        <pt x="515" y="261" on="1"/>
        <pt x="548" y="257" on="1"/>
        <pt x="594" y="250" on="0"/>
        <pt x="654" y="201" on="0"/>
        <pt x="672" y="159" on="1"/>
        <pt x="701" y="92" on="1"/>
        <pt x="715" y="61" on="0"/>
        <pt x="742" y="38" on="0"/>
        <pt x="762" y="36" on="1"/>
        <pt x="803" y="32" on="1"/>
        <pt x="797" y="0" on="1"/>
        <pt x="756" y="-14" on="0"/>
        <pt x="714" y="-14" on="1"/>
        <pt x="673" y="-14" on="0"/>
        <pt x="614" y="20" on="0"/>
        <pt x="594" y="75" on="1"/>
        <pt x="563" y="158" on="1"/>
        <pt x="547" y="199" on="0"/>
        <pt x="523" y="232" on="0"/>
        <pt x="500" y="239" on="1"/>
        <pt x="495" y="213" on="1"/>
        <pt x="483" y="154" on="0"/>
        <pt x="465" y="53" on="0"/>
        <pt x="456" y="0" on="1"/>
        <pt x="358" y="-8" on="1"/>
        <pt x="346" y="2" on="1"/>
        <pt x="438" y="451" on="1"/>
        <pt x="446" y="492" on="0"/>
        <pt x="465" y="583" on="0"/>
        <pt x="472" y="632" on="1"/>
        <pt x="465" y="629" on="0"/>
        <pt x="457" y="629" on="1"/>
        <pt x="433" y="629" on="0"/>
        <pt x="398" y="653" on="0"/>
        <pt x="378" y="679" on="1"/>
        <pt x="361" y="705" on="1"/>
        <pt x="328" y="685" on="0"/>
        <pt x="273" y="591" on="0"/>
        <pt x="256" y="495" on="1"/>
        <pt x="255" y="491" on="0"/>
        <pt x="254" y="483" on="0"/>
        <pt x="253" y="479" on="1"/>
        <pt x="378" y="479" on="1"/>
        <pt x="368" y="421" on="1"/>
        <pt x="245" y="425" on="1"/>
        <pt x="229" y="328" on="0"/>
        <pt x="200" y="133" on="0"/>
        <pt x="183" y="41" on="1"/>
        <pt x="168" y="-35" on="0"/>
        <pt x="123" y="-148" on="0"/>
        <pt x="84" y="-186" on="1"/>
        <pt x="53" y="-216" on="0"/>
        <pt x="-11" y="-243" on="0"/>
        <pt x="-40" y="-243" on="1"/>
        <pt x="-80" y="-243" on="0"/>
        <pt x="-141" y="-209" on="0"/>
        <pt x="-154" y="-174" on="1"/>
        <pt x="-150" y="-154" on="0"/>
        <pt x="-122" y="-127" on="0"/>
        <pt x="-100" y="-127" on="1"/>
        <pt x="-77" y="-127" on="0"/>
        <pt x="-39" y="-154" on="0"/>
        <pt x="-23" y="-175" on="1"/>
        <pt x="-6" y="-196" on="1"/>
        <pt x="3" y="-186" on="0"/>
        <pt x="22" y="-161" on="0"/>
        <pt x="30" y="-145" on="1"/>
        <pt x="47" y="-113" on="0"/>
        <pt x="70" y="-25" on="0"/>
        <pt x="82" y="41" on="1"/>
        <pt x="98" y="138" on="0"/>
        <pt x="125" y="327" on="0"/>
        <pt x="140" y="427" on="1"/>
        <pt x="51" y="427" on="1"/>
        <pt x="60" y="470" on="1"/>
        <pt x="149" y="479" on="1"/>
        <pt x="172" y="607" on="0"/>
        <pt x="302" y="743" on="0"/>
      </contour>
    </TTGlyph>
    <TTGlyph name="glyph00061" xMin="-154" yMin="-243" xMax="603" yMax="743">
      <contour>
        <pt x="389" y="743" on="1"/>
        <pt x="423" y="743" on="0"/>
        <pt x="476" y="716" on="0"/>
        <pt x="490" y="696" on="1"/>
        <pt x="587" y="730" on="1"/>
        <pt x="600" y="720" on="1"/>
        <pt x="480" y="138" on="1"/>
        <pt x="472" y="103" on="0"/>
        <pt x="472" y="88" on="1"/>
        <pt x="472" y="77" on="0"/>
        <pt x="485" y="66" on="0"/>
        <pt x="493" y="66" on="1"/>
        <pt x="521" y="66" on="0"/>
        <pt x="576" y="133" on="1"/>
        <pt x="603" y="113" on="1"/>
        <pt x="583" y="82" on="0"/>
        <pt x="530" y="23" on="0"/>
        <pt x="466" y="-14" on="0"/>
        <pt x="427" y="-14" on="1"/>
        <pt x="398" y="-14" on="0"/>
        <pt x="361" y="18" on="0"/>
        <pt x="361" y="49" on="1"/>
        <pt x="361" y="64" on="0"/>
        <pt x="368" y="108" on="0"/>
        <pt x="375" y="143" on="1"/>
        <pt x="437" y="451" on="1"/>
        <pt x="445" y="492" on="0"/>
        <pt x="463" y="582" on="0"/>
        <pt x="470" y="631" on="1"/>
        <pt x="462" y="629" on="0"/>
        <pt x="457" y="629" on="1"/>
        <pt x="433" y="629" on="0"/>
        <pt x="398" y="653" on="0"/>
        <pt x="378" y="679" on="1"/>
        <pt x="361" y="705" on="1"/>
        <pt x="328" y="685" on="0"/>
        <pt x="273" y="591" on="0"/>
        <pt x="256" y="495" on="1"/>
        <pt x="255" y="491" on="0"/>
        <pt x="254" y="483" on="0"/>
        <pt x="253" y="479" on="1"/>
        <pt x="378" y="479" on="1"/>
        <pt x="368" y="421" on="1"/>
        <pt x="245" y="425" on="1"/>
        <pt x="229" y="328" on="0"/>
        <pt x="200" y="133" on="0"/>
        <pt x="183" y="41" on="1"/>
        <pt x="168" y="-35" on="0"/>
        <pt x="123" y="-148" on="0"/>
        <pt x="84" y="-186" on="1"/>
        <pt x="53" y="-216" on="0"/>
        <pt x="-11" y="-243" on="0"/>
        <pt x="-40" y="-243" on="1"/>
        <pt x="-80" y="-243" on="0"/>
        <pt x="-141" y="-209" on="0"/>
        <pt x="-154" y="-174" on="1"/>
        <pt x="-150" y="-154" on="0"/>
        <pt x="-122" y="-127" on="0"/>
        <pt x="-100" y="-127" on="1"/>
        <pt x="-77" y="-127" on="0"/>
        <pt x="-39" y="-154" on="0"/>
        <pt x="-23" y="-175" on="1"/>
        <pt x="-6" y="-196" on="1"/>
        <pt x="3" y="-186" on="0"/>
        <pt x="22" y="-161" on="0"/>
        <pt x="30" y="-145" on="1"/>
        <pt x="47" y="-113" on="0"/>
        <pt x="70" y="-25" on="0"/>
        <pt x="82" y="41" on="1"/>
        <pt x="98" y="138" on="0"/>
        <pt x="125" y="327" on="0"/>
        <pt x="140" y="427" on="1"/>
        <pt x="51" y="427" on="1"/>
        <pt x="60" y="470" on="1"/>
        <pt x="149" y="479" on="1"/>
        <pt x="172" y="607" on="0"/>
        <pt x="302" y="743" on="0"/>
      </contour>
    </TTGlyph>
    <TTGlyph name="glyph00062" xMin="-154" yMin="-243" xMax="656" yMax="743">
      <contour>
        <pt x="389" y="743" on="1"/>
        <pt x="433" y="743" on="0"/>
        <pt x="494" y="700" on="0"/>
        <pt x="501" y="671" on="1"/>
        <pt x="497" y="652" on="0"/>
        <pt x="472" y="629" on="0"/>
        <pt x="457" y="629" on="1"/>
        <pt x="433" y="629" on="0"/>
        <pt x="398" y="653" on="0"/>
        <pt x="378" y="679" on="1"/>
        <pt x="361" y="705" on="1"/>
        <pt x="328" y="685" on="0"/>
        <pt x="273" y="591" on="0"/>
        <pt x="256" y="495" on="1"/>
        <pt x="255" y="491" on="0"/>
        <pt x="254" y="483" on="0"/>
        <pt x="253" y="479" on="1"/>
        <pt x="432" y="479" on="1"/>
        <pt x="442" y="480" on="1"/>
        <pt x="498" y="615" on="1"/>
        <pt x="570" y="615" on="1"/>
        <pt x="541" y="479" on="1"/>
        <pt x="656" y="479" on="1"/>
        <pt x="647" y="420" on="1"/>
        <pt x="530" y="424" on="1"/>
        <pt x="470" y="138" on="1"/>
        <pt x="462" y="103" on="0"/>
        <pt x="462" y="88" on="1"/>
        <pt x="462" y="77" on="0"/>
        <pt x="475" y="66" on="0"/>
        <pt x="483" y="66" on="1"/>
        <pt x="514" y="66" on="0"/>
        <pt x="569" y="133" on="1"/>
        <pt x="596" y="113" on="1"/>
        <pt x="576" y="82" on="0"/>
        <pt x="521" y="23" on="0"/>
        <pt x="454" y="-14" on="0"/>
        <pt x="416" y="-14" on="1"/>
        <pt x="388" y="-14" on="0"/>
        <pt x="350" y="16" on="0"/>
        <pt x="350" y="46" on="1"/>
        <pt x="350" y="62" on="0"/>
        <pt x="356" y="104" on="0"/>
        <pt x="361" y="132" on="1"/>
        <pt x="425" y="426" on="1"/>
        <pt x="336" y="426" on="1"/>
        <pt x="336" y="427" on="1"/>
        <pt x="245" y="427" on="1"/>
        <pt x="230" y="330" on="0"/>
        <pt x="200" y="133" on="0"/>
        <pt x="183" y="41" on="1"/>
        <pt x="168" y="-35" on="0"/>
        <pt x="123" y="-148" on="0"/>
        <pt x="84" y="-186" on="1"/>
        <pt x="53" y="-216" on="0"/>
        <pt x="-11" y="-243" on="0"/>
        <pt x="-40" y="-243" on="1"/>
        <pt x="-80" y="-243" on="0"/>
        <pt x="-141" y="-209" on="0"/>
        <pt x="-154" y="-174" on="1"/>
        <pt x="-150" y="-154" on="0"/>
        <pt x="-122" y="-127" on="0"/>
        <pt x="-100" y="-127" on="1"/>
        <pt x="-77" y="-127" on="0"/>
        <pt x="-39" y="-154" on="0"/>
        <pt x="-23" y="-175" on="1"/>
        <pt x="-6" y="-196" on="1"/>
        <pt x="3" y="-186" on="0"/>
        <pt x="22" y="-161" on="0"/>
        <pt x="30" y="-145" on="1"/>
        <pt x="47" y="-113" on="0"/>
        <pt x="70" y="-25" on="0"/>
        <pt x="82" y="41" on="1"/>
        <pt x="98" y="138" on="0"/>
        <pt x="125" y="327" on="0"/>
        <pt x="140" y="427" on="1"/>
        <pt x="51" y="427" on="1"/>
        <pt x="60" y="470" on="1"/>
        <pt x="149" y="479" on="1"/>
        <pt x="172" y="607" on="0"/>
        <pt x="302" y="743" on="0"/>
      </contour>
    </TTGlyph>
    <TTGlyph name="glyph00063" xMin="-154" yMin="-243" xMax="1090" yMax="743">
      <contour>
        <pt x="389" y="743" on="1"/>
        <pt x="433" y="743" on="0"/>
        <pt x="494" y="700" on="0"/>
        <pt x="501" y="671" on="1"/>
        <pt x="497" y="652" on="0"/>
        <pt x="472" y="629" on="0"/>
        <pt x="457" y="629" on="1"/>
        <pt x="433" y="629" on="0"/>
        <pt x="398" y="653" on="0"/>
        <pt x="378" y="679" on="1"/>
        <pt x="361" y="705" on="1"/>
        <pt x="328" y="685" on="0"/>
        <pt x="273" y="591" on="0"/>
        <pt x="256" y="495" on="1"/>
        <pt x="255" y="491" on="0"/>
        <pt x="254" y="483" on="0"/>
        <pt x="253" y="479" on="1"/>
        <pt x="423" y="479" on="1"/>
        <pt x="427" y="479" on="1"/>
        <pt x="450" y="607" on="0"/>
        <pt x="580" y="743" on="0"/>
        <pt x="667" y="743" on="1"/>
        <pt x="700" y="743" on="0"/>
        <pt x="752" y="718" on="0"/>
        <pt x="766" y="698" on="1"/>
        <pt x="862" y="730" on="1"/>
        <pt x="875" y="720" on="1"/>
        <pt x="802" y="375" on="1"/>
        <pt x="846" y="430" on="0"/>
        <pt x="949" y="493" on="0"/>
        <pt x="992" y="493" on="1"/>
        <pt x="1034" y="493" on="0"/>
        <pt x="1090" y="433" on="0"/>
        <pt x="1090" y="362" on="1"/>
        <pt x="1090" y="308" on="0"/>
        <pt x="1051" y="200" on="0"/>
        <pt x="984" y="103" on="0"/>
        <pt x="896" y="29" on="0"/>
        <pt x="797" y="-14" on="0"/>
        <pt x="747" y="-14" on="1"/>
        <pt x="704" y="-14" on="0"/>
        <pt x="647" y="35" on="0"/>
        <pt x="647" y="84" on="1"/>
        <pt x="647" y="119" on="0"/>
        <pt x="662" y="202" on="0"/>
        <pt x="671" y="248" on="1"/>
        <pt x="714" y="465" on="1"/>
        <pt x="722" y="506" on="0"/>
        <pt x="738" y="589" on="0"/>
        <pt x="745" y="630" on="1"/>
        <pt x="741" y="629" on="0"/>
        <pt x="735" y="629" on="1"/>
        <pt x="711" y="629" on="0"/>
        <pt x="676" y="653" on="0"/>
        <pt x="656" y="679" on="1"/>
        <pt x="639" y="705" on="1"/>
        <pt x="606" y="685" on="0"/>
        <pt x="551" y="591" on="0"/>
        <pt x="534" y="495" on="1"/>
        <pt x="533" y="491" on="0"/>
        <pt x="532" y="483" on="0"/>
        <pt x="531" y="479" on="1"/>
        <pt x="656" y="479" on="1"/>
        <pt x="646" y="421" on="1"/>
        <pt x="523" y="425" on="1"/>
        <pt x="507" y="328" on="0"/>
        <pt x="478" y="133" on="0"/>
        <pt x="461" y="41" on="1"/>
        <pt x="446" y="-35" on="0"/>
        <pt x="401" y="-148" on="0"/>
        <pt x="362" y="-186" on="1"/>
        <pt x="331" y="-216" on="0"/>
        <pt x="267" y="-243" on="0"/>
        <pt x="238" y="-243" on="1"/>
        <pt x="198" y="-243" on="0"/>
        <pt x="137" y="-209" on="0"/>
        <pt x="124" y="-174" on="1"/>
        <pt x="128" y="-154" on="0"/>
        <pt x="156" y="-127" on="0"/>
        <pt x="178" y="-127" on="1"/>
        <pt x="201" y="-127" on="0"/>
        <pt x="239" y="-154" on="0"/>
        <pt x="255" y="-175" on="1"/>
        <pt x="272" y="-196" on="1"/>
        <pt x="281" y="-186" on="0"/>
        <pt x="300" y="-161" on="0"/>
        <pt x="308" y="-145" on="1"/>
        <pt x="325" y="-113" on="0"/>
        <pt x="348" y="-25" on="0"/>
        <pt x="360" y="41" on="1"/>
        <pt x="376" y="138" on="0"/>
        <pt x="403" y="327" on="0"/>
        <pt x="418" y="427" on="1"/>
        <pt x="245" y="427" on="1"/>
        <pt x="230" y="330" on="0"/>
        <pt x="200" y="133" on="0"/>
        <pt x="183" y="41" on="1"/>
        <pt x="168" y="-35" on="0"/>
        <pt x="123" y="-148" on="0"/>
        <pt x="84" y="-186" on="1"/>
        <pt x="53" y="-216" on="0"/>
        <pt x="-11" y="-243" on="0"/>
        <pt x="-40" y="-243" on="1"/>
        <pt x="-80" y="-243" on="0"/>
        <pt x="-141" y="-209" on="0"/>
        <pt x="-154" y="-174" on="1"/>
        <pt x="-150" y="-154" on="0"/>
        <pt x="-122" y="-127" on="0"/>
        <pt x="-100" y="-127" on="1"/>
        <pt x="-77" y="-127" on="0"/>
        <pt x="-39" y="-154" on="0"/>
        <pt x="-23" y="-175" on="1"/>
        <pt x="-6" y="-196" on="1"/>
        <pt x="3" y="-186" on="0"/>
        <pt x="22" y="-161" on="0"/>
        <pt x="30" y="-145" on="1"/>
        <pt x="47" y="-113" on="0"/>
        <pt x="70" y="-25" on="0"/>
        <pt x="82" y="41" on="1"/>
        <pt x="98" y="138" on="0"/>
        <pt x="125" y="327" on="0"/>
        <pt x="140" y="427" on="1"/>
        <pt x="51" y="427" on="1"/>
        <pt x="60" y="470" on="1"/>
        <pt x="149" y="479" on="1"/>
        <pt x="172" y="607" on="0"/>
        <pt x="302" y="743" on="0"/>
      </contour>
      <contour>
        <pt x="754" y="106" on="1"/>
        <pt x="754" y="82" on="0"/>
        <pt x="779" y="54" on="0"/>
        <pt x="802" y="54" on="1"/>
        <pt x="856" y="54" on="0"/>
        <pt x="906" y="111" on="1"/>
        <pt x="938" y="147" on="0"/>
        <pt x="981" y="264" on="0"/>
        <pt x="981" y="320" on="1"/>
        <pt x="981" y="364" on="0"/>
        <pt x="950" y="409" on="0"/>
        <pt x="924" y="409" on="1"/>
        <pt x="896" y="409" on="0"/>
        <pt x="832" y="366" on="0"/>
        <pt x="794" y="327" on="1"/>
        <pt x="774" y="235" on="1"/>
        <pt x="764" y="185" on="0"/>
        <pt x="754" y="130" on="0"/>
      </contour>
    </TTGlyph>
    <TTGlyph name="glyph00064" xMin="-154" yMin="-243" xMax="1055" yMax="743">
      <contour>
        <pt x="534" y="495" on="1"/>
        <pt x="533" y="491" on="0"/>
        <pt x="532" y="483" on="0"/>
        <pt x="531" y="479" on="1"/>
        <pt x="700" y="479" on="1"/>
        <pt x="704" y="479" on="1"/>
        <pt x="712" y="529" on="0"/>
        <pt x="741" y="608" on="0"/>
        <pt x="759" y="638" on="1"/>
        <pt x="749" y="629" on="0"/>
        <pt x="735" y="629" on="1"/>
        <pt x="711" y="629" on="0"/>
        <pt x="676" y="653" on="0"/>
        <pt x="656" y="679" on="1"/>
        <pt x="639" y="705" on="1"/>
        <pt x="606" y="685" on="0"/>
        <pt x="551" y="591" on="0"/>
      </contour>
      <contour>
        <pt x="933" y="743" on="1"/>
        <pt x="978" y="743" on="0"/>
        <pt x="1048" y="699" on="0"/>
        <pt x="1055" y="668" on="1"/>
        <pt x="1051" y="646" on="0"/>
        <pt x="1020" y="622" on="0"/>
        <pt x="1002" y="622" on="1"/>
        <pt x="980" y="622" on="0"/>
        <pt x="945" y="649" on="0"/>
        <pt x="925" y="676" on="1"/>
        <pt x="904" y="706" on="1"/>
        <pt x="873" y="686" on="0"/>
        <pt x="826" y="592" on="0"/>
        <pt x="811" y="495" on="1"/>
        <pt x="810" y="491" on="0"/>
        <pt x="809" y="483" on="0"/>
        <pt x="808" y="479" on="1"/>
        <pt x="933" y="479" on="1"/>
        <pt x="923" y="421" on="1"/>
        <pt x="800" y="425" on="1"/>
        <pt x="785" y="328" on="0"/>
        <pt x="755" y="133" on="0"/>
        <pt x="738" y="41" on="1"/>
        <pt x="723" y="-35" on="0"/>
        <pt x="678" y="-148" on="0"/>
        <pt x="639" y="-186" on="1"/>
        <pt x="608" y="-216" on="0"/>
        <pt x="544" y="-243" on="0"/>
        <pt x="515" y="-243" on="1"/>
        <pt x="475" y="-243" on="0"/>
        <pt x="414" y="-209" on="0"/>
        <pt x="401" y="-174" on="1"/>
        <pt x="405" y="-154" on="0"/>
        <pt x="433" y="-127" on="0"/>
        <pt x="455" y="-127" on="1"/>
        <pt x="478" y="-127" on="0"/>
        <pt x="516" y="-154" on="0"/>
        <pt x="532" y="-175" on="1"/>
        <pt x="549" y="-196" on="1"/>
        <pt x="558" y="-186" on="0"/>
        <pt x="577" y="-161" on="0"/>
        <pt x="585" y="-145" on="1"/>
        <pt x="602" y="-113" on="0"/>
        <pt x="625" y="-25" on="0"/>
        <pt x="637" y="41" on="1"/>
        <pt x="653" y="138" on="0"/>
        <pt x="681" y="327" on="0"/>
        <pt x="696" y="427" on="1"/>
        <pt x="523" y="427" on="1"/>
        <pt x="508" y="330" on="0"/>
        <pt x="478" y="133" on="0"/>
        <pt x="461" y="41" on="1"/>
        <pt x="446" y="-35" on="0"/>
        <pt x="401" y="-148" on="0"/>
        <pt x="362" y="-186" on="1"/>
        <pt x="331" y="-216" on="0"/>
        <pt x="267" y="-243" on="0"/>
        <pt x="238" y="-243" on="1"/>
        <pt x="198" y="-243" on="0"/>
        <pt x="137" y="-209" on="0"/>
        <pt x="124" y="-174" on="1"/>
        <pt x="128" y="-154" on="0"/>
        <pt x="156" y="-127" on="0"/>
        <pt x="178" y="-127" on="1"/>
        <pt x="201" y="-127" on="0"/>
        <pt x="239" y="-154" on="0"/>
        <pt x="255" y="-175" on="1"/>
        <pt x="272" y="-196" on="1"/>
        <pt x="281" y="-186" on="0"/>
        <pt x="300" y="-161" on="0"/>
        <pt x="308" y="-145" on="1"/>
        <pt x="325" y="-113" on="0"/>
        <pt x="348" y="-25" on="0"/>
        <pt x="360" y="41" on="1"/>
        <pt x="376" y="138" on="0"/>
        <pt x="403" y="327" on="0"/>
        <pt x="418" y="427" on="1"/>
        <pt x="245" y="427" on="1"/>
        <pt x="230" y="330" on="0"/>
        <pt x="200" y="133" on="0"/>
        <pt x="183" y="41" on="1"/>
        <pt x="168" y="-35" on="0"/>
        <pt x="123" y="-148" on="0"/>
        <pt x="84" y="-186" on="1"/>
        <pt x="53" y="-216" on="0"/>
        <pt x="-11" y="-243" on="0"/>
        <pt x="-40" y="-243" on="1"/>
        <pt x="-80" y="-243" on="0"/>
        <pt x="-141" y="-209" on="0"/>
        <pt x="-154" y="-174" on="1"/>
        <pt x="-150" y="-154" on="0"/>
        <pt x="-122" y="-127" on="0"/>
        <pt x="-100" y="-127" on="1"/>
        <pt x="-77" y="-127" on="0"/>
        <pt x="-39" y="-154" on="0"/>
        <pt x="-23" y="-175" on="1"/>
        <pt x="-6" y="-196" on="1"/>
        <pt x="3" y="-186" on="0"/>
        <pt x="22" y="-161" on="0"/>
        <pt x="30" y="-145" on="1"/>
        <pt x="47" y="-113" on="0"/>
        <pt x="70" y="-25" on="0"/>
        <pt x="82" y="41" on="1"/>
        <pt x="98" y="138" on="0"/>
        <pt x="125" y="327" on="0"/>
        <pt x="140" y="427" on="1"/>
        <pt x="51" y="427" on="1"/>
        <pt x="60" y="470" on="1"/>
        <pt x="149" y="479" on="1"/>
        <pt x="172" y="607" on="0"/>
        <pt x="302" y="743" on="0"/>
        <pt x="389" y="743" on="1"/>
        <pt x="433" y="743" on="0"/>
        <pt x="494" y="700" on="0"/>
        <pt x="501" y="671" on="1"/>
        <pt x="497" y="652" on="0"/>
        <pt x="472" y="629" on="0"/>
        <pt x="457" y="629" on="1"/>
        <pt x="433" y="629" on="0"/>
        <pt x="398" y="653" on="0"/>
        <pt x="378" y="679" on="1"/>
        <pt x="361" y="705" on="1"/>
        <pt x="328" y="685" on="0"/>
        <pt x="273" y="591" on="0"/>
        <pt x="256" y="495" on="1"/>
        <pt x="255" y="491" on="0"/>
        <pt x="254" y="483" on="0"/>
        <pt x="253" y="479" on="1"/>
        <pt x="423" y="479" on="1"/>
        <pt x="427" y="479" on="1"/>
        <pt x="450" y="607" on="0"/>
        <pt x="580" y="743" on="0"/>
        <pt x="667" y="743" on="1"/>
        <pt x="711" y="743" on="0"/>
        <pt x="772" y="700" on="0"/>
        <pt x="779" y="671" on="1"/>
        <pt x="778" y="669" on="0"/>
        <pt x="778" y="664" on="0"/>
        <pt x="777" y="662" on="1"/>
        <pt x="811" y="706" on="0"/>
        <pt x="893" y="743" on="0"/>
      </contour>
    </TTGlyph>
    <TTGlyph name="glyph00065" xMin="-154" yMin="-243" xMax="1145" yMax="743">
      <contour>
        <pt x="389" y="743" on="1"/>
        <pt x="433" y="743" on="0"/>
        <pt x="494" y="700" on="0"/>
        <pt x="501" y="671" on="1"/>
        <pt x="497" y="652" on="0"/>
        <pt x="472" y="629" on="0"/>
        <pt x="457" y="629" on="1"/>
        <pt x="433" y="629" on="0"/>
        <pt x="398" y="653" on="0"/>
        <pt x="378" y="679" on="1"/>
        <pt x="361" y="705" on="1"/>
        <pt x="328" y="685" on="0"/>
        <pt x="273" y="591" on="0"/>
        <pt x="256" y="495" on="1"/>
        <pt x="255" y="491" on="0"/>
        <pt x="254" y="483" on="0"/>
        <pt x="253" y="479" on="1"/>
        <pt x="423" y="479" on="1"/>
        <pt x="427" y="479" on="1"/>
        <pt x="450" y="607" on="0"/>
        <pt x="580" y="743" on="0"/>
        <pt x="667" y="743" on="1"/>
        <pt x="701" y="743" on="0"/>
        <pt x="755" y="716" on="0"/>
        <pt x="768" y="696" on="1"/>
        <pt x="866" y="730" on="1"/>
        <pt x="879" y="720" on="1"/>
        <pt x="807" y="381" on="1"/>
        <pt x="858" y="431" on="0"/>
        <pt x="969" y="493" on="0"/>
        <pt x="1015" y="493" on="1"/>
        <pt x="1047" y="493" on="0"/>
        <pt x="1085" y="455" on="0"/>
        <pt x="1085" y="417" on="1"/>
        <pt x="1085" y="395" on="0"/>
        <pt x="1077" y="348" on="0"/>
        <pt x="1071" y="324" on="1"/>
        <pt x="1025" y="137" on="1"/>
        <pt x="1021" y="120" on="0"/>
        <pt x="1014" y="94" on="0"/>
        <pt x="1014" y="86" on="1"/>
        <pt x="1014" y="66" on="0"/>
        <pt x="1032" y="66" on="1"/>
        <pt x="1065" y="66" on="0"/>
        <pt x="1118" y="133" on="1"/>
        <pt x="1145" y="113" on="1"/>
        <pt x="1126" y="82" on="0"/>
        <pt x="1069" y="23" on="0"/>
        <pt x="1001" y="-14" on="0"/>
        <pt x="962" y="-14" on="1"/>
        <pt x="933" y="-14" on="0"/>
        <pt x="900" y="14" on="0"/>
        <pt x="900" y="39" on="1"/>
        <pt x="900" y="59" on="0"/>
        <pt x="909" y="99" on="0"/>
        <pt x="916" y="126" on="1"/>
        <pt x="956" y="289" on="1"/>
        <pt x="962" y="313" on="0"/>
        <pt x="970" y="356" on="0"/>
        <pt x="970" y="370" on="1"/>
        <pt x="970" y="409" on="0"/>
        <pt x="940" y="409" on="1"/>
        <pt x="889" y="409" on="0"/>
        <pt x="800" y="333" on="1"/>
        <pt x="774" y="213" on="1"/>
        <pt x="762" y="154" on="0"/>
        <pt x="742" y="53" on="0"/>
        <pt x="734" y="0" on="1"/>
        <pt x="636" y="-8" on="1"/>
        <pt x="624" y="2" on="1"/>
        <pt x="717" y="451" on="1"/>
        <pt x="725" y="490" on="0"/>
        <pt x="742" y="586" on="0"/>
        <pt x="749" y="632" on="1"/>
        <pt x="743" y="629" on="0"/>
        <pt x="735" y="629" on="1"/>
        <pt x="711" y="629" on="0"/>
        <pt x="676" y="653" on="0"/>
        <pt x="656" y="679" on="1"/>
        <pt x="639" y="705" on="1"/>
        <pt x="606" y="685" on="0"/>
        <pt x="551" y="591" on="0"/>
        <pt x="534" y="495" on="1"/>
        <pt x="533" y="491" on="0"/>
        <pt x="532" y="483" on="0"/>
        <pt x="531" y="479" on="1"/>
        <pt x="656" y="479" on="1"/>
        <pt x="646" y="421" on="1"/>
        <pt x="523" y="425" on="1"/>
        <pt x="507" y="328" on="0"/>
        <pt x="478" y="133" on="0"/>
        <pt x="461" y="41" on="1"/>
        <pt x="446" y="-35" on="0"/>
        <pt x="401" y="-148" on="0"/>
        <pt x="362" y="-186" on="1"/>
        <pt x="331" y="-216" on="0"/>
        <pt x="267" y="-243" on="0"/>
        <pt x="238" y="-243" on="1"/>
        <pt x="198" y="-243" on="0"/>
        <pt x="137" y="-209" on="0"/>
        <pt x="124" y="-174" on="1"/>
        <pt x="128" y="-154" on="0"/>
        <pt x="156" y="-127" on="0"/>
        <pt x="178" y="-127" on="1"/>
        <pt x="201" y="-127" on="0"/>
        <pt x="239" y="-154" on="0"/>
        <pt x="255" y="-175" on="1"/>
        <pt x="272" y="-196" on="1"/>
        <pt x="281" y="-186" on="0"/>
        <pt x="300" y="-161" on="0"/>
        <pt x="308" y="-145" on="1"/>
        <pt x="325" y="-113" on="0"/>
        <pt x="348" y="-25" on="0"/>
        <pt x="360" y="41" on="1"/>
        <pt x="376" y="138" on="0"/>
        <pt x="403" y="327" on="0"/>
        <pt x="418" y="427" on="1"/>
        <pt x="245" y="427" on="1"/>
        <pt x="230" y="330" on="0"/>
        <pt x="200" y="133" on="0"/>
        <pt x="183" y="41" on="1"/>
        <pt x="168" y="-35" on="0"/>
        <pt x="123" y="-148" on="0"/>
        <pt x="84" y="-186" on="1"/>
        <pt x="53" y="-216" on="0"/>
        <pt x="-11" y="-243" on="0"/>
        <pt x="-40" y="-243" on="1"/>
        <pt x="-80" y="-243" on="0"/>
        <pt x="-141" y="-209" on="0"/>
        <pt x="-154" y="-174" on="1"/>
        <pt x="-150" y="-154" on="0"/>
        <pt x="-122" y="-127" on="0"/>
        <pt x="-100" y="-127" on="1"/>
        <pt x="-77" y="-127" on="0"/>
        <pt x="-39" y="-154" on="0"/>
        <pt x="-23" y="-175" on="1"/>
        <pt x="-6" y="-196" on="1"/>
        <pt x="3" y="-186" on="0"/>
        <pt x="22" y="-161" on="0"/>
        <pt x="30" y="-145" on="1"/>
        <pt x="47" y="-113" on="0"/>
        <pt x="70" y="-25" on="0"/>
        <pt x="82" y="41" on="1"/>
        <pt x="98" y="138" on="0"/>
        <pt x="125" y="327" on="0"/>
        <pt x="140" y="427" on="1"/>
        <pt x="51" y="427" on="1"/>
        <pt x="60" y="470" on="1"/>
        <pt x="149" y="479" on="1"/>
        <pt x="172" y="607" on="0"/>
        <pt x="302" y="743" on="0"/>
      </contour>
    </TTGlyph>
    <TTGlyph name="glyph00066" xMin="-154" yMin="-243" xMax="878" yMax="743">
      <contour>
        <pt x="389" y="743" on="1"/>
        <pt x="433" y="743" on="0"/>
        <pt x="494" y="700" on="0"/>
        <pt x="501" y="671" on="1"/>
        <pt x="497" y="652" on="0"/>
        <pt x="472" y="629" on="0"/>
        <pt x="457" y="629" on="1"/>
        <pt x="433" y="629" on="0"/>
        <pt x="398" y="653" on="0"/>
        <pt x="378" y="679" on="1"/>
        <pt x="361" y="705" on="1"/>
        <pt x="328" y="685" on="0"/>
        <pt x="273" y="591" on="0"/>
        <pt x="256" y="495" on="1"/>
        <pt x="255" y="491" on="0"/>
        <pt x="254" y="483" on="0"/>
        <pt x="253" y="479" on="1"/>
        <pt x="423" y="479" on="1"/>
        <pt x="427" y="479" on="1"/>
        <pt x="450" y="607" on="0"/>
        <pt x="594" y="743" on="0"/>
        <pt x="704" y="743" on="1"/>
        <pt x="761" y="743" on="0"/>
        <pt x="835" y="697" on="0"/>
        <pt x="844" y="665" on="1"/>
        <pt x="835" y="620" on="0"/>
        <pt x="792" y="620" on="1"/>
        <pt x="767" y="620" on="0"/>
        <pt x="733" y="648" on="0"/>
        <pt x="713" y="675" on="1"/>
        <pt x="693" y="703" on="1"/>
        <pt x="637" y="696" on="0"/>
        <pt x="550" y="593" on="0"/>
        <pt x="533" y="489" on="1"/>
        <pt x="532" y="487" on="0"/>
        <pt x="532" y="481" on="0"/>
        <pt x="531" y="479" on="1"/>
        <pt x="754" y="479" on="1"/>
        <pt x="814" y="494" on="1"/>
        <pt x="828" y="482" on="1"/>
        <pt x="755" y="137" on="1"/>
        <pt x="747" y="103" on="0"/>
        <pt x="747" y="87" on="1"/>
        <pt x="747" y="77" on="0"/>
        <pt x="759" y="66" on="0"/>
        <pt x="767" y="66" on="1"/>
        <pt x="796" y="66" on="0"/>
        <pt x="851" y="133" on="1"/>
        <pt x="878" y="113" on="1"/>
        <pt x="857" y="82" on="0"/>
        <pt x="804" y="23" on="0"/>
        <pt x="739" y="-14" on="0"/>
        <pt x="700" y="-14" on="1"/>
        <pt x="672" y="-14" on="0"/>
        <pt x="635" y="16" on="0"/>
        <pt x="635" y="45" on="1"/>
        <pt x="635" y="78" on="0"/>
        <pt x="647" y="130" on="1"/>
        <pt x="708" y="422" on="1"/>
        <pt x="523" y="426" on="1"/>
        <pt x="509" y="331" on="0"/>
        <pt x="478" y="133" on="0"/>
        <pt x="461" y="41" on="1"/>
        <pt x="446" y="-35" on="0"/>
        <pt x="401" y="-148" on="0"/>
        <pt x="362" y="-186" on="1"/>
        <pt x="331" y="-216" on="0"/>
        <pt x="267" y="-243" on="0"/>
        <pt x="238" y="-243" on="1"/>
        <pt x="198" y="-243" on="0"/>
        <pt x="137" y="-209" on="0"/>
        <pt x="124" y="-174" on="1"/>
        <pt x="128" y="-154" on="0"/>
        <pt x="156" y="-127" on="0"/>
        <pt x="178" y="-127" on="1"/>
        <pt x="201" y="-127" on="0"/>
        <pt x="239" y="-154" on="0"/>
        <pt x="255" y="-175" on="1"/>
        <pt x="272" y="-196" on="1"/>
        <pt x="281" y="-186" on="0"/>
        <pt x="300" y="-161" on="0"/>
        <pt x="308" y="-145" on="1"/>
        <pt x="325" y="-113" on="0"/>
        <pt x="348" y="-25" on="0"/>
        <pt x="360" y="41" on="1"/>
        <pt x="376" y="138" on="0"/>
        <pt x="403" y="327" on="0"/>
        <pt x="419" y="427" on="1"/>
        <pt x="245" y="427" on="1"/>
        <pt x="230" y="330" on="0"/>
        <pt x="200" y="133" on="0"/>
        <pt x="183" y="41" on="1"/>
        <pt x="168" y="-35" on="0"/>
        <pt x="123" y="-148" on="0"/>
        <pt x="84" y="-186" on="1"/>
        <pt x="53" y="-216" on="0"/>
        <pt x="-11" y="-243" on="0"/>
        <pt x="-40" y="-243" on="1"/>
        <pt x="-80" y="-243" on="0"/>
        <pt x="-141" y="-209" on="0"/>
        <pt x="-154" y="-174" on="1"/>
        <pt x="-150" y="-154" on="0"/>
        <pt x="-122" y="-127" on="0"/>
        <pt x="-100" y="-127" on="1"/>
        <pt x="-77" y="-127" on="0"/>
        <pt x="-39" y="-154" on="0"/>
        <pt x="-23" y="-175" on="1"/>
        <pt x="-6" y="-196" on="1"/>
        <pt x="3" y="-186" on="0"/>
        <pt x="22" y="-161" on="0"/>
        <pt x="30" y="-145" on="1"/>
        <pt x="47" y="-113" on="0"/>
        <pt x="70" y="-25" on="0"/>
        <pt x="82" y="41" on="1"/>
        <pt x="98" y="138" on="0"/>
        <pt x="125" y="327" on="0"/>
        <pt x="140" y="427" on="1"/>
        <pt x="51" y="427" on="1"/>
        <pt x="60" y="470" on="1"/>
        <pt x="149" y="479" on="1"/>
        <pt x="172" y="607" on="0"/>
        <pt x="302" y="743" on="0"/>
      </contour>
    </TTGlyph>
    <TTGlyph name="glyph00067" xMin="-154" yMin="-243" xMax="844" yMax="743">
      <contour>
        <pt x="389" y="743" on="1"/>
        <pt x="433" y="743" on="0"/>
        <pt x="494" y="700" on="0"/>
        <pt x="501" y="671" on="1"/>
        <pt x="497" y="652" on="0"/>
        <pt x="472" y="629" on="0"/>
        <pt x="457" y="629" on="1"/>
        <pt x="433" y="629" on="0"/>
        <pt x="398" y="653" on="0"/>
        <pt x="378" y="679" on="1"/>
        <pt x="361" y="705" on="1"/>
        <pt x="328" y="685" on="0"/>
        <pt x="273" y="591" on="0"/>
        <pt x="256" y="495" on="1"/>
        <pt x="255" y="491" on="0"/>
        <pt x="254" y="483" on="0"/>
        <pt x="253" y="479" on="1"/>
        <pt x="423" y="479" on="1"/>
        <pt x="427" y="479" on="1"/>
        <pt x="450" y="607" on="0"/>
        <pt x="594" y="743" on="0"/>
        <pt x="704" y="743" on="1"/>
        <pt x="761" y="743" on="0"/>
        <pt x="835" y="698" on="0"/>
        <pt x="844" y="666" on="1"/>
        <pt x="835" y="622" on="0"/>
        <pt x="794" y="622" on="1"/>
        <pt x="769" y="622" on="0"/>
        <pt x="736" y="650" on="0"/>
        <pt x="715" y="676" on="1"/>
        <pt x="694" y="703" on="1"/>
        <pt x="638" y="697" on="0"/>
        <pt x="550" y="593" on="0"/>
        <pt x="533" y="489" on="1"/>
        <pt x="532" y="487" on="0"/>
        <pt x="532" y="481" on="0"/>
        <pt x="531" y="479" on="1"/>
        <pt x="754" y="479" on="1"/>
        <pt x="811" y="494" on="1"/>
        <pt x="826" y="481" on="1"/>
        <pt x="740" y="43" on="1"/>
        <pt x="710" y="-104" on="0"/>
        <pt x="633" y="-177" on="1"/>
        <pt x="607" y="-204" on="0"/>
        <pt x="538" y="-238" on="0"/>
        <pt x="496" y="-242" on="1"/>
        <pt x="488" y="-212" on="1"/>
        <pt x="514" y="-201" on="0"/>
        <pt x="551" y="-177" on="0"/>
        <pt x="566" y="-157" on="1"/>
        <pt x="587" y="-128" on="0"/>
        <pt x="620" y="-36" on="0"/>
        <pt x="636" y="49" on="1"/>
        <pt x="707" y="422" on="1"/>
        <pt x="523" y="426" on="1"/>
        <pt x="509" y="331" on="0"/>
        <pt x="478" y="133" on="0"/>
        <pt x="461" y="41" on="1"/>
        <pt x="446" y="-35" on="0"/>
        <pt x="401" y="-148" on="0"/>
        <pt x="362" y="-186" on="1"/>
        <pt x="331" y="-216" on="0"/>
        <pt x="267" y="-243" on="0"/>
        <pt x="238" y="-243" on="1"/>
        <pt x="198" y="-243" on="0"/>
        <pt x="137" y="-209" on="0"/>
        <pt x="124" y="-174" on="1"/>
        <pt x="128" y="-154" on="0"/>
        <pt x="156" y="-127" on="0"/>
        <pt x="178" y="-127" on="1"/>
        <pt x="201" y="-127" on="0"/>
        <pt x="239" y="-154" on="0"/>
        <pt x="255" y="-175" on="1"/>
        <pt x="272" y="-196" on="1"/>
        <pt x="281" y="-186" on="0"/>
        <pt x="300" y="-161" on="0"/>
        <pt x="308" y="-145" on="1"/>
        <pt x="325" y="-113" on="0"/>
        <pt x="348" y="-25" on="0"/>
        <pt x="360" y="41" on="1"/>
        <pt x="376" y="138" on="0"/>
        <pt x="403" y="327" on="0"/>
        <pt x="419" y="427" on="1"/>
        <pt x="245" y="427" on="1"/>
        <pt x="230" y="330" on="0"/>
        <pt x="200" y="133" on="0"/>
        <pt x="183" y="41" on="1"/>
        <pt x="168" y="-35" on="0"/>
        <pt x="123" y="-148" on="0"/>
        <pt x="84" y="-186" on="1"/>
        <pt x="53" y="-216" on="0"/>
        <pt x="-11" y="-243" on="0"/>
        <pt x="-40" y="-243" on="1"/>
        <pt x="-80" y="-243" on="0"/>
        <pt x="-141" y="-209" on="0"/>
        <pt x="-154" y="-174" on="1"/>
        <pt x="-150" y="-154" on="0"/>
        <pt x="-122" y="-127" on="0"/>
        <pt x="-100" y="-127" on="1"/>
        <pt x="-77" y="-127" on="0"/>
        <pt x="-39" y="-154" on="0"/>
        <pt x="-23" y="-175" on="1"/>
        <pt x="-6" y="-196" on="1"/>
        <pt x="3" y="-186" on="0"/>
        <pt x="22" y="-161" on="0"/>
        <pt x="30" y="-145" on="1"/>
        <pt x="47" y="-113" on="0"/>
        <pt x="70" y="-25" on="0"/>
        <pt x="82" y="41" on="1"/>
        <pt x="98" y="138" on="0"/>
        <pt x="125" y="327" on="0"/>
        <pt x="140" y="427" on="1"/>
        <pt x="51" y="427" on="1"/>
        <pt x="60" y="470" on="1"/>
        <pt x="149" y="479" on="1"/>
        <pt x="172" y="607" on="0"/>
        <pt x="302" y="743" on="0"/>
      </contour>
    </TTGlyph>
    <TTGlyph name="glyph00068" xMin="-154" yMin="-243" xMax="1093" yMax="743">
      <contour>
        <pt x="389" y="743" on="1"/>
        <pt x="433" y="743" on="0"/>
        <pt x="494" y="700" on="0"/>
        <pt x="501" y="671" on="1"/>
        <pt x="497" y="652" on="0"/>
        <pt x="472" y="629" on="0"/>
        <pt x="457" y="629" on="1"/>
        <pt x="433" y="629" on="0"/>
        <pt x="398" y="653" on="0"/>
        <pt x="378" y="679" on="1"/>
        <pt x="361" y="705" on="1"/>
        <pt x="328" y="685" on="0"/>
        <pt x="273" y="591" on="0"/>
        <pt x="256" y="495" on="1"/>
        <pt x="255" y="491" on="0"/>
        <pt x="254" y="483" on="0"/>
        <pt x="253" y="479" on="1"/>
        <pt x="423" y="479" on="1"/>
        <pt x="427" y="479" on="1"/>
        <pt x="450" y="607" on="0"/>
        <pt x="580" y="743" on="0"/>
        <pt x="667" y="743" on="1"/>
        <pt x="701" y="743" on="0"/>
        <pt x="755" y="716" on="0"/>
        <pt x="768" y="695" on="1"/>
        <pt x="867" y="730" on="1"/>
        <pt x="877" y="720" on="1"/>
        <pt x="787" y="282" on="1"/>
        <pt x="1041" y="488" on="1"/>
        <pt x="1064" y="485" on="0"/>
        <pt x="1093" y="453" on="0"/>
        <pt x="1093" y="431" on="1"/>
        <pt x="1093" y="409" on="0"/>
        <pt x="1058" y="379" on="0"/>
        <pt x="1020" y="364" on="1"/>
        <pt x="793" y="261" on="1"/>
        <pt x="826" y="257" on="1"/>
        <pt x="872" y="250" on="0"/>
        <pt x="932" y="201" on="0"/>
        <pt x="950" y="159" on="1"/>
        <pt x="979" y="92" on="1"/>
        <pt x="993" y="61" on="0"/>
        <pt x="1020" y="38" on="0"/>
        <pt x="1040" y="36" on="1"/>
        <pt x="1081" y="32" on="1"/>
        <pt x="1075" y="0" on="1"/>
        <pt x="1034" y="-14" on="0"/>
        <pt x="992" y="-14" on="1"/>
        <pt x="951" y="-14" on="0"/>
        <pt x="892" y="20" on="0"/>
        <pt x="872" y="75" on="1"/>
        <pt x="841" y="158" on="1"/>
        <pt x="825" y="199" on="0"/>
        <pt x="801" y="232" on="0"/>
        <pt x="778" y="239" on="1"/>
        <pt x="773" y="213" on="1"/>
        <pt x="761" y="154" on="0"/>
        <pt x="743" y="53" on="0"/>
        <pt x="734" y="0" on="1"/>
        <pt x="636" y="-8" on="1"/>
        <pt x="624" y="2" on="1"/>
        <pt x="716" y="451" on="1"/>
        <pt x="724" y="492" on="0"/>
        <pt x="743" y="583" on="0"/>
        <pt x="750" y="632" on="1"/>
        <pt x="743" y="629" on="0"/>
        <pt x="735" y="629" on="1"/>
        <pt x="711" y="629" on="0"/>
        <pt x="676" y="653" on="0"/>
        <pt x="656" y="679" on="1"/>
        <pt x="639" y="705" on="1"/>
        <pt x="606" y="685" on="0"/>
        <pt x="551" y="591" on="0"/>
        <pt x="534" y="495" on="1"/>
        <pt x="533" y="491" on="0"/>
        <pt x="532" y="483" on="0"/>
        <pt x="531" y="479" on="1"/>
        <pt x="656" y="479" on="1"/>
        <pt x="646" y="421" on="1"/>
        <pt x="523" y="425" on="1"/>
        <pt x="507" y="328" on="0"/>
        <pt x="478" y="133" on="0"/>
        <pt x="461" y="41" on="1"/>
        <pt x="446" y="-35" on="0"/>
        <pt x="401" y="-148" on="0"/>
        <pt x="362" y="-186" on="1"/>
        <pt x="331" y="-216" on="0"/>
        <pt x="267" y="-243" on="0"/>
        <pt x="238" y="-243" on="1"/>
        <pt x="198" y="-243" on="0"/>
        <pt x="137" y="-209" on="0"/>
        <pt x="124" y="-174" on="1"/>
        <pt x="128" y="-154" on="0"/>
        <pt x="156" y="-127" on="0"/>
        <pt x="178" y="-127" on="1"/>
        <pt x="201" y="-127" on="0"/>
        <pt x="239" y="-154" on="0"/>
        <pt x="255" y="-175" on="1"/>
        <pt x="272" y="-196" on="1"/>
        <pt x="281" y="-186" on="0"/>
        <pt x="300" y="-161" on="0"/>
        <pt x="308" y="-145" on="1"/>
        <pt x="325" y="-113" on="0"/>
        <pt x="348" y="-25" on="0"/>
        <pt x="360" y="41" on="1"/>
        <pt x="376" y="138" on="0"/>
        <pt x="403" y="327" on="0"/>
        <pt x="418" y="427" on="1"/>
        <pt x="245" y="427" on="1"/>
        <pt x="230" y="330" on="0"/>
        <pt x="200" y="133" on="0"/>
        <pt x="183" y="41" on="1"/>
        <pt x="168" y="-35" on="0"/>
        <pt x="123" y="-148" on="0"/>
        <pt x="84" y="-186" on="1"/>
        <pt x="53" y="-216" on="0"/>
        <pt x="-11" y="-243" on="0"/>
        <pt x="-40" y="-243" on="1"/>
        <pt x="-80" y="-243" on="0"/>
        <pt x="-141" y="-209" on="0"/>
        <pt x="-154" y="-174" on="1"/>
        <pt x="-150" y="-154" on="0"/>
        <pt x="-122" y="-127" on="0"/>
        <pt x="-100" y="-127" on="1"/>
        <pt x="-77" y="-127" on="0"/>
        <pt x="-39" y="-154" on="0"/>
        <pt x="-23" y="-175" on="1"/>
        <pt x="-6" y="-196" on="1"/>
        <pt x="3" y="-186" on="0"/>
        <pt x="22" y="-161" on="0"/>
        <pt x="30" y="-145" on="1"/>
        <pt x="47" y="-113" on="0"/>
        <pt x="70" y="-25" on="0"/>
        <pt x="82" y="41" on="1"/>
        <pt x="98" y="138" on="0"/>
        <pt x="125" y="327" on="0"/>
        <pt x="140" y="427" on="1"/>
        <pt x="51" y="427" on="1"/>
        <pt x="60" y="470" on="1"/>
        <pt x="149" y="479" on="1"/>
        <pt x="172" y="607" on="0"/>
        <pt x="302" y="743" on="0"/>
      </contour>
    </TTGlyph>
    <TTGlyph name="glyph00069" xMin="-154" yMin="-243" xMax="881" yMax="743">
      <contour>
        <pt x="389" y="743" on="1"/>
        <pt x="433" y="743" on="0"/>
        <pt x="494" y="700" on="0"/>
        <pt x="501" y="671" on="1"/>
        <pt x="497" y="652" on="0"/>
        <pt x="472" y="629" on="0"/>
        <pt x="457" y="629" on="1"/>
        <pt x="433" y="629" on="0"/>
        <pt x="398" y="653" on="0"/>
        <pt x="378" y="679" on="1"/>
        <pt x="361" y="705" on="1"/>
        <pt x="328" y="685" on="0"/>
        <pt x="273" y="591" on="0"/>
        <pt x="256" y="495" on="1"/>
        <pt x="255" y="491" on="0"/>
        <pt x="254" y="483" on="0"/>
        <pt x="253" y="479" on="1"/>
        <pt x="423" y="479" on="1"/>
        <pt x="427" y="479" on="1"/>
        <pt x="450" y="607" on="0"/>
        <pt x="580" y="743" on="0"/>
        <pt x="667" y="743" on="1"/>
        <pt x="701" y="743" on="0"/>
        <pt x="754" y="716" on="0"/>
        <pt x="768" y="696" on="1"/>
        <pt x="865" y="730" on="1"/>
        <pt x="878" y="720" on="1"/>
        <pt x="758" y="138" on="1"/>
        <pt x="750" y="103" on="0"/>
        <pt x="750" y="88" on="1"/>
        <pt x="750" y="77" on="0"/>
        <pt x="763" y="66" on="0"/>
        <pt x="771" y="66" on="1"/>
        <pt x="799" y="66" on="0"/>
        <pt x="854" y="133" on="1"/>
        <pt x="881" y="113" on="1"/>
        <pt x="861" y="82" on="0"/>
        <pt x="808" y="23" on="0"/>
        <pt x="744" y="-14" on="0"/>
        <pt x="705" y="-14" on="1"/>
        <pt x="676" y="-14" on="0"/>
        <pt x="639" y="18" on="0"/>
        <pt x="639" y="49" on="1"/>
        <pt x="639" y="64" on="0"/>
        <pt x="646" y="108" on="0"/>
        <pt x="653" y="143" on="1"/>
        <pt x="715" y="451" on="1"/>
        <pt x="723" y="492" on="0"/>
        <pt x="741" y="582" on="0"/>
        <pt x="748" y="631" on="1"/>
        <pt x="740" y="629" on="0"/>
        <pt x="735" y="629" on="1"/>
        <pt x="711" y="629" on="0"/>
        <pt x="676" y="653" on="0"/>
        <pt x="656" y="679" on="1"/>
        <pt x="639" y="705" on="1"/>
        <pt x="606" y="685" on="0"/>
        <pt x="551" y="591" on="0"/>
        <pt x="534" y="495" on="1"/>
        <pt x="533" y="491" on="0"/>
        <pt x="532" y="483" on="0"/>
        <pt x="531" y="479" on="1"/>
        <pt x="656" y="479" on="1"/>
        <pt x="646" y="421" on="1"/>
        <pt x="523" y="425" on="1"/>
        <pt x="507" y="328" on="0"/>
        <pt x="478" y="133" on="0"/>
        <pt x="461" y="41" on="1"/>
        <pt x="446" y="-35" on="0"/>
        <pt x="401" y="-148" on="0"/>
        <pt x="362" y="-186" on="1"/>
        <pt x="331" y="-216" on="0"/>
        <pt x="267" y="-243" on="0"/>
        <pt x="238" y="-243" on="1"/>
        <pt x="198" y="-243" on="0"/>
        <pt x="137" y="-209" on="0"/>
        <pt x="124" y="-174" on="1"/>
        <pt x="128" y="-154" on="0"/>
        <pt x="156" y="-127" on="0"/>
        <pt x="178" y="-127" on="1"/>
        <pt x="201" y="-127" on="0"/>
        <pt x="239" y="-154" on="0"/>
        <pt x="255" y="-175" on="1"/>
        <pt x="272" y="-196" on="1"/>
        <pt x="281" y="-186" on="0"/>
        <pt x="300" y="-161" on="0"/>
        <pt x="308" y="-145" on="1"/>
        <pt x="325" y="-113" on="0"/>
        <pt x="348" y="-25" on="0"/>
        <pt x="360" y="41" on="1"/>
        <pt x="376" y="138" on="0"/>
        <pt x="403" y="327" on="0"/>
        <pt x="418" y="427" on="1"/>
        <pt x="245" y="427" on="1"/>
        <pt x="230" y="330" on="0"/>
        <pt x="200" y="133" on="0"/>
        <pt x="183" y="41" on="1"/>
        <pt x="168" y="-35" on="0"/>
        <pt x="123" y="-148" on="0"/>
        <pt x="84" y="-186" on="1"/>
        <pt x="53" y="-216" on="0"/>
        <pt x="-11" y="-243" on="0"/>
        <pt x="-40" y="-243" on="1"/>
        <pt x="-80" y="-243" on="0"/>
        <pt x="-141" y="-209" on="0"/>
        <pt x="-154" y="-174" on="1"/>
        <pt x="-150" y="-154" on="0"/>
        <pt x="-122" y="-127" on="0"/>
        <pt x="-100" y="-127" on="1"/>
        <pt x="-77" y="-127" on="0"/>
        <pt x="-39" y="-154" on="0"/>
        <pt x="-23" y="-175" on="1"/>
        <pt x="-6" y="-196" on="1"/>
        <pt x="3" y="-186" on="0"/>
        <pt x="22" y="-161" on="0"/>
        <pt x="30" y="-145" on="1"/>
        <pt x="47" y="-113" on="0"/>
        <pt x="70" y="-25" on="0"/>
        <pt x="82" y="41" on="1"/>
        <pt x="98" y="138" on="0"/>
        <pt x="125" y="327" on="0"/>
        <pt x="140" y="427" on="1"/>
        <pt x="51" y="427" on="1"/>
        <pt x="60" y="470" on="1"/>
        <pt x="149" y="479" on="1"/>
        <pt x="172" y="607" on="0"/>
        <pt x="302" y="743" on="0"/>
      </contour>
    </TTGlyph>
    <TTGlyph name="glyph00070" xMin="-154" yMin="-243" xMax="934" yMax="743">
      <contour>
        <pt x="389" y="743" on="1"/>
        <pt x="433" y="743" on="0"/>
        <pt x="494" y="700" on="0"/>
        <pt x="501" y="671" on="1"/>
        <pt x="497" y="652" on="0"/>
        <pt x="472" y="629" on="0"/>
        <pt x="457" y="629" on="1"/>
        <pt x="433" y="629" on="0"/>
        <pt x="398" y="653" on="0"/>
        <pt x="378" y="679" on="1"/>
        <pt x="361" y="705" on="1"/>
        <pt x="328" y="685" on="0"/>
        <pt x="273" y="591" on="0"/>
        <pt x="256" y="495" on="1"/>
        <pt x="255" y="491" on="0"/>
        <pt x="254" y="483" on="0"/>
        <pt x="253" y="479" on="1"/>
        <pt x="423" y="479" on="1"/>
        <pt x="427" y="479" on="1"/>
        <pt x="450" y="607" on="0"/>
        <pt x="580" y="743" on="0"/>
        <pt x="667" y="743" on="1"/>
        <pt x="711" y="743" on="0"/>
        <pt x="772" y="700" on="0"/>
        <pt x="779" y="671" on="1"/>
        <pt x="775" y="652" on="0"/>
        <pt x="750" y="629" on="0"/>
        <pt x="735" y="629" on="1"/>
        <pt x="711" y="629" on="0"/>
        <pt x="676" y="653" on="0"/>
        <pt x="656" y="679" on="1"/>
        <pt x="639" y="705" on="1"/>
        <pt x="606" y="685" on="0"/>
        <pt x="551" y="591" on="0"/>
        <pt x="534" y="495" on="1"/>
        <pt x="533" y="491" on="0"/>
        <pt x="532" y="483" on="0"/>
        <pt x="531" y="479" on="1"/>
        <pt x="710" y="479" on="1"/>
        <pt x="720" y="480" on="1"/>
        <pt x="776" y="615" on="1"/>
        <pt x="848" y="615" on="1"/>
        <pt x="819" y="479" on="1"/>
        <pt x="934" y="479" on="1"/>
        <pt x="925" y="420" on="1"/>
        <pt x="808" y="424" on="1"/>
        <pt x="748" y="138" on="1"/>
        <pt x="740" y="103" on="0"/>
        <pt x="740" y="88" on="1"/>
        <pt x="740" y="77" on="0"/>
        <pt x="753" y="66" on="0"/>
        <pt x="761" y="66" on="1"/>
        <pt x="792" y="66" on="0"/>
        <pt x="847" y="133" on="1"/>
        <pt x="874" y="113" on="1"/>
        <pt x="854" y="82" on="0"/>
        <pt x="799" y="23" on="0"/>
        <pt x="732" y="-14" on="0"/>
        <pt x="694" y="-14" on="1"/>
        <pt x="666" y="-14" on="0"/>
        <pt x="628" y="16" on="0"/>
        <pt x="628" y="46" on="1"/>
        <pt x="628" y="62" on="0"/>
        <pt x="634" y="104" on="0"/>
        <pt x="639" y="132" on="1"/>
        <pt x="703" y="426" on="1"/>
        <pt x="614" y="426" on="1"/>
        <pt x="614" y="427" on="1"/>
        <pt x="523" y="427" on="1"/>
        <pt x="508" y="330" on="0"/>
        <pt x="478" y="133" on="0"/>
        <pt x="461" y="41" on="1"/>
        <pt x="446" y="-35" on="0"/>
        <pt x="401" y="-148" on="0"/>
        <pt x="362" y="-186" on="1"/>
        <pt x="331" y="-216" on="0"/>
        <pt x="267" y="-243" on="0"/>
        <pt x="238" y="-243" on="1"/>
        <pt x="198" y="-243" on="0"/>
        <pt x="137" y="-209" on="0"/>
        <pt x="124" y="-174" on="1"/>
        <pt x="128" y="-154" on="0"/>
        <pt x="156" y="-127" on="0"/>
        <pt x="178" y="-127" on="1"/>
        <pt x="201" y="-127" on="0"/>
        <pt x="239" y="-154" on="0"/>
        <pt x="255" y="-175" on="1"/>
        <pt x="272" y="-196" on="1"/>
        <pt x="281" y="-186" on="0"/>
        <pt x="300" y="-161" on="0"/>
        <pt x="308" y="-145" on="1"/>
        <pt x="325" y="-113" on="0"/>
        <pt x="348" y="-25" on="0"/>
        <pt x="360" y="41" on="1"/>
        <pt x="376" y="138" on="0"/>
        <pt x="403" y="327" on="0"/>
        <pt x="418" y="427" on="1"/>
        <pt x="245" y="427" on="1"/>
        <pt x="230" y="330" on="0"/>
        <pt x="200" y="133" on="0"/>
        <pt x="183" y="41" on="1"/>
        <pt x="168" y="-35" on="0"/>
        <pt x="123" y="-148" on="0"/>
        <pt x="84" y="-186" on="1"/>
        <pt x="53" y="-216" on="0"/>
        <pt x="-11" y="-243" on="0"/>
        <pt x="-40" y="-243" on="1"/>
        <pt x="-80" y="-243" on="0"/>
        <pt x="-141" y="-209" on="0"/>
        <pt x="-154" y="-174" on="1"/>
        <pt x="-150" y="-154" on="0"/>
        <pt x="-122" y="-127" on="0"/>
        <pt x="-100" y="-127" on="1"/>
        <pt x="-77" y="-127" on="0"/>
        <pt x="-39" y="-154" on="0"/>
        <pt x="-23" y="-175" on="1"/>
        <pt x="-6" y="-196" on="1"/>
        <pt x="3" y="-186" on="0"/>
        <pt x="22" y="-161" on="0"/>
        <pt x="30" y="-145" on="1"/>
        <pt x="47" y="-113" on="0"/>
        <pt x="70" y="-25" on="0"/>
        <pt x="82" y="41" on="1"/>
        <pt x="98" y="138" on="0"/>
        <pt x="125" y="327" on="0"/>
        <pt x="140" y="427" on="1"/>
        <pt x="51" y="427" on="1"/>
        <pt x="60" y="470" on="1"/>
        <pt x="149" y="479" on="1"/>
        <pt x="172" y="607" on="0"/>
        <pt x="302" y="743" on="0"/>
      </contour>
    </TTGlyph>
    <TTGlyph name="glyph00082" xMin="55" yMin="-12" xMax="531" yMax="650">
      <contour>
        <pt x="237" y="-12" on="1"/>
        <pt x="153" y="-12" on="0"/>
        <pt x="55" y="100" on="0"/>
        <pt x="55" y="206" on="1"/>
        <pt x="55" y="301" on="0"/>
        <pt x="102" y="462" on="0"/>
        <pt x="184" y="583" on="0"/>
        <pt x="291" y="650" on="0"/>
        <pt x="350" y="650" on="1"/>
        <pt x="433" y="650" on="0"/>
        <pt x="531" y="539" on="0"/>
        <pt x="531" y="427" on="1"/>
        <pt x="531" y="333" on="0"/>
        <pt x="483" y="172" on="0"/>
        <pt x="399" y="54" on="0"/>
        <pt x="294" y="-12" on="0"/>
      </contour>
      <contour>
        <pt x="243" y="36" on="1"/>
        <pt x="276" y="36" on="0"/>
        <pt x="341" y="105" on="0"/>
        <pt x="393" y="223" on="0"/>
        <pt x="424" y="370" on="0"/>
        <pt x="424" y="447" on="1"/>
        <pt x="424" y="507" on="0"/>
        <pt x="402" y="574" on="0"/>
        <pt x="367" y="602" on="0"/>
        <pt x="346" y="602" on="1"/>
        <pt x="313" y="602" on="0"/>
        <pt x="248" y="537" on="0"/>
        <pt x="195" y="424" on="0"/>
        <pt x="163" y="278" on="0"/>
        <pt x="163" y="198" on="1"/>
        <pt x="163" y="135" on="0"/>
        <pt x="183" y="64" on="0"/>
        <pt x="219" y="36" on="0"/>
      </contour>
    </TTGlyph>
    <TTGlyph name="glyph00083" xMin="41" yMin="0" xMax="519" yMax="653">
      <contour>
        <pt x="41" y="0" on="1"/>
        <pt x="56" y="74" on="1"/>
        <pt x="202" y="208" on="1"/>
        <pt x="281" y="281" on="0"/>
        <pt x="371" y="381" on="0"/>
        <pt x="410" y="460" on="0"/>
        <pt x="410" y="499" on="1"/>
        <pt x="410" y="551" on="0"/>
        <pt x="356" y="602" on="0"/>
        <pt x="309" y="602" on="1"/>
        <pt x="291" y="602" on="0"/>
        <pt x="257" y="597" on="0"/>
        <pt x="240" y="590" on="1"/>
        <pt x="235" y="525" on="1"/>
        <pt x="231" y="475" on="0"/>
        <pt x="200" y="440" on="0"/>
        <pt x="175" y="440" on="1"/>
        <pt x="155" y="440" on="0"/>
        <pt x="129" y="467" on="0"/>
        <pt x="127" y="490" on="1"/>
        <pt x="147" y="579" on="0"/>
        <pt x="260" y="653" on="0"/>
        <pt x="342" y="653" on="1"/>
        <pt x="433" y="653" on="0"/>
        <pt x="519" y="566" on="0"/>
        <pt x="519" y="500" on="1"/>
        <pt x="519" y="444" on="0"/>
        <pt x="455" y="353" on="0"/>
        <pt x="334" y="253" on="0"/>
        <pt x="249" y="183" on="1"/>
        <pt x="147" y="99" on="1"/>
        <pt x="463" y="99" on="1"/>
        <pt x="442" y="0" on="1"/>
      </contour>
    </TTGlyph>
    <TTGlyph name="glyph00084" xMin="51" yMin="-14" xMax="505" yMax="653">
      <contour>
        <pt x="232" y="-14" on="1"/>
        <pt x="150" y="-14" on="0"/>
        <pt x="51" y="65" on="0"/>
        <pt x="51" y="153" on="1"/>
        <pt x="68" y="191" on="0"/>
        <pt x="100" y="189" on="1"/>
        <pt x="124" y="189" on="0"/>
        <pt x="149" y="157" on="0"/>
        <pt x="150" y="118" on="1"/>
        <pt x="152" y="44" on="1"/>
        <pt x="181" y="34" on="0"/>
        <pt x="218" y="34" on="1"/>
        <pt x="256" y="34" on="0"/>
        <pt x="321" y="67" on="0"/>
        <pt x="361" y="134" on="0"/>
        <pt x="361" y="184" on="1"/>
        <pt x="361" y="242" on="0"/>
        <pt x="298" y="300" on="0"/>
        <pt x="243" y="300" on="1"/>
        <pt x="211" y="300" on="1"/>
        <pt x="220" y="348" on="1"/>
        <pt x="253" y="348" on="1"/>
        <pt x="290" y="348" on="0"/>
        <pt x="358" y="381" on="0"/>
        <pt x="401" y="448" on="0"/>
        <pt x="401" y="499" on="1"/>
        <pt x="401" y="555" on="0"/>
        <pt x="346" y="605" on="0"/>
        <pt x="303" y="605" on="1"/>
        <pt x="272" y="605" on="0"/>
        <pt x="242" y="596" on="1"/>
        <pt x="233" y="529" on="1"/>
        <pt x="224" y="466" on="0"/>
        <pt x="176" y="466" on="1"/>
        <pt x="160" y="466" on="0"/>
        <pt x="133" y="486" on="0"/>
        <pt x="129" y="499" on="1"/>
        <pt x="139" y="573" on="0"/>
        <pt x="244" y="653" on="0"/>
        <pt x="329" y="653" on="1"/>
        <pt x="419" y="653" on="0"/>
        <pt x="505" y="567" on="0"/>
        <pt x="505" y="504" on="1"/>
        <pt x="505" y="440" on="0"/>
        <pt x="415" y="346" on="0"/>
        <pt x="336" y="326" on="1"/>
        <pt x="475" y="298" on="0"/>
        <pt x="475" y="176" on="1"/>
        <pt x="475" y="117" on="0"/>
        <pt x="409" y="31" on="0"/>
        <pt x="299" y="-14" on="0"/>
      </contour>
    </TTGlyph>
    <TTGlyph name="glyph00085" xMin="33" yMin="-19" xMax="526" yMax="646">
      <contour>
        <pt x="512" y="166" on="1"/>
        <pt x="407" y="166" on="1"/>
        <pt x="369" y="-19" on="1"/>
        <pt x="273" y="-19" on="1"/>
        <pt x="310" y="166" on="1"/>
        <pt x="33" y="166" on="1"/>
        <pt x="47" y="237" on="1"/>
        <pt x="426" y="646" on="1"/>
        <pt x="504" y="646" on="1"/>
        <pt x="422" y="241" on="1"/>
        <pt x="526" y="241" on="1"/>
      </contour>
      <contour>
        <pt x="109" y="241" on="1"/>
        <pt x="326" y="241" on="1"/>
        <pt x="386" y="539" on="1"/>
      </contour>
    </TTGlyph>
    <TTGlyph name="glyph00086" xMin="47" yMin="-14" xMax="528" yMax="639">
      <contour>
        <pt x="213" y="-14" on="1"/>
        <pt x="133" y="-14" on="0"/>
        <pt x="47" y="71" on="0"/>
        <pt x="48" y="148" on="1"/>
        <pt x="56" y="165" on="0"/>
        <pt x="83" y="180" on="0"/>
        <pt x="99" y="180" on="1"/>
        <pt x="128" y="180" on="0"/>
        <pt x="148" y="142" on="0"/>
        <pt x="151" y="99" on="1"/>
        <pt x="154" y="39" on="1"/>
        <pt x="175" y="32" on="0"/>
        <pt x="209" y="32" on="1"/>
        <pt x="251" y="33" on="0"/>
        <pt x="320" y="72" on="0"/>
        <pt x="361" y="147" on="0"/>
        <pt x="361" y="202" on="1"/>
        <pt x="361" y="264" on="0"/>
        <pt x="303" y="335" on="0"/>
        <pt x="247" y="335" on="1"/>
        <pt x="217" y="335" on="0"/>
        <pt x="174" y="323" on="0"/>
        <pt x="157" y="314" on="1"/>
        <pt x="127" y="324" on="1"/>
        <pt x="204" y="639" on="1"/>
        <pt x="528" y="639" on="1"/>
        <pt x="508" y="540" on="1"/>
        <pt x="229" y="540" on="1"/>
        <pt x="186" y="368" on="1"/>
        <pt x="209" y="376" on="0"/>
        <pt x="259" y="386" on="0"/>
        <pt x="283" y="386" on="1"/>
        <pt x="375" y="386" on="0"/>
        <pt x="473" y="290" on="0"/>
        <pt x="473" y="211" on="1"/>
        <pt x="473" y="139" on="0"/>
        <pt x="403" y="39" on="0"/>
        <pt x="285" y="-14" on="0"/>
      </contour>
    </TTGlyph>
    <TTGlyph name="glyph00087" xMin="73" yMin="-14" xMax="551" yMax="651">
      <contour>
        <pt x="182" y="197" on="1"/>
        <pt x="182" y="108" on="0"/>
        <pt x="234" y="31" on="0"/>
        <pt x="283" y="31" on="1"/>
        <pt x="328" y="31" on="0"/>
        <pt x="395" y="122" on="0"/>
        <pt x="395" y="201" on="1"/>
        <pt x="395" y="266" on="0"/>
        <pt x="341" y="323" on="0"/>
        <pt x="290" y="323" on="1"/>
        <pt x="268" y="323" on="0"/>
        <pt x="218" y="312" on="0"/>
        <pt x="192" y="298" on="1"/>
        <pt x="187" y="274" on="0"/>
        <pt x="182" y="223" on="0"/>
      </contour>
      <contour>
        <pt x="265" y="-14" on="1"/>
        <pt x="177" y="-14" on="0"/>
        <pt x="73" y="102" on="0"/>
        <pt x="73" y="208" on="1"/>
        <pt x="73" y="297" on="0"/>
        <pt x="143" y="454" on="0"/>
        <pt x="271" y="576" on="0"/>
        <pt x="445" y="648" on="0"/>
        <pt x="548" y="651" on="1"/>
        <pt x="551" y="613" on="1"/>
        <pt x="411" y="594" on="0"/>
        <pt x="236" y="446" on="0"/>
        <pt x="202" y="338" on="1"/>
        <pt x="236" y="361" on="0"/>
        <pt x="304" y="384" on="0"/>
        <pt x="344" y="384" on="1"/>
        <pt x="420" y="384" on="0"/>
        <pt x="503" y="291" on="0"/>
        <pt x="503" y="216" on="1"/>
        <pt x="503" y="141" on="0"/>
        <pt x="433" y="39" on="0"/>
        <pt x="324" y="-14" on="0"/>
      </contour>
    </TTGlyph>
    <TTGlyph name="glyph00088" xMin="60" yMin="0" xMax="536" yMax="639">
      <contour>
        <pt x="60" y="11" on="1"/>
        <pt x="442" y="544" on="1"/>
        <pt x="109" y="544" on="1"/>
        <pt x="128" y="639" on="1"/>
        <pt x="536" y="639" on="1"/>
        <pt x="523" y="575" on="1"/>
        <pt x="175" y="0" on="1"/>
        <pt x="71" y="0" on="1"/>
      </contour>
    </TTGlyph>
    <TTGlyph name="glyph00089" xMin="63" yMin="-14" xMax="507" yMax="653">
      <contour>
        <pt x="227" y="501" on="1"/>
        <pt x="227" y="475" on="0"/>
        <pt x="246" y="434" on="0"/>
        <pt x="291" y="392" on="0"/>
        <pt x="329" y="364" on="1"/>
        <pt x="385" y="399" on="0"/>
        <pt x="423" y="470" on="0"/>
        <pt x="423" y="512" on="1"/>
        <pt x="423" y="557" on="0"/>
        <pt x="377" y="609" on="0"/>
        <pt x="335" y="609" on="1"/>
        <pt x="286" y="609" on="0"/>
        <pt x="227" y="548" on="0"/>
      </contour>
      <contour>
        <pt x="241" y="-14" on="1"/>
        <pt x="158" y="-14" on="0"/>
        <pt x="63" y="61" on="0"/>
        <pt x="63" y="122" on="1"/>
        <pt x="63" y="182" on="0"/>
        <pt x="150" y="278" on="0"/>
        <pt x="223" y="310" on="1"/>
        <pt x="177" y="347" on="0"/>
        <pt x="130" y="423" on="0"/>
        <pt x="130" y="468" on="1"/>
        <pt x="130" y="520" on="0"/>
        <pt x="186" y="603" on="0"/>
        <pt x="281" y="653" on="0"/>
        <pt x="339" y="653" on="1"/>
        <pt x="393" y="653" on="0"/>
        <pt x="468" y="616" on="0"/>
        <pt x="507" y="556" on="0"/>
        <pt x="507" y="521" on="1"/>
        <pt x="507" y="460" on="0"/>
        <pt x="438" y="379" on="0"/>
        <pt x="358" y="343" on="1"/>
        <pt x="417" y="300" on="0"/>
        <pt x="467" y="224" on="0"/>
        <pt x="467" y="171" on="1"/>
        <pt x="467" y="118" on="0"/>
        <pt x="409" y="34" on="0"/>
        <pt x="307" y="-14" on="0"/>
      </contour>
      <contour>
        <pt x="150" y="134" on="1"/>
        <pt x="150" y="85" on="0"/>
        <pt x="201" y="30" on="0"/>
        <pt x="250" y="30" on="1"/>
        <pt x="301" y="30" on="0"/>
        <pt x="364" y="89" on="0"/>
        <pt x="364" y="140" on="1"/>
        <pt x="364" y="169" on="0"/>
        <pt x="344" y="212" on="0"/>
        <pt x="296" y="258" on="0"/>
        <pt x="252" y="289" on="1"/>
        <pt x="198" y="257" on="0"/>
        <pt x="150" y="180" on="0"/>
      </contour>
    </TTGlyph>
    <TTGlyph name="glyph00090" xMin="69" yMin="-16" xMax="522" yMax="652">
      <contour>
        <pt x="196" y="433" on="1"/>
        <pt x="196" y="373" on="0"/>
        <pt x="255" y="306" on="0"/>
        <pt x="307" y="306" on="1"/>
        <pt x="330" y="306" on="0"/>
        <pt x="377" y="319" on="0"/>
        <pt x="405" y="334" on="1"/>
        <pt x="412" y="361" on="0"/>
        <pt x="418" y="420" on="0"/>
        <pt x="418" y="451" on="1"/>
        <pt x="418" y="608" on="0"/>
        <pt x="325" y="608" on="1"/>
        <pt x="292" y="608" on="0"/>
        <pt x="233" y="561" on="0"/>
        <pt x="196" y="482" on="0"/>
      </contour>
      <contour>
        <pt x="69" y="26" on="1"/>
        <pt x="326" y="106" on="0"/>
        <pt x="393" y="296" on="1"/>
        <pt x="329" y="254" on="0"/>
        <pt x="261" y="254" on="1"/>
        <pt x="183" y="254" on="0"/>
        <pt x="94" y="347" on="0"/>
        <pt x="94" y="420" on="1"/>
        <pt x="94" y="486" on="0"/>
        <pt x="159" y="591" on="0"/>
        <pt x="269" y="652" on="0"/>
        <pt x="334" y="652" on="1"/>
        <pt x="423" y="652" on="0"/>
        <pt x="522" y="535" on="0"/>
        <pt x="522" y="433" on="1"/>
        <pt x="522" y="325" on="0"/>
        <pt x="411" y="142" on="0"/>
        <pt x="212" y="13" on="0"/>
        <pt x="78" y="-16" on="1"/>
      </contour>
    </TTGlyph>
    <TTGlyph name="glyph00100" xMin="53" yMin="214" xMax="498" yMax="291">
      <contour>
        <pt x="53" y="214" on="1"/>
        <pt x="53" y="291" on="1"/>
        <pt x="498" y="291" on="1"/>
        <pt x="498" y="214" on="1"/>
      </contour>
    </TTGlyph>
    <TTGlyph name="glyph00114" xMin="113" yMin="410" xMax="426" yMax="822">
      <contour>
        <pt x="235" y="410" on="1"/>
        <pt x="181" y="410" on="0"/>
        <pt x="113" y="480" on="0"/>
        <pt x="113" y="551" on="1"/>
        <pt x="113" y="629" on="0"/>
        <pt x="167" y="751" on="0"/>
        <pt x="256" y="822" on="0"/>
        <pt x="308" y="822" on="1"/>
        <pt x="364" y="822" on="0"/>
        <pt x="426" y="749" on="0"/>
        <pt x="426" y="680" on="1"/>
        <pt x="426" y="599" on="0"/>
        <pt x="373" y="478" on="0"/>
        <pt x="286" y="410" on="0"/>
      </contour>
      <contour>
        <pt x="237" y="443" on="1"/>
        <pt x="257" y="443" on="0"/>
        <pt x="295" y="492" on="0"/>
        <pt x="326" y="570" on="0"/>
        <pt x="344" y="663" on="0"/>
        <pt x="344" y="706" on="1"/>
        <pt x="344" y="755" on="0"/>
        <pt x="320" y="788" on="0"/>
        <pt x="304" y="788" on="1"/>
        <pt x="285" y="788" on="0"/>
        <pt x="247" y="745" on="0"/>
        <pt x="215" y="672" on="0"/>
        <pt x="196" y="579" on="0"/>
        <pt x="196" y="529" on="1"/>
        <pt x="196" y="477" on="0"/>
        <pt x="221" y="443" on="0"/>
      </contour>
    </TTGlyph>
    <TTGlyph name="glyph00115" xMin="118" yMin="419" xMax="367" yMax="822">
      <contour>
        <pt x="361" y="419" on="1"/>
        <pt x="118" y="419" on="1"/>
        <pt x="125" y="449" on="1"/>
        <pt x="200" y="458" on="1"/>
        <pt x="260" y="760" on="1"/>
        <pt x="189" y="757" on="1"/>
        <pt x="195" y="786" on="1"/>
        <pt x="358" y="822" on="1"/>
        <pt x="366" y="815" on="1"/>
        <pt x="345" y="727" on="1"/>
        <pt x="288" y="459" on="1"/>
        <pt x="367" y="449" on="1"/>
      </contour>
    </TTGlyph>
    <TTGlyph name="glyph00116" xMin="100" yMin="419" xMax="409" yMax="821">
      <contour>
        <pt x="100" y="419" on="1"/>
        <pt x="110" y="474" on="1"/>
        <pt x="177" y="531" on="0"/>
        <pt x="261" y="611" on="0"/>
        <pt x="306" y="666" on="0"/>
        <pt x="323" y="706" on="0"/>
        <pt x="323" y="725" on="1"/>
        <pt x="323" y="754" on="0"/>
        <pt x="293" y="784" on="0"/>
        <pt x="267" y="784" on="1"/>
        <pt x="252" y="784" on="0"/>
        <pt x="232" y="779" on="1"/>
        <pt x="229" y="732" on="1"/>
        <pt x="228" y="699" on="0"/>
        <pt x="205" y="673" on="0"/>
        <pt x="185" y="673" on="1"/>
        <pt x="151" y="673" on="0"/>
        <pt x="148" y="710" on="1"/>
        <pt x="163" y="773" on="0"/>
        <pt x="244" y="821" on="0"/>
        <pt x="299" y="821" on="1"/>
        <pt x="355" y="821" on="0"/>
        <pt x="409" y="767" on="0"/>
        <pt x="409" y="726" on="1"/>
        <pt x="409" y="702" on="0"/>
        <pt x="386" y="659" on="0"/>
        <pt x="334" y="608" on="0"/>
        <pt x="246" y="541" on="0"/>
        <pt x="180" y="493" on="1"/>
        <pt x="381" y="493" on="1"/>
        <pt x="366" y="419" on="1"/>
      </contour>
    </TTGlyph>
    <TTGlyph name="glyph00117" xMin="109" yMin="410" xMax="410" yMax="821">
      <contour>
        <pt x="228" y="410" on="1"/>
        <pt x="172" y="410" on="0"/>
        <pt x="110" y="462" on="0"/>
        <pt x="109" y="515" on="1"/>
        <pt x="121" y="540" on="0"/>
        <pt x="146" y="540" on="1"/>
        <pt x="163" y="540" on="0"/>
        <pt x="183" y="519" on="0"/>
        <pt x="184" y="489" on="1"/>
        <pt x="185" y="446" on="1"/>
        <pt x="191" y="445" on="0"/>
        <pt x="205" y="444" on="0"/>
        <pt x="212" y="444" on="1"/>
        <pt x="244" y="444" on="0"/>
        <pt x="299" y="486" on="0"/>
        <pt x="299" y="531" on="1"/>
        <pt x="299" y="566" on="0"/>
        <pt x="257" y="600" on="0"/>
        <pt x="210" y="600" on="1"/>
        <pt x="216" y="633" on="1"/>
        <pt x="268" y="633" on="0"/>
        <pt x="327" y="678" on="0"/>
        <pt x="327" y="723" on="1"/>
        <pt x="327" y="757" on="0"/>
        <pt x="294" y="787" on="0"/>
        <pt x="266" y="787" on="1"/>
        <pt x="255" y="787" on="0"/>
        <pt x="241" y="784" on="1"/>
        <pt x="235" y="745" on="1"/>
        <pt x="232" y="723" on="0"/>
        <pt x="208" y="702" on="0"/>
        <pt x="193" y="702" on="1"/>
        <pt x="182" y="702" on="0"/>
        <pt x="164" y="714" on="0"/>
        <pt x="159" y="722" on="1"/>
        <pt x="163" y="771" on="0"/>
        <pt x="235" y="821" on="0"/>
        <pt x="290" y="821" on="1"/>
        <pt x="354" y="821" on="0"/>
        <pt x="410" y="766" on="0"/>
        <pt x="410" y="728" on="1"/>
        <pt x="410" y="691" on="0"/>
        <pt x="355" y="633" on="0"/>
        <pt x="299" y="619" on="1"/>
        <pt x="348" y="610" on="0"/>
        <pt x="392" y="564" on="0"/>
        <pt x="392" y="526" on="1"/>
        <pt x="392" y="473" on="0"/>
        <pt x="301" y="410" on="0"/>
      </contour>
    </TTGlyph>
    <TTGlyph name="glyph00118" xMin="92" yMin="407" xMax="415" yMax="815">
      <contour>
        <pt x="405" y="509" on="1"/>
        <pt x="341" y="509" on="1"/>
        <pt x="320" y="407" on="1"/>
        <pt x="241" y="407" on="1"/>
        <pt x="262" y="509" on="1"/>
        <pt x="92" y="509" on="1"/>
        <pt x="103" y="566" on="1"/>
        <pt x="336" y="815" on="1"/>
        <pt x="402" y="815" on="1"/>
        <pt x="352" y="564" on="1"/>
        <pt x="415" y="564" on="1"/>
      </contour>
      <contour>
        <pt x="144" y="564" on="1"/>
        <pt x="273" y="564" on="1"/>
        <pt x="308" y="739" on="1"/>
      </contour>
    </TTGlyph>
    <TTGlyph name="glyph00119" xMin="107" yMin="410" xMax="428" yMax="811">
      <contour>
        <pt x="221" y="410" on="1"/>
        <pt x="166" y="410" on="0"/>
        <pt x="107" y="465" on="0"/>
        <pt x="109" y="514" on="1"/>
        <pt x="121" y="537" on="0"/>
        <pt x="147" y="537" on="1"/>
        <pt x="169" y="537" on="0"/>
        <pt x="184" y="511" on="0"/>
        <pt x="185" y="482" on="1"/>
        <pt x="187" y="444" on="1"/>
        <pt x="193" y="443" on="0"/>
        <pt x="206" y="443" on="0"/>
        <pt x="214" y="443" on="1"/>
        <pt x="249" y="444" on="0"/>
        <pt x="303" y="496" on="0"/>
        <pt x="303" y="545" on="1"/>
        <pt x="303" y="580" on="0"/>
        <pt x="268" y="621" on="0"/>
        <pt x="236" y="621" on="1"/>
        <pt x="217" y="621" on="0"/>
        <pt x="192" y="613" on="0"/>
        <pt x="181" y="606" on="1"/>
        <pt x="159" y="615" on="1"/>
        <pt x="208" y="811" on="1"/>
        <pt x="428" y="811" on="1"/>
        <pt x="414" y="741" on="1"/>
        <pt x="225" y="741" on="1"/>
        <pt x="202" y="646" on="1"/>
        <pt x="235" y="661" on="0"/>
        <pt x="270" y="661" on="1"/>
        <pt x="328" y="661" on="0"/>
        <pt x="393" y="602" on="0"/>
        <pt x="393" y="552" on="1"/>
        <pt x="393" y="486" on="0"/>
        <pt x="295" y="410" on="0"/>
      </contour>
    </TTGlyph>
    <TTGlyph name="glyph00120" xMin="115" yMin="410" xMax="433" yMax="821">
      <contour>
        <pt x="202" y="533" on="1"/>
        <pt x="202" y="481" on="0"/>
        <pt x="234" y="442" on="0"/>
        <pt x="259" y="442" on="1"/>
        <pt x="288" y="442" on="0"/>
        <pt x="325" y="499" on="0"/>
        <pt x="325" y="543" on="1"/>
        <pt x="325" y="584" on="0"/>
        <pt x="291" y="621" on="0"/>
        <pt x="259" y="621" on="1"/>
        <pt x="248" y="621" on="0"/>
        <pt x="225" y="617" on="0"/>
        <pt x="211" y="610" on="1"/>
        <pt x="202" y="574" on="0"/>
      </contour>
      <contour>
        <pt x="245" y="410" on="1"/>
        <pt x="185" y="410" on="0"/>
        <pt x="115" y="482" on="0"/>
        <pt x="115" y="546" on="1"/>
        <pt x="115" y="603" on="0"/>
        <pt x="163" y="702" on="0"/>
        <pt x="249" y="777" on="0"/>
        <pt x="363" y="820" on="0"/>
        <pt x="429" y="821" on="1"/>
        <pt x="433" y="793" on="1"/>
        <pt x="348" y="783" on="0"/>
        <pt x="243" y="700" on="0"/>
        <pt x="220" y="639" on="1"/>
        <pt x="257" y="662" on="0"/>
        <pt x="303" y="662" on="1"/>
        <pt x="356" y="662" on="0"/>
        <pt x="411" y="602" on="0"/>
        <pt x="411" y="555" on="1"/>
        <pt x="411" y="507" on="0"/>
        <pt x="361" y="443" on="0"/>
        <pt x="284" y="410" on="0"/>
      </contour>
    </TTGlyph>
    <TTGlyph name="glyph00121" xMin="118" yMin="419" xMax="441" yMax="811">
      <contour>
        <pt x="118" y="430" on="1"/>
        <pt x="367" y="740" on="1"/>
        <pt x="151" y="740" on="1"/>
        <pt x="166" y="811" on="1"/>
        <pt x="441" y="811" on="1"/>
        <pt x="431" y="764" on="1"/>
        <pt x="208" y="419" on="1"/>
        <pt x="124" y="419" on="1"/>
      </contour>
    </TTGlyph>
    <TTGlyph name="glyph00122" xMin="124" yMin="410" xMax="418" yMax="821">
      <contour>
        <pt x="241" y="735" on="1"/>
        <pt x="241" y="714" on="0"/>
        <pt x="268" y="679" on="0"/>
        <pt x="306" y="650" on="1"/>
        <pt x="336" y="672" on="0"/>
        <pt x="355" y="712" on="0"/>
        <pt x="355" y="733" on="1"/>
        <pt x="355" y="760" on="0"/>
        <pt x="327" y="789" on="0"/>
        <pt x="302" y="789" on="1"/>
        <pt x="273" y="789" on="0"/>
        <pt x="241" y="758" on="0"/>
      </contour>
      <contour>
        <pt x="245" y="410" on="1"/>
        <pt x="190" y="410" on="0"/>
        <pt x="124" y="459" on="0"/>
        <pt x="124" y="496" on="1"/>
        <pt x="124" y="534" on="0"/>
        <pt x="177" y="589" on="0"/>
        <pt x="226" y="608" on="1"/>
        <pt x="197" y="631" on="0"/>
        <pt x="164" y="677" on="0"/>
        <pt x="164" y="708" on="1"/>
        <pt x="164" y="756" on="0"/>
        <pt x="242" y="821" on="0"/>
        <pt x="303" y="821" on="1"/>
        <pt x="359" y="821" on="0"/>
        <pt x="418" y="770" on="0"/>
        <pt x="418" y="739" on="1"/>
        <pt x="418" y="704" on="0"/>
        <pt x="375" y="655" on="0"/>
        <pt x="327" y="635" on="1"/>
        <pt x="366" y="604" on="0"/>
        <pt x="398" y="556" on="0"/>
        <pt x="398" y="524" on="1"/>
        <pt x="398" y="475" on="0"/>
        <pt x="316" y="410" on="0"/>
      </contour>
      <contour>
        <pt x="191" y="502" on="1"/>
        <pt x="191" y="474" on="0"/>
        <pt x="222" y="442" on="0"/>
        <pt x="249" y="442" on="1"/>
        <pt x="315" y="442" on="0"/>
        <pt x="315" y="503" on="1"/>
        <pt x="315" y="526" on="0"/>
        <pt x="286" y="562" on="0"/>
        <pt x="246" y="593" on="1"/>
        <pt x="215" y="573" on="0"/>
        <pt x="191" y="529" on="0"/>
      </contour>
    </TTGlyph>
    <TTGlyph name="glyph00123" xMin="121" yMin="409" xMax="421" yMax="821">
      <contour>
        <pt x="212" y="677" on="1"/>
        <pt x="212" y="640" on="0"/>
        <pt x="245" y="601" on="0"/>
        <pt x="273" y="601" on="1"/>
        <pt x="295" y="601" on="0"/>
        <pt x="325" y="615" on="1"/>
        <pt x="337" y="656" on="0"/>
        <pt x="337" y="707" on="1"/>
        <pt x="337" y="752" on="0"/>
        <pt x="312" y="789" on="0"/>
        <pt x="287" y="789" on="1"/>
        <pt x="259" y="789" on="0"/>
        <pt x="212" y="724" on="0"/>
      </contour>
      <contour>
        <pt x="121" y="438" on="1"/>
        <pt x="196" y="459" on="0"/>
        <pt x="292" y="534" on="0"/>
        <pt x="315" y="587" on="1"/>
        <pt x="296" y="577" on="0"/>
        <pt x="253" y="564" on="0"/>
        <pt x="233" y="564" on="1"/>
        <pt x="185" y="564" on="0"/>
        <pt x="131" y="622" on="0"/>
        <pt x="131" y="670" on="1"/>
        <pt x="131" y="712" on="0"/>
        <pt x="174" y="780" on="0"/>
        <pt x="247" y="821" on="0"/>
        <pt x="292" y="821" on="1"/>
        <pt x="354" y="821" on="0"/>
        <pt x="421" y="749" on="0"/>
        <pt x="421" y="683" on="1"/>
        <pt x="421" y="616" on="0"/>
        <pt x="345" y="503" on="0"/>
        <pt x="212" y="424" on="0"/>
        <pt x="127" y="409" on="1"/>
      </contour>
    </TTGlyph>
    <TTGlyph name="glyph00124" xMin="215" yMin="301" xMax="443" yMax="865">
      <contour>
        <pt x="316" y="301" on="1"/>
        <pt x="274" y="344" on="0"/>
        <pt x="215" y="460" on="0"/>
        <pt x="215" y="534" on="1"/>
        <pt x="215" y="632" on="0"/>
        <pt x="319" y="807" on="0"/>
        <pt x="422" y="865" on="1"/>
        <pt x="443" y="836" on="1"/>
        <pt x="360" y="773" on="0"/>
        <pt x="289" y="608" on="0"/>
        <pt x="289" y="523" on="1"/>
        <pt x="289" y="465" on="0"/>
        <pt x="320" y="369" on="0"/>
        <pt x="347" y="323" on="1"/>
      </contour>
    </TTGlyph>
    <TTGlyph name="glyph00125" xMin="114" yMin="301" xMax="342" yMax="865">
      <contour>
        <pt x="241" y="865" on="1"/>
        <pt x="283" y="822" on="0"/>
        <pt x="342" y="705" on="0"/>
        <pt x="342" y="630" on="1"/>
        <pt x="342" y="533" on="0"/>
        <pt x="239" y="358" on="0"/>
        <pt x="135" y="301" on="1"/>
        <pt x="114" y="330" on="1"/>
        <pt x="197" y="392" on="0"/>
        <pt x="269" y="557" on="0"/>
        <pt x="269" y="642" on="1"/>
        <pt x="269" y="701" on="0"/>
        <pt x="237" y="797" on="0"/>
        <pt x="210" y="843" on="1"/>
      </contour>
    </TTGlyph>
    <TTGlyph name="glyph00126" xMin="170" yMin="318" xMax="412" yMax="854">
      <contour>
        <pt x="170" y="318" on="1"/>
        <pt x="279" y="854" on="1"/>
        <pt x="412" y="854" on="1"/>
        <pt x="406" y="821" on="1"/>
        <pt x="337" y="810" on="1"/>
        <pt x="245" y="362" on="1"/>
        <pt x="310" y="351" on="1"/>
        <pt x="304" y="318" on="1"/>
      </contour>
    </TTGlyph>
    <TTGlyph name="glyph00127" xMin="131" yMin="318" xMax="373" yMax="854">
      <contour>
        <pt x="233" y="821" on="1"/>
        <pt x="240" y="854" on="1"/>
        <pt x="373" y="854" on="1"/>
        <pt x="264" y="318" on="1"/>
        <pt x="131" y="318" on="1"/>
        <pt x="137" y="351" on="1"/>
        <pt x="207" y="362" on="1"/>
        <pt x="298" y="810" on="1"/>
      </contour>
    </TTGlyph>
    <TTGlyph name="glyph00128" xMin="109" yMin="409" xMax="221" yMax="517">
      <contour>
        <pt x="160" y="409" on="1"/>
        <pt x="138" y="409" on="0"/>
        <pt x="109" y="439" on="0"/>
        <pt x="109" y="458" on="1"/>
        <pt x="109" y="483" on="0"/>
        <pt x="145" y="517" on="0"/>
        <pt x="170" y="517" on="1"/>
        <pt x="193" y="517" on="0"/>
        <pt x="221" y="488" on="0"/>
        <pt x="221" y="468" on="1"/>
        <pt x="221" y="443" on="0"/>
        <pt x="185" y="409" on="0"/>
      </contour>
    </TTGlyph>
    <TTGlyph name="glyph00129" xMin="59" yMin="305" xMax="218" yMax="516">
      <contour>
        <pt x="68" y="305" on="1"/>
        <pt x="59" y="333" on="1"/>
        <pt x="94" y="346" on="0"/>
        <pt x="139" y="383" on="0"/>
        <pt x="156" y="411" on="1"/>
        <pt x="130" y="432" on="0"/>
        <pt x="113" y="456" on="0"/>
        <pt x="113" y="469" on="1"/>
        <pt x="113" y="486" on="0"/>
        <pt x="143" y="516" on="0"/>
        <pt x="167" y="516" on="1"/>
        <pt x="198" y="516" on="0"/>
        <pt x="215" y="493" on="1"/>
        <pt x="217" y="486" on="0"/>
        <pt x="218" y="475" on="0"/>
        <pt x="218" y="467" on="1"/>
        <pt x="218" y="429" on="0"/>
        <pt x="176" y="361" on="0"/>
        <pt x="107" y="313" on="0"/>
      </contour>
    </TTGlyph>
    <TTGlyph name="glyph00130" xMin="24" yMin="-9" xMax="337" yMax="403">
      <component glyphName="glyph00114" x="-89" y="-419" flags="0x204"/>
    </TTGlyph>
    <TTGlyph name="glyph00131" xMin="29" yMin="0" xMax="278" yMax="403">
      <component glyphName="glyph00115" x="-89" y="-419" flags="0x204"/>
    </TTGlyph>
    <TTGlyph name="glyph00132" xMin="11" yMin="0" xMax="320" yMax="402">
      <component glyphName="glyph00116" x="-89" y="-419" flags="0x204"/>
    </TTGlyph>
    <TTGlyph name="glyph00133" xMin="20" yMin="-9" xMax="321" yMax="402">
      <component glyphName="glyph00117" x="-89" y="-419" flags="0x204"/>
    </TTGlyph>
    <TTGlyph name="glyph00134" xMin="3" yMin="-12" xMax="326" yMax="396">
      <component glyphName="glyph00118" x="-89" y="-419" flags="0x204"/>
    </TTGlyph>
    <TTGlyph name="glyph00135" xMin="18" yMin="-9" xMax="339" yMax="392">
      <component glyphName="glyph00119" x="-89" y="-419" flags="0x204"/>
    </TTGlyph>
    <TTGlyph name="glyph00136" xMin="26" yMin="-9" xMax="344" yMax="402">
      <component glyphName="glyph00120" x="-89" y="-419" flags="0x204"/>
    </TTGlyph>
    <TTGlyph name="glyph00137" xMin="29" yMin="0" xMax="352" yMax="392">
      <component glyphName="glyph00121" x="-89" y="-419" flags="0x204"/>
    </TTGlyph>
    <TTGlyph name="glyph00138" xMin="35" yMin="-9" xMax="329" yMax="402">
      <component glyphName="glyph00122" x="-89" y="-419" flags="0x204"/>
    </TTGlyph>
    <TTGlyph name="glyph00139" xMin="32" yMin="-10" xMax="332" yMax="402">
      <component glyphName="glyph00123" x="-89" y="-419" flags="0x204"/>
    </TTGlyph>
    <TTGlyph name="glyph00140" xMin="126" yMin="-118" xMax="354" yMax="446">
      <component glyphName="glyph00124" x="-89" y="-419" flags="0x204"/>
    </TTGlyph>
    <TTGlyph name="glyph00141" xMin="25" yMin="-118" xMax="253" yMax="446">
      <component glyphName="glyph00125" x="-89" y="-419" flags="0x204"/>
    </TTGlyph>
    <TTGlyph name="glyph00142" xMin="81" yMin="-101" xMax="323" yMax="435">
      <component glyphName="glyph00126" x="-89" y="-419" flags="0x204"/>
    </TTGlyph>
    <TTGlyph name="glyph00143" xMin="42" yMin="-101" xMax="284" yMax="435">
      <component glyphName="glyph00127" x="-89" y="-419" flags="0x204"/>
    </TTGlyph>
    <TTGlyph name="glyph00144" xMin="20" yMin="-10" xMax="132" yMax="98">
      <component glyphName="glyph00128" x="-89" y="-419" flags="0x204"/>
    </TTGlyph>
    <TTGlyph name="glyph00145" xMin="-30" yMin="-114" xMax="129" yMax="97">
      <component glyphName="glyph00129" x="-89" y="-419" flags="0x204"/>
    </TTGlyph>
    <TTGlyph name="glyph00146" xMin="77" yMin="241" xMax="390" yMax="653">
      <component glyphName="glyph00114" x="-36" y="-169" flags="0x204"/>
    </TTGlyph>
    <TTGlyph name="glyph00147" xMin="82" yMin="250" xMax="331" yMax="653">
      <component glyphName="glyph00115" x="-36" y="-169" flags="0x204"/>
    </TTGlyph>
    <TTGlyph name="glyph00148" xMin="64" yMin="250" xMax="373" yMax="652">
      <component glyphName="glyph00116" x="-36" y="-169" flags="0x204"/>
    </TTGlyph>
    <TTGlyph name="glyph00149" xMin="73" yMin="241" xMax="374" yMax="652">
      <component glyphName="glyph00117" x="-36" y="-169" flags="0x204"/>
    </TTGlyph>
    <TTGlyph name="glyph00150" xMin="56" yMin="238" xMax="379" yMax="646">
      <component glyphName="glyph00118" x="-36" y="-169" flags="0x204"/>
    </TTGlyph>
    <TTGlyph name="glyph00151" xMin="71" yMin="241" xMax="392" yMax="642">
      <component glyphName="glyph00119" x="-36" y="-169" flags="0x204"/>
    </TTGlyph>
    <TTGlyph name="glyph00152" xMin="79" yMin="241" xMax="397" yMax="652">
      <component glyphName="glyph00120" x="-36" y="-169" flags="0x204"/>
    </TTGlyph>
    <TTGlyph name="glyph00153" xMin="82" yMin="250" xMax="405" yMax="642">
      <component glyphName="glyph00121" x="-36" y="-169" flags="0x204"/>
    </TTGlyph>
    <TTGlyph name="glyph00154" xMin="88" yMin="241" xMax="382" yMax="652">
      <component glyphName="glyph00122" x="-36" y="-169" flags="0x204"/>
    </TTGlyph>
    <TTGlyph name="glyph00155" xMin="85" yMin="240" xMax="385" yMax="652">
      <component glyphName="glyph00123" x="-36" y="-169" flags="0x204"/>
    </TTGlyph>
    <TTGlyph name="glyph00156" xMin="179" yMin="132" xMax="407" yMax="696">
      <component glyphName="glyph00124" x="-36" y="-169" flags="0x204"/>
    </TTGlyph>
    <TTGlyph name="glyph00157" xMin="78" yMin="132" xMax="306" yMax="696">
      <component glyphName="glyph00125" x="-36" y="-169" flags="0x204"/>
    </TTGlyph>
    <TTGlyph name="glyph00158" xMin="134" yMin="149" xMax="376" yMax="685">
      <component glyphName="glyph00126" x="-36" y="-169" flags="0x204"/>
    </TTGlyph>
    <TTGlyph name="glyph00159" xMin="95" yMin="149" xMax="337" yMax="685">
      <component glyphName="glyph00127" x="-36" y="-169" flags="0x204"/>
    </TTGlyph>
    <TTGlyph name="glyph00160" xMin="73" yMin="240" xMax="185" yMax="348">
      <component glyphName="glyph00128" x="-36" y="-169" flags="0x204"/>
    </TTGlyph>
    <TTGlyph name="glyph00161" xMin="23" yMin="136" xMax="182" yMax="347">
      <component glyphName="glyph00129" x="-36" y="-169" flags="0x204"/>
    </TTGlyph>
    <TTGlyph name="glyph00163" xMin="-181" yMin="-18" xMax="349" yMax="658">
      <contour>
        <pt x="-142" y="-18" on="1"/>
        <pt x="-181" y="12" on="1"/>
        <pt x="309" y="658" on="1"/>
        <pt x="349" y="627" on="1"/>
      </contour>
    </TTGlyph>
    <TTGlyph name="glyph00164" xMin="-181" yMin="-18" xMax="349" yMax="658">
      <component glyphName="glyph00163" x="0" y="0" flags="0x204"/>
    </TTGlyph>
    <TTGlyph name="glyph00168" xMin="60" yMin="293" xMax="510" yMax="360">
      <contour>
        <pt x="510" y="293" on="1"/>
        <pt x="60" y="293" on="1"/>
        <pt x="60" y="360" on="1"/>
        <pt x="510" y="360" on="1"/>
      </contour>
    </TTGlyph>
    <TTGlyph name="glyph00175" xMin="-82" yMin="536" xMax="93" yMax="772">
      <contour>
        <pt x="93" y="553" on="1"/>
        <pt x="67" y="536" on="1"/>
        <pt x="39" y="567" on="0"/>
        <pt x="-18" y="627" on="0"/>
        <pt x="-47" y="658" on="1"/>
        <pt x="-64" y="676" on="0"/>
        <pt x="-82" y="709" on="0"/>
        <pt x="-82" y="727" on="1"/>
        <pt x="-82" y="748" on="0"/>
        <pt x="-51" y="772" on="0"/>
        <pt x="-33" y="772" on="1"/>
        <pt x="-13" y="772" on="0"/>
        <pt x="19" y="745" on="0"/>
        <pt x="31" y="713" on="1"/>
        <pt x="47" y="673" on="0"/>
        <pt x="77" y="593" on="0"/>
      </contour>
    </TTGlyph>
    <TTGlyph name="grave" xMin="196" yMin="536" xMax="371" yMax="772">
      <component glyphName="glyph00175" x="278" y="0" flags="0x4"/>
    </TTGlyph>
    <TTGlyph name="greater" xMin="84" yMin="90" xMax="497" yMax="562">
      <contour>
        <pt x="497" y="355" on="1"/>
        <pt x="497" y="298" on="1"/>
        <pt x="119" y="90" on="1"/>
        <pt x="84" y="156" on="1"/>
        <pt x="410" y="326" on="1"/>
        <pt x="84" y="497" on="1"/>
        <pt x="119" y="562" on="1"/>
      </contour>
    </TTGlyph>
    <TTGlyph name="h" xMin="51" yMin="-14" xMax="572" yMax="730">
      <contour>
        <pt x="63" y="-8" on="1"/>
        <pt x="51" y="2" on="1"/>
        <pt x="143" y="451" on="1"/>
        <pt x="153" y="496" on="0"/>
        <pt x="171" y="587" on="0"/>
        <pt x="178" y="633" on="1"/>
        <pt x="97" y="640" on="1"/>
        <pt x="101" y="673" on="1"/>
        <pt x="293" y="730" on="1"/>
        <pt x="305" y="720" on="1"/>
        <pt x="234" y="381" on="1"/>
        <pt x="285" y="431" on="0"/>
        <pt x="396" y="493" on="0"/>
        <pt x="442" y="493" on="1"/>
        <pt x="474" y="493" on="0"/>
        <pt x="512" y="455" on="0"/>
        <pt x="512" y="417" on="1"/>
        <pt x="512" y="395" on="0"/>
        <pt x="503" y="348" on="0"/>
        <pt x="497" y="324" on="1"/>
        <pt x="451" y="137" on="1"/>
        <pt x="447" y="120" on="0"/>
        <pt x="441" y="94" on="0"/>
        <pt x="441" y="86" on="1"/>
        <pt x="441" y="66" on="0"/>
        <pt x="458" y="66" on="1"/>
        <pt x="493" y="66" on="0"/>
        <pt x="544" y="133" on="1"/>
        <pt x="572" y="113" on="1"/>
        <pt x="553" y="82" on="0"/>
        <pt x="496" y="23" on="0"/>
        <pt x="428" y="-14" on="0"/>
        <pt x="389" y="-14" on="1"/>
        <pt x="359" y="-14" on="0"/>
        <pt x="326" y="14" on="0"/>
        <pt x="326" y="39" on="1"/>
        <pt x="326" y="59" on="0"/>
        <pt x="336" y="99" on="0"/>
        <pt x="343" y="126" on="1"/>
        <pt x="383" y="289" on="1"/>
        <pt x="389" y="313" on="0"/>
        <pt x="397" y="356" on="0"/>
        <pt x="397" y="370" on="1"/>
        <pt x="397" y="391" on="0"/>
        <pt x="381" y="409" on="0"/>
        <pt x="367" y="409" on="1"/>
        <pt x="342" y="409" on="0"/>
        <pt x="271" y="372" on="0"/>
        <pt x="227" y="333" on="1"/>
        <pt x="201" y="213" on="1"/>
        <pt x="188" y="154" on="0"/>
        <pt x="169" y="53" on="0"/>
        <pt x="161" y="0" on="1"/>
      </contour>
    </TTGlyph>
    <TTGlyph name="hyphen" xMin="53" yMin="214" xMax="298" yMax="291">
      <contour>
        <pt x="53" y="214" on="1"/>
        <pt x="53" y="291" on="1"/>
        <pt x="298" y="291" on="1"/>
        <pt x="298" y="214" on="1"/>
      </contour>
    </TTGlyph>
    <TTGlyph name="i" xMin="62" yMin="-14" xMax="323" yMax="747">
      <contour>
        <pt x="79" y="45" on="1"/>
        <pt x="79" y="60" on="0"/>
        <pt x="86" y="104" on="0"/>
        <pt x="91" y="130" on="1"/>
        <pt x="147" y="396" on="1"/>
        <pt x="62" y="403" on="1"/>
        <pt x="67" y="436" on="1"/>
        <pt x="258" y="494" on="1"/>
        <pt x="273" y="482" on="1"/>
        <pt x="200" y="137" on="1"/>
        <pt x="192" y="103" on="0"/>
        <pt x="192" y="87" on="1"/>
        <pt x="192" y="77" on="0"/>
        <pt x="204" y="66" on="0"/>
        <pt x="211" y="66" on="1"/>
        <pt x="240" y="66" on="0"/>
        <pt x="295" y="133" on="1"/>
        <pt x="323" y="113" on="1"/>
        <pt x="302" y="82" on="0"/>
        <pt x="248" y="23" on="0"/>
        <pt x="184" y="-14" on="0"/>
        <pt x="144" y="-14" on="1"/>
        <pt x="116" y="-14" on="0"/>
        <pt x="79" y="16" on="0"/>
      </contour>
      <contour>
        <pt x="243" y="608" on="1"/>
        <pt x="217" y="608" on="0"/>
        <pt x="179" y="643" on="0"/>
        <pt x="179" y="673" on="1"/>
        <pt x="179" y="704" on="0"/>
        <pt x="224" y="747" on="0"/>
        <pt x="252" y="747" on="1"/>
        <pt x="280" y="747" on="0"/>
        <pt x="315" y="711" on="0"/>
        <pt x="315" y="682" on="1"/>
        <pt x="315" y="652" on="0"/>
        <pt x="272" y="608" on="0"/>
      </contour>
    </TTGlyph>
    <TTGlyph name="j" xMin="-67" yMin="-242" xMax="315" yMax="747">
      <contour>
        <pt x="243" y="608" on="1"/>
        <pt x="217" y="608" on="0"/>
        <pt x="179" y="643" on="0"/>
        <pt x="179" y="673" on="1"/>
        <pt x="179" y="704" on="0"/>
        <pt x="224" y="747" on="0"/>
        <pt x="252" y="747" on="1"/>
        <pt x="280" y="747" on="0"/>
        <pt x="315" y="711" on="0"/>
        <pt x="315" y="682" on="1"/>
        <pt x="315" y="652" on="0"/>
        <pt x="272" y="608" on="0"/>
      </contour>
      <contour>
        <pt x="-60" y="-242" on="1"/>
        <pt x="-67" y="-212" on="1"/>
        <pt x="-42" y="-201" on="0"/>
        <pt x="-5" y="-177" on="0"/>
        <pt x="11" y="-157" on="1"/>
        <pt x="32" y="-128" on="0"/>
        <pt x="65" y="-36" on="0"/>
        <pt x="81" y="49" on="1"/>
        <pt x="147" y="396" on="1"/>
        <pt x="63" y="403" on="1"/>
        <pt x="67" y="436" on="1"/>
        <pt x="255" y="494" on="1"/>
        <pt x="270" y="481" on="1"/>
        <pt x="185" y="43" on="1"/>
        <pt x="155" y="-104" on="0"/>
        <pt x="78" y="-177" on="1"/>
        <pt x="51" y="-204" on="0"/>
        <pt x="-18" y="-238" on="0"/>
      </contour>
    </TTGlyph>
    <TTGlyph name="k" xMin="50" yMin="-14" xMax="519" yMax="730">
      <contour>
        <pt x="50" y="2" on="1"/>
        <pt x="142" y="451" on="1"/>
        <pt x="152" y="496" on="0"/>
        <pt x="170" y="587" on="0"/>
        <pt x="177" y="633" on="1"/>
        <pt x="95" y="640" on="1"/>
        <pt x="100" y="673" on="1"/>
        <pt x="293" y="730" on="1"/>
        <pt x="303" y="720" on="1"/>
        <pt x="213" y="282" on="1"/>
        <pt x="467" y="488" on="1"/>
        <pt x="490" y="485" on="0"/>
        <pt x="519" y="453" on="0"/>
        <pt x="519" y="431" on="1"/>
        <pt x="519" y="409" on="0"/>
        <pt x="484" y="379" on="0"/>
        <pt x="446" y="364" on="1"/>
        <pt x="219" y="261" on="1"/>
        <pt x="252" y="257" on="1"/>
        <pt x="298" y="250" on="0"/>
        <pt x="358" y="201" on="0"/>
        <pt x="376" y="159" on="1"/>
        <pt x="405" y="92" on="1"/>
        <pt x="419" y="61" on="0"/>
        <pt x="446" y="38" on="0"/>
        <pt x="466" y="36" on="1"/>
        <pt x="507" y="32" on="1"/>
        <pt x="501" y="0" on="1"/>
        <pt x="460" y="-14" on="0"/>
        <pt x="418" y="-14" on="1"/>
        <pt x="377" y="-14" on="0"/>
        <pt x="318" y="20" on="0"/>
        <pt x="298" y="75" on="1"/>
        <pt x="267" y="158" on="1"/>
        <pt x="251" y="199" on="0"/>
        <pt x="227" y="232" on="0"/>
        <pt x="204" y="239" on="1"/>
        <pt x="199" y="213" on="1"/>
        <pt x="187" y="154" on="0"/>
        <pt x="168" y="53" on="0"/>
        <pt x="159" y="0" on="1"/>
        <pt x="61" y="-8" on="1"/>
      </contour>
    </TTGlyph>
    <TTGlyph name="l" xMin="66" yMin="-14" xMax="309" yMax="730">
      <contour>
        <pt x="133" y="-14" on="1"/>
        <pt x="103" y="-14" on="0"/>
        <pt x="66" y="18" on="0"/>
        <pt x="66" y="49" on="1"/>
        <pt x="66" y="64" on="0"/>
        <pt x="73" y="108" on="0"/>
        <pt x="80" y="143" on="1"/>
        <pt x="143" y="451" on="1"/>
        <pt x="152" y="496" on="0"/>
        <pt x="170" y="587" on="0"/>
        <pt x="177" y="633" on="1"/>
        <pt x="96" y="640" on="1"/>
        <pt x="101" y="673" on="1"/>
        <pt x="293" y="730" on="1"/>
        <pt x="306" y="720" on="1"/>
        <pt x="186" y="138" on="1"/>
        <pt x="178" y="103" on="0"/>
        <pt x="178" y="88" on="1"/>
        <pt x="178" y="77" on="0"/>
        <pt x="191" y="66" on="0"/>
        <pt x="199" y="66" on="1"/>
        <pt x="227" y="66" on="0"/>
        <pt x="282" y="133" on="1"/>
        <pt x="309" y="113" on="1"/>
        <pt x="289" y="82" on="0"/>
        <pt x="236" y="23" on="0"/>
        <pt x="172" y="-14" on="0"/>
      </contour>
    </TTGlyph>
    <TTGlyph name="less" xMin="77" yMin="91" xMax="490" yMax="563">
      <contour>
        <pt x="77" y="298" on="1"/>
        <pt x="77" y="355" on="1"/>
        <pt x="455" y="563" on="1"/>
        <pt x="490" y="497" on="1"/>
        <pt x="164" y="327" on="1"/>
        <pt x="490" y="156" on="1"/>
        <pt x="455" y="91" on="1"/>
      </contour>
    </TTGlyph>
    <TTGlyph name="m" xMin="62" yMin="-14" xMax="851" yMax="494">
      <contour>
        <pt x="174" y="0" on="1"/>
        <pt x="76" y="-8" on="1"/>
        <pt x="64" y="2" on="1"/>
        <pt x="147" y="396" on="1"/>
        <pt x="62" y="403" on="1"/>
        <pt x="67" y="436" on="1"/>
        <pt x="255" y="494" on="1"/>
        <pt x="271" y="481" on="1"/>
        <pt x="252" y="386" on="1"/>
        <pt x="302" y="433" on="0"/>
        <pt x="410" y="493" on="0"/>
        <pt x="456" y="493" on="1"/>
        <pt x="488" y="493" on="0"/>
        <pt x="526" y="455" on="0"/>
        <pt x="526" y="417" on="1"/>
        <pt x="526" y="402" on="0"/>
        <pt x="523" y="385" on="1"/>
        <pt x="573" y="432" on="0"/>
        <pt x="676" y="493" on="0"/>
        <pt x="721" y="493" on="1"/>
        <pt x="753" y="493" on="0"/>
        <pt x="791" y="455" on="0"/>
        <pt x="791" y="417" on="1"/>
        <pt x="791" y="395" on="0"/>
        <pt x="782" y="348" on="0"/>
        <pt x="776" y="324" on="1"/>
        <pt x="730" y="137" on="1"/>
        <pt x="726" y="120" on="0"/>
        <pt x="719" y="94" on="0"/>
        <pt x="719" y="86" on="1"/>
        <pt x="719" y="66" on="0"/>
        <pt x="737" y="66" on="1"/>
        <pt x="769" y="66" on="0"/>
        <pt x="823" y="133" on="1"/>
        <pt x="851" y="113" on="1"/>
        <pt x="830" y="81" on="0"/>
        <pt x="774" y="23" on="0"/>
        <pt x="707" y="-14" on="0"/>
        <pt x="668" y="-14" on="1"/>
        <pt x="638" y="-14" on="0"/>
        <pt x="605" y="14" on="0"/>
        <pt x="605" y="39" on="1"/>
        <pt x="605" y="59" on="0"/>
        <pt x="615" y="99" on="0"/>
        <pt x="621" y="126" on="1"/>
        <pt x="661" y="289" on="1"/>
        <pt x="667" y="313" on="0"/>
        <pt x="676" y="356" on="0"/>
        <pt x="676" y="370" on="1"/>
        <pt x="676" y="409" on="0"/>
        <pt x="645" y="409" on="1"/>
        <pt x="599" y="409" on="0"/>
        <pt x="513" y="335" on="1"/>
        <pt x="487" y="212" on="1"/>
        <pt x="476" y="159" on="0"/>
        <pt x="456" y="54" on="0"/>
        <pt x="445" y="0" on="1"/>
        <pt x="348" y="-8" on="1"/>
        <pt x="336" y="2" on="1"/>
        <pt x="402" y="314" on="1"/>
        <pt x="405" y="330" on="0"/>
        <pt x="411" y="360" on="0"/>
        <pt x="411" y="372" on="1"/>
        <pt x="411" y="409" on="0"/>
        <pt x="381" y="409" on="1"/>
        <pt x="356" y="409" on="0"/>
        <pt x="286" y="372" on="0"/>
        <pt x="241" y="334" on="1"/>
        <pt x="215" y="212" on="1"/>
        <pt x="204" y="159" on="0"/>
        <pt x="184" y="54" on="0"/>
      </contour>
    </TTGlyph>
    <TTGlyph name="n" xMin="62" yMin="-14" xMax="587" yMax="494">
      <contour>
        <pt x="174" y="0" on="1"/>
        <pt x="76" y="-8" on="1"/>
        <pt x="64" y="2" on="1"/>
        <pt x="147" y="396" on="1"/>
        <pt x="62" y="403" on="1"/>
        <pt x="67" y="436" on="1"/>
        <pt x="255" y="494" on="1"/>
        <pt x="271" y="481" on="1"/>
        <pt x="251" y="383" on="1"/>
        <pt x="301" y="431" on="0"/>
        <pt x="411" y="493" on="0"/>
        <pt x="458" y="493" on="1"/>
        <pt x="490" y="493" on="0"/>
        <pt x="528" y="455" on="0"/>
        <pt x="528" y="417" on="1"/>
        <pt x="528" y="395" on="0"/>
        <pt x="519" y="348" on="0"/>
        <pt x="513" y="324" on="1"/>
        <pt x="467" y="137" on="1"/>
        <pt x="463" y="120" on="0"/>
        <pt x="456" y="94" on="0"/>
        <pt x="456" y="86" on="1"/>
        <pt x="456" y="66" on="0"/>
        <pt x="474" y="66" on="1"/>
        <pt x="507" y="66" on="0"/>
        <pt x="560" y="133" on="1"/>
        <pt x="587" y="113" on="1"/>
        <pt x="568" y="82" on="0"/>
        <pt x="511" y="23" on="0"/>
        <pt x="443" y="-14" on="0"/>
        <pt x="404" y="-14" on="1"/>
        <pt x="375" y="-14" on="0"/>
        <pt x="342" y="14" on="0"/>
        <pt x="342" y="39" on="1"/>
        <pt x="342" y="59" on="0"/>
        <pt x="351" y="99" on="0"/>
        <pt x="358" y="126" on="1"/>
        <pt x="398" y="289" on="1"/>
        <pt x="404" y="313" on="0"/>
        <pt x="413" y="356" on="0"/>
        <pt x="413" y="370" on="1"/>
        <pt x="413" y="409" on="0"/>
        <pt x="382" y="409" on="1"/>
        <pt x="358" y="409" on="0"/>
        <pt x="286" y="371" on="0"/>
        <pt x="241" y="332" on="1"/>
        <pt x="215" y="212" on="1"/>
        <pt x="204" y="159" on="0"/>
        <pt x="184" y="54" on="0"/>
      </contour>
    </TTGlyph>
    <TTGlyph name="nine" xMin="75" yMin="-16" xMax="528" yMax="652">
      <component glyphName="glyph00090" x="6" y="0" flags="0x4"/>
    </TTGlyph>
    <TTGlyph name="numbersign" xMin="40" yMin="0" xMax="592" yMax="646">
      <contour>
        <pt x="226" y="265" on="1"/>
        <pt x="381" y="265" on="1"/>
        <pt x="413" y="384" on="1"/>
        <pt x="258" y="384" on="1"/>
      </contour>
      <contour>
        <pt x="92" y="0" on="1"/>
        <pt x="138" y="170" on="1"/>
        <pt x="40" y="170" on="1"/>
        <pt x="59" y="265" on="1"/>
        <pt x="163" y="265" on="1"/>
        <pt x="195" y="384" on="1"/>
        <pt x="97" y="384" on="1"/>
        <pt x="116" y="479" on="1"/>
        <pt x="220" y="479" on="1"/>
        <pt x="265" y="646" on="1"/>
        <pt x="329" y="646" on="1"/>
        <pt x="284" y="479" on="1"/>
        <pt x="439" y="479" on="1"/>
        <pt x="484" y="646" on="1"/>
        <pt x="547" y="646" on="1"/>
        <pt x="502" y="479" on="1"/>
        <pt x="592" y="479" on="1"/>
        <pt x="574" y="384" on="1"/>
        <pt x="476" y="384" on="1"/>
        <pt x="444" y="265" on="1"/>
        <pt x="535" y="265" on="1"/>
        <pt x="516" y="170" on="1"/>
        <pt x="419" y="170" on="1"/>
        <pt x="373" y="0" on="1"/>
        <pt x="310" y="0" on="1"/>
        <pt x="356" y="170" on="1"/>
        <pt x="201" y="170" on="1"/>
        <pt x="155" y="0" on="1"/>
      </contour>
    </TTGlyph>
    <TTGlyph name="o" xMin="50" yMin="-14" xMax="504" yMax="493">
      <contour>
        <pt x="231" y="-14" on="1"/>
        <pt x="181" y="-14" on="0"/>
        <pt x="98" y="27" on="0"/>
        <pt x="50" y="109" on="0"/>
        <pt x="50" y="170" on="1"/>
        <pt x="50" y="235" on="0"/>
        <pt x="93" y="351" on="0"/>
        <pt x="169" y="441" on="0"/>
        <pt x="269" y="493" on="0"/>
        <pt x="327" y="493" on="1"/>
        <pt x="404" y="493" on="0"/>
        <pt x="504" y="402" on="0"/>
        <pt x="504" y="310" on="1"/>
        <pt x="504" y="246" on="0"/>
        <pt x="462" y="129" on="0"/>
        <pt x="388" y="38" on="0"/>
        <pt x="288" y="-14" on="0"/>
      </contour>
      <contour>
        <pt x="242" y="33" on="1"/>
        <pt x="275" y="33" on="0"/>
        <pt x="330" y="82" on="0"/>
        <pt x="370" y="165" on="0"/>
        <pt x="391" y="266" on="0"/>
        <pt x="391" y="317" on="1"/>
        <pt x="391" y="388" on="0"/>
        <pt x="349" y="446" on="0"/>
        <pt x="315" y="446" on="1"/>
        <pt x="282" y="446" on="0"/>
        <pt x="227" y="398" on="0"/>
        <pt x="186" y="317" on="0"/>
        <pt x="163" y="215" on="0"/>
        <pt x="163" y="162" on="1"/>
        <pt x="163" y="91" on="0"/>
        <pt x="208" y="33" on="0"/>
      </contour>
    </TTGlyph>
    <TTGlyph name="one" xMin="55" yMin="0" xMax="435" yMax="650">
      <contour>
        <pt x="178" y="595" on="1"/>
        <pt x="412" y="650" on="1"/>
        <pt x="423" y="640" on="1"/>
        <pt x="390" y="498" on="1"/>
        <pt x="330" y="209" on="1"/>
        <pt x="323" y="172" on="0"/>
        <pt x="308" y="94" on="0"/>
        <pt x="300" y="56" on="1"/>
        <pt x="435" y="41" on="1"/>
        <pt x="426" y="0" on="1"/>
        <pt x="55" y="0" on="1"/>
        <pt x="64" y="41" on="1"/>
        <pt x="192" y="55" on="1"/>
        <pt x="295" y="561" on="1"/>
        <pt x="169" y="553" on="1"/>
      </contour>
    </TTGlyph>
    <TTGlyph name="p" xMin="-56" yMin="-234" xMax="536" yMax="494">
      <contour>
        <pt x="-56" y="-234" on="1"/>
        <pt x="-48" y="-197" on="1"/>
        <pt x="25" y="-185" on="1"/>
        <pt x="147" y="396" on="1"/>
        <pt x="62" y="403" on="1"/>
        <pt x="67" y="436" on="1"/>
        <pt x="255" y="494" on="1"/>
        <pt x="271" y="481" on="1"/>
        <pt x="250" y="382" on="1"/>
        <pt x="294" y="433" on="0"/>
        <pt x="395" y="493" on="0"/>
        <pt x="438" y="493" on="1"/>
        <pt x="479" y="493" on="0"/>
        <pt x="536" y="436" on="0"/>
        <pt x="536" y="363" on="1"/>
        <pt x="536" y="310" on="0"/>
        <pt x="499" y="202" on="0"/>
        <pt x="436" y="105" on="0"/>
        <pt x="354" y="30" on="0"/>
        <pt x="264" y="-14" on="0"/>
        <pt x="219" y="-14" on="1"/>
        <pt x="206" y="-14" on="0"/>
        <pt x="180" y="-9" on="0"/>
        <pt x="169" y="-3" on="1"/>
        <pt x="157" y="-60" on="0"/>
        <pt x="141" y="-147" on="0"/>
        <pt x="134" y="-185" on="1"/>
        <pt x="217" y="-197" on="1"/>
        <pt x="209" y="-234" on="1"/>
      </contour>
      <contour>
        <pt x="367" y="409" on="1"/>
        <pt x="341" y="409" on="0"/>
        <pt x="275" y="367" on="0"/>
        <pt x="240" y="332" on="1"/>
        <pt x="188" y="84" on="1"/>
        <pt x="220" y="57" on="0"/>
        <pt x="253" y="57" on="1"/>
        <pt x="318" y="57" on="0"/>
        <pt x="368" y="130" on="1"/>
        <pt x="394" y="167" on="0"/>
        <pt x="426" y="270" on="0"/>
        <pt x="426" y="318" on="1"/>
        <pt x="426" y="365" on="0"/>
        <pt x="396" y="409" on="0"/>
      </contour>
    </TTGlyph>
    <TTGlyph name="parenleft" xMin="83" yMin="-200" xMax="439" yMax="713">
      <contour>
        <pt x="238" y="-200" on="1"/>
        <pt x="168" y="-120" on="0"/>
        <pt x="83" y="66" on="0"/>
        <pt x="83" y="180" on="1"/>
        <pt x="83" y="336" on="0"/>
        <pt x="247" y="613" on="0"/>
        <pt x="410" y="713" on="1"/>
        <pt x="439" y="675" on="1"/>
        <pt x="305" y="570" on="0"/>
        <pt x="180" y="317" on="0"/>
        <pt x="180" y="169" on="1"/>
        <pt x="180" y="72" on="0"/>
        <pt x="230" y="-89" on="0"/>
        <pt x="279" y="-172" on="1"/>
      </contour>
    </TTGlyph>
    <TTGlyph name="parenright" xMin="-21" yMin="-200" xMax="335" yMax="713">
      <contour>
        <pt x="180" y="713" on="1"/>
        <pt x="250" y="634" on="0"/>
        <pt x="335" y="447" on="0"/>
        <pt x="335" y="333" on="1"/>
        <pt x="335" y="177" on="0"/>
        <pt x="171" y="-99" on="0"/>
        <pt x="8" y="-200" on="1"/>
        <pt x="-21" y="-162" on="1"/>
        <pt x="113" y="-57" on="0"/>
        <pt x="238" y="196" on="0"/>
        <pt x="238" y="344" on="1"/>
        <pt x="238" y="441" on="0"/>
        <pt x="188" y="602" on="0"/>
        <pt x="139" y="685" on="1"/>
      </contour>
    </TTGlyph>
    <TTGlyph name="percent" xMin="77" yMin="-18" xMax="839" yMax="658">
      <component glyphName="glyph00163" x="377" y="0" flags="0x4"/>
      <component glyphName="glyph00114" x="-36" y="-169" flags="0x4"/>
      <component glyphName="glyph00114" x="413" y="-419" flags="0x4"/>
    </TTGlyph>
    <TTGlyph name="period" xMin="55" yMin="-12" xMax="209" yMax="138">
      <contour>
        <pt x="126" y="-12" on="1"/>
        <pt x="95" y="-12" on="0"/>
        <pt x="55" y="28" on="0"/>
        <pt x="55" y="56" on="1"/>
        <pt x="55" y="91" on="0"/>
        <pt x="106" y="138" on="0"/>
        <pt x="140" y="138" on="1"/>
        <pt x="170" y="138" on="0"/>
        <pt x="209" y="98" on="0"/>
        <pt x="209" y="69" on="1"/>
        <pt x="209" y="35" on="0"/>
        <pt x="160" y="-12" on="0"/>
      </contour>
    </TTGlyph>
    <TTGlyph name="plus" xMin="60" yMin="89" xMax="510" yMax="558">
      <contour>
        <pt x="250" y="89" on="1"/>
        <pt x="250" y="293" on="1"/>
        <pt x="60" y="293" on="1"/>
        <pt x="60" y="360" on="1"/>
        <pt x="250" y="360" on="1"/>
        <pt x="250" y="558" on="1"/>
        <pt x="321" y="558" on="1"/>
        <pt x="321" y="360" on="1"/>
        <pt x="510" y="360" on="1"/>
        <pt x="510" y="293" on="1"/>
        <pt x="321" y="293" on="1"/>
        <pt x="321" y="89" on="1"/>
      </contour>
    </TTGlyph>
    <TTGlyph name="q" xMin="47" yMin="-234" xMax="516" yMax="497">
      <contour>
        <pt x="157" y="161" on="1"/>
        <pt x="157" y="72" on="0"/>
        <pt x="216" y="72" on="1"/>
        <pt x="240" y="72" on="0"/>
        <pt x="302" y="105" on="0"/>
        <pt x="339" y="142" on="1"/>
        <pt x="394" y="406" on="1"/>
        <pt x="366" y="423" on="0"/>
        <pt x="336" y="423" on="1"/>
        <pt x="308" y="423" on="0"/>
        <pt x="256" y="395" on="0"/>
        <pt x="235" y="374" on="1"/>
        <pt x="200" y="337" on="0"/>
        <pt x="157" y="219" on="0"/>
      </contour>
      <contour>
        <pt x="516" y="486" on="1"/>
        <pt x="409" y="-28" on="1"/>
        <pt x="401" y="-68" on="0"/>
        <pt x="387" y="-146" on="0"/>
        <pt x="380" y="-185" on="1"/>
        <pt x="458" y="-197" on="1"/>
        <pt x="450" y="-234" on="1"/>
        <pt x="184" y="-234" on="1"/>
        <pt x="191" y="-197" on="1"/>
        <pt x="271" y="-185" on="1"/>
        <pt x="329" y="89" on="1"/>
        <pt x="286" y="43" on="0"/>
        <pt x="185" y="-14" on="0"/>
        <pt x="144" y="-14" on="1"/>
        <pt x="105" y="-14" on="0"/>
        <pt x="47" y="47" on="0"/>
        <pt x="47" y="120" on="1"/>
        <pt x="47" y="171" on="0"/>
        <pt x="86" y="276" on="0"/>
        <pt x="153" y="373" on="0"/>
        <pt x="238" y="449" on="0"/>
        <pt x="329" y="493" on="0"/>
        <pt x="373" y="493" on="1"/>
        <pt x="414" y="493" on="0"/>
        <pt x="444" y="467" on="1"/>
        <pt x="499" y="497" on="1"/>
      </contour>
    </TTGlyph>
    <TTGlyph name="question" xMin="67" yMin="-14" xMax="481" yMax="680">
      <contour>
        <pt x="67" y="50" on="1"/>
        <pt x="67" y="82" on="0"/>
        <pt x="114" y="126" on="0"/>
        <pt x="143" y="126" on="1"/>
        <pt x="173" y="126" on="0"/>
        <pt x="208" y="88" on="0"/>
        <pt x="208" y="62" on="1"/>
        <pt x="208" y="31" on="0"/>
        <pt x="162" y="-14" on="0"/>
        <pt x="133" y="-14" on="1"/>
        <pt x="104" y="-14" on="0"/>
        <pt x="67" y="23" on="0"/>
      </contour>
      <contour>
        <pt x="129" y="189" on="1"/>
        <pt x="128" y="257" on="0"/>
        <pt x="141" y="328" on="0"/>
        <pt x="161" y="354" on="1"/>
        <pt x="172" y="367" on="0"/>
        <pt x="198" y="392" on="0"/>
        <pt x="245" y="424" on="0"/>
        <pt x="287" y="448" on="1"/>
        <pt x="349" y="483" on="0"/>
        <pt x="394" y="539" on="0"/>
        <pt x="394" y="568" on="1"/>
        <pt x="394" y="600" on="0"/>
        <pt x="349" y="637" on="0"/>
        <pt x="302" y="637" on="1"/>
        <pt x="295" y="637" on="0"/>
        <pt x="281" y="637" on="0"/>
        <pt x="275" y="636" on="1"/>
        <pt x="247" y="567" on="1"/>
        <pt x="237" y="542" on="0"/>
        <pt x="207" y="516" on="0"/>
        <pt x="184" y="516" on="1"/>
        <pt x="163" y="516" on="0"/>
        <pt x="137" y="542" on="0"/>
        <pt x="135" y="563" on="1"/>
        <pt x="146" y="610" on="0"/>
        <pt x="235" y="680" on="0"/>
        <pt x="315" y="680" on="1"/>
        <pt x="386" y="680" on="0"/>
        <pt x="481" y="617" on="0"/>
        <pt x="481" y="550" on="1"/>
        <pt x="481" y="495" on="0"/>
        <pt x="420" y="416" on="0"/>
        <pt x="346" y="373" on="1"/>
        <pt x="300" y="347" on="0"/>
        <pt x="245" y="314" on="0"/>
        <pt x="214" y="293" on="0"/>
        <pt x="205" y="285" on="1"/>
        <pt x="190" y="269" on="0"/>
        <pt x="176" y="228" on="0"/>
        <pt x="169" y="184" on="1"/>
      </contour>
    </TTGlyph>
    <TTGlyph name="quotedbl" xMin="158" yMin="414" xMax="460" yMax="730">
      <component glyphName="quotesingle" x="0" y="0" flags="0x4"/>
      <component glyphName="quotesingle" x="182" y="0" flags="0x4"/>
    </TTGlyph>
    <TTGlyph name="quotesingle" xMin="158" yMin="414" xMax="278" yMax="730">
      <contour>
        <pt x="231" y="730" on="1"/>
        <pt x="254" y="730" on="0"/>
        <pt x="278" y="700" on="0"/>
        <pt x="278" y="675" on="1"/>
        <pt x="278" y="642" on="0"/>
        <pt x="230" y="502" on="0"/>
        <pt x="198" y="414" on="1"/>
        <pt x="159" y="414" on="1"/>
        <pt x="158" y="489" on="1"/>
        <pt x="158" y="511" on="0"/>
        <pt x="159" y="577" on="0"/>
        <pt x="164" y="643" on="0"/>
        <pt x="167" y="664" on="1"/>
        <pt x="173" y="701" on="0"/>
        <pt x="206" y="730" on="0"/>
      </contour>
    </TTGlyph>
    <TTGlyph name="r" xMin="62" yMin="-8" xMax="469" yMax="494">
      <contour>
        <pt x="64" y="2" on="1"/>
        <pt x="147" y="396" on="1"/>
        <pt x="62" y="403" on="1"/>
        <pt x="67" y="436" on="1"/>
        <pt x="246" y="494" on="1"/>
        <pt x="262" y="481" on="1"/>
        <pt x="238" y="339" on="1"/>
        <pt x="261" y="381" on="0"/>
        <pt x="312" y="451" on="0"/>
        <pt x="368" y="493" on="0"/>
        <pt x="396" y="493" on="1"/>
        <pt x="420" y="493" on="0"/>
        <pt x="459" y="473" on="0"/>
        <pt x="469" y="453" on="1"/>
        <pt x="468" y="423" on="0"/>
        <pt x="438" y="383" on="0"/>
        <pt x="409" y="383" on="1"/>
        <pt x="392" y="383" on="0"/>
        <pt x="359" y="401" on="0"/>
        <pt x="342" y="417" on="1"/>
        <pt x="303" y="380" on="0"/>
        <pt x="245" y="292" on="0"/>
        <pt x="222" y="244" on="1"/>
        <pt x="215" y="212" on="1"/>
        <pt x="204" y="159" on="0"/>
        <pt x="184" y="54" on="0"/>
        <pt x="174" y="0" on="1"/>
        <pt x="76" y="-8" on="1"/>
      </contour>
    </TTGlyph>
    <TTGlyph name="s" xMin="34" yMin="-14" xMax="406" yMax="493">
      <contour>
        <pt x="360" y="133" on="1"/>
        <pt x="360" y="72" on="0"/>
        <pt x="261" y="-14" on="0"/>
        <pt x="170" y="-14" on="1"/>
        <pt x="109" y="-14" on="0"/>
        <pt x="41" y="40" on="0"/>
        <pt x="34" y="89" on="1"/>
        <pt x="42" y="128" on="0"/>
        <pt x="81" y="128" on="1"/>
        <pt x="128" y="128" on="0"/>
        <pt x="141" y="75" on="1"/>
        <pt x="152" y="26" on="1"/>
        <pt x="154" y="26" on="0"/>
        <pt x="159" y="26" on="0"/>
        <pt x="162" y="26" on="1"/>
        <pt x="207" y="26" on="0"/>
        <pt x="256" y="68" on="0"/>
        <pt x="256" y="102" on="1"/>
        <pt x="256" y="126" on="0"/>
        <pt x="229" y="170" on="0"/>
        <pt x="189" y="200" on="1"/>
        <pt x="149" y="232" on="0"/>
        <pt x="99" y="295" on="0"/>
        <pt x="99" y="343" on="1"/>
        <pt x="99" y="384" on="0"/>
        <pt x="141" y="452" on="0"/>
        <pt x="218" y="493" on="0"/>
        <pt x="272" y="493" on="1"/>
        <pt x="385" y="493" on="0"/>
        <pt x="406" y="399" on="1"/>
        <pt x="398" y="361" on="0"/>
        <pt x="359" y="361" on="1"/>
        <pt x="340" y="361" on="0"/>
        <pt x="309" y="387" on="0"/>
        <pt x="299" y="415" on="1"/>
        <pt x="286" y="453" on="1"/>
        <pt x="284" y="453" on="1"/>
        <pt x="238" y="453" on="0"/>
        <pt x="200" y="407" on="0"/>
        <pt x="200" y="376" on="1"/>
        <pt x="200" y="345" on="0"/>
        <pt x="236" y="301" on="0"/>
        <pt x="276" y="270" on="1"/>
        <pt x="322" y="235" on="0"/>
        <pt x="360" y="177" on="0"/>
      </contour>
    </TTGlyph>
</ttFont>
